SplineFontDB: 3.2
FontName: Montserrat-BoldItalic
FullName: Montserrat Bold Italic
FamilyName: Montserrat
Weight: Bold
Copyright: Copyright 2011 The Montserrat Project Authors (https://github.com/JulietaUla/Montserrat)
Version: 9.000
ItalicAngle: -11.3
UnderlinePosition: -125
UnderlineWidth: 50
Ascent: 800
Descent: 200
InvalidEm: 0
sfntRevision: 0x00090000
LayerCount: 2
Layer: 0 1 "Back" 1
Layer: 1 1 "Fore" 0
XUID: [1021 598 623987363 14538694]
StyleMap: 0x0021
FSType: 0
OS2Version: 4
OS2_WeightWidthSlopeOnly: 0
OS2_UseTypoMetrics: 1
CreationTime: 1624264748
ModificationTime: 1773218608
PfmFamily: 81
TTFWeight: 700
TTFWidth: 5
LineGap: 0
VLineGap: 0
Panose: 0 0 0 0 0 0 0 0 0 0
OS2TypoAscent: 968
OS2TypoAOffset: 0
OS2TypoDescent: -251
OS2TypoDOffset: 0
OS2TypoLinegap: 0
OS2WinAscent: 1109
OS2WinAOffset: 0
OS2WinDescent: 453
OS2WinDOffset: 0
HheadAscent: 968
HheadAOffset: 0
HheadDescent: -251
HheadDOffset: 0
OS2SubXSize: 650
OS2SubYSize: 600
OS2SubXOff: -15
OS2SubYOff: 75
OS2SupXSize: 650
OS2SupYSize: 600
OS2SupXOff: 70
OS2SupYOff: 350
OS2StrikeYSize: 50
OS2StrikeYPos: 323
OS2CapHeight: 700
OS2XHeight: 538
OS2Vendor: 'ULA '
OS2CodePages: 20000197.00000000
OS2UnicodeRanges: a00002ff.4000247b.00000000.00000000
Lookup: 1 0 0 "'rvrn' Required Variation Alternates lookup 0" { "'rvrn' Required Variation Alternates lookup 0 subtable"  } ['rvrn' ('DFLT' <'NAV ' 'dflt' > 'cyrl' <'BGR ' 'BSH ' 'CHU ' 'MKD ' 'SRB ' 'dflt' > 'latn' <'AZE ' 'CAT ' 'CRT ' 'KAZ ' 'MOL ' 'NAV ' 'NLD ' 'NSM ' 'ROM ' 'TAT ' 'TOD0' 'TRK ' 'VIT ' 'XPE ' 'dflt' > ) ]
Lookup: 1 0 0 "'rvrn' Required Variation Alternates lookup 1" { "'rvrn' Required Variation Alternates lookup 1 subtable"  } ['rvrn' ('DFLT' <'NAV ' 'dflt' > 'cyrl' <'BGR ' 'BSH ' 'CHU ' 'MKD ' 'SRB ' 'dflt' > 'latn' <'AZE ' 'CAT ' 'CRT ' 'KAZ ' 'MOL ' 'NAV ' 'NLD ' 'NSM ' 'ROM ' 'TAT ' 'TOD0' 'TRK ' 'VIT ' 'XPE ' 'dflt' > ) ]

StartChar: .notdef
Encoding: 65536 -1 0
Width: 587
GlyphClass: 1
Flags: W
LayerCount: 2
Fore
SplineSet
-14 0 m 1,0,-1
 126 700 l 1,1,-1
 633 700 l 1,2,-1
 493 0 l 1,3,-1
 -14 0 l 1,0,-1
80 70 m 1,4,-1
 427 70 l 1,5,-1
 539 630 l 1,6,-1
 192 630 l 1,7,-1
 80 70 l 1,4,-1
EndSplineSet
EndChar

StartChar: A
Encoding: 65 65 1
Width: 766
GlyphClass: 2
Flags: W
AnchorPoint: "Anchor-3" 469 700 basechar 0
AnchorPoint: "Anchor-2" 722 0 basechar 0
AnchorPoint: "Anchor-0" 329 0 basechar 0
LayerCount: 2
Fore
SplineSet
-63 0 m 1,0,-1
 389 700 l 1,1,-1
 550 700 l 1,2,-1
 722 0 l 1,3,-1
 560 0 l 1,4,-1
 424 620 l 1,5,-1
 488 620 l 1,6,-1
 110 0 l 1,7,-1
 -63 0 l 1,0,-1
124 150 m 1,8,-1
 190 273 l 1,9,-1
 551 273 l 1,10,-1
 570 150 l 1,11,-1
 124 150 l 1,8,-1
EndSplineSet
Substitution2: "'ss01' Style Set 1 lookup 53 subtable" A.ss01
Substitution2: "'c2sc' Capitals to Small Capitals lookup 48 subtable" a.sc
Substitution2: "Single Substitution lookup 42 subtable" ordfeminine
AlternateSubs2: "'aalt' Access All Alternates lookup 4 subtable" ordfeminine a.sc A.ss01
EndChar

StartChar: uni2C6D
Encoding: 11373 11373 25
Width: 885
GlyphClass: 2
Flags: W
AnchorPoint: "Anchor-3" 534 700 basechar 0
AnchorPoint: "Anchor-2" 749 0 basechar 0
AnchorPoint: "Anchor-0" 394 0 basechar 0
LayerCount: 2
Fore
SplineSet
364 -11 m 256,0,1
 271 -11 271 -11 201 28.5 c 128,-1,2
 131 68 131 68 91.5 139.5 c 128,-1,3
 52 211 52 211 52 304 c 0,4,5
 52 389 52 389 84 463 c 128,-1,6
 116 537 116 537 173 593 c 128,-1,7
 230 649 230 649 305 680.5 c 128,-1,8
 380 712 380 712 467 712 c 0,9,10
 570 712 570 712 637 666 c 128,-1,11
 704 620 704 620 729 535.5 c 128,-1,12
 754 451 754 451 731 334 c 0,13,14
 710 226 710 226 658.5 148.5 c 128,-1,15
 607 71 607 71 532 30 c 128,-1,16
 457 -11 457 -11 364 -11 c 256,0,1
399 126 m 0,17,18
 465 126 465 126 520.5 154.5 c 128,-1,19
 576 183 576 183 613 233.5 c 128,-1,20
 650 284 650 284 661 349 c 256,21,22
 672 414 672 414 652 465 c 128,-1,23
 632 516 632 516 586.5 545 c 128,-1,24
 541 574 541 574 475 574 c 0,25,26
 420 574 420 574 373 554 c 128,-1,27
 326 534 326 534 290.5 498.5 c 128,-1,28
 255 463 255 463 235.5 415 c 128,-1,29
 216 367 216 367 216 312 c 0,30,31
 216 225 216 225 265.5 175.5 c 128,-1,32
 315 126 315 126 399 126 c 0,17,18
593 0 m 1,33,-1
 627 169 l 1,34,-1
 670 352 l 1,35,-1
 693 535 l 1,36,-1
 726 700 l 1,37,-1
 889 700 l 1,38,-1
 749 0 l 1,39,-1
 593 0 l 1,33,-1
EndSplineSet
Substitution2: "'c2sc' Capitals to Small Capitals lookup 48 subtable" uni0251.sc
Substitution2: "'aalt' Access All Alternates lookup 3 subtable" uni0251.sc
EndChar

StartChar: uni023A
Encoding: 570 570 31
Width: 754
GlyphClass: 1
Flags: W
LayerCount: 2
Fore
SplineSet
164 -70 m 1,0,-1
 684 770 l 1,1,-1
 783 770 l 1,2,-1
 264 -70 l 1,3,-1
 164 -70 l 1,0,-1
121 158 m 1,4,-1
 182 267 l 1,5,-1
 550 267 l 1,6,-1
 568 158 l 1,7,-1
 121 158 l 1,4,-1
-63 0 m 1,8,-1
 390 700 l 1,9,-1
 536 700 l 1,10,-1
 710 0 l 1,11,-1
 559 0 l 1,12,-1
 421 627 l 1,13,-1
 480 627 l 1,14,-1
 92 0 l 1,15,-1
 -63 0 l 1,8,-1
EndSplineSet
Substitution2: "'ss01' Style Set 1 lookup 53 subtable" uni023A.ss01
Substitution2: "'c2sc' Capitals to Small Capitals lookup 48 subtable" uni2C65.sc
AlternateSubs2: "'aalt' Access All Alternates lookup 4 subtable" uni2C65.sc uni023A.ss01
Substitution2: "'rvrn' Required Variation Alternates lookup 0 subtable" uni023A.BRACKET.varAlt01
EndChar

StartChar: uni2C6F
Encoding: 11375 11375 33
Width: 766
GlyphClass: 2
Flags: W
AnchorPoint: "Anchor-3" 469 700 basechar 0
AnchorPoint: "Anchor-0" 329 0 basechar 0
LayerCount: 2
Fore
SplineSet
862 700 m 1,0,-1
 409 0 l 1,1,-1
 249 0 l 1,2,-1
 77 700 l 1,3,-1
 239 700 l 1,4,-1
 375 80 l 1,5,-1
 311 80 l 1,6,-1
 689 700 l 1,7,-1
 862 700 l 1,0,-1
675 550 m 1,8,-1
 609 427 l 1,9,-1
 248 427 l 1,10,-1
 229 550 l 1,11,-1
 675 550 l 1,8,-1
EndSplineSet
Substitution2: "'ss01' Style Set 1 lookup 53 subtable" uni2C6F.ss01
Substitution2: "'c2sc' Capitals to Small Capitals lookup 48 subtable" uni0250.sc
AlternateSubs2: "'aalt' Access All Alternates lookup 4 subtable" uni0250.sc uni2C6F.ss01
EndChar

StartChar: AE
Encoding: 198 198 34
Width: 1082
GlyphClass: 2
Flags: W
AnchorPoint: "Anchor-3" 725 700 basechar 0
AnchorPoint: "Anchor-2" 983 0 basechar 0
AnchorPoint: "Anchor-0" 521 0 basechar 0
LayerCount: 2
Fore
SplineSet
-64 0 m 1,0,-1
 466 700 l 1,1,-1
 636 700 l 1,2,-1
 611 571 l 1,3,-1
 472 571 l 1,4,-1
 587 638 l 1,5,-1
 114 0 l 1,6,-1
 -64 0 l 1,0,-1
176 150 m 1,7,-1
 203 273 l 1,8,-1
 550 273 l 1,9,-1
 527 150 l 1,10,-1
 176 150 l 1,7,-1
441 0 m 1,11,-1
 581 700 l 1,12,-1
 1109 700 l 1,13,-1
 1083 570 l 1,14,-1
 715 570 l 1,15,-1
 627 130 l 1,16,-1
 1009 130 l 1,17,-1
 983 0 l 1,18,-1
 441 0 l 1,11,-1
647 292 m 1,19,-1
 673 418 l 1,20,-1
 1010 418 l 1,21,-1
 985 292 l 1,22,-1
 647 292 l 1,19,-1
EndSplineSet
Substitution2: "'ss01' Style Set 1 lookup 53 subtable" AE.ss01
Substitution2: "'c2sc' Capitals to Small Capitals lookup 48 subtable" ae.sc
AlternateSubs2: "'aalt' Access All Alternates lookup 4 subtable" ae.sc AE.ss01
EndChar

StartChar: B
Encoding: 66 66 37
Width: 765
GlyphClass: 2
Flags: W
AnchorPoint: "Anchor-3" 465 700 basechar 0
AnchorPoint: "Anchor-0" 325 0 basechar 0
LayerCount: 2
Fore
SplineSet
29 0 m 1,0,-1
 169 700 l 1,1,-1
 507 700 l 2,2,3
 621 700 621 700 681.5 659 c 128,-1,4
 742 618 742 618 742 540 c 0,5,6
 742 474 742 474 707.5 429 c 128,-1,7
 673 384 673 384 616 361 c 128,-1,8
 559 338 559 338 492 338 c 1,9,-1
 518 378 l 1,10,11
 606 378 606 378 658.5 337.5 c 128,-1,12
 711 297 711 297 711 221 c 0,13,14
 711 147 711 147 670.5 97.5 c 128,-1,15
 630 48 630 48 559 24 c 128,-1,16
 488 0 488 0 396 0 c 2,17,-1
 29 0 l 1,0,-1
215 122 m 1,18,-1
 406 122 l 2,19,20
 473 122 473 122 511.5 147.5 c 128,-1,21
 550 173 550 173 550 223 c 0,22,23
 550 262 550 262 521.5 278.5 c 128,-1,24
 493 295 493 295 445 295 c 2,25,-1
 231 295 l 1,26,-1
 255 413 l 1,27,-1
 437 413 l 2,28,29
 479 413 479 413 509.5 424 c 128,-1,30
 540 435 540 435 556 457.5 c 128,-1,31
 572 480 572 480 572 512 c 0,32,33
 572 547 572 547 545 562.5 c 128,-1,34
 518 578 518 578 469 578 c 2,35,-1
 305 578 l 1,36,-1
 215 122 l 1,18,-1
EndSplineSet
Substitution2: "'c2sc' Capitals to Small Capitals lookup 48 subtable" b.sc
Substitution2: "'aalt' Access All Alternates lookup 3 subtable" b.sc
EndChar

StartChar: uniA7B4
Encoding: 42932 42932 40
Width: 765
GlyphClass: 2
Flags: W
AnchorPoint: "Anchor-3" 472 700 basechar 0
AnchorPoint: "Anchor-0" 332 0 basechar 0
LayerCount: 2
Fore
SplineSet
115 122 m 1,0,-1
 407 122 l 2,1,2
 474 122 474 122 512 147.5 c 128,-1,3
 550 173 550 173 550 223 c 0,4,5
 550 262 550 262 521.5 278.5 c 128,-1,6
 493 295 493 295 445 295 c 2,7,-1
 232 295 l 1,8,-1
 255 413 l 1,9,-1
 437 413 l 2,10,11
 479 413 479 413 509.5 424 c 128,-1,12
 540 435 540 435 556.5 457.5 c 128,-1,13
 573 480 573 480 573 512 c 0,14,15
 573 547 573 547 546 562.5 c 128,-1,16
 519 578 519 578 470 578 c 2,17,-1
 306 578 l 1,18,-1
 152 -194 l 1,19,-1
 -9 -194 l 1,20,-1
 170 700 l 1,21,-1
 507 700 l 2,22,23
 622 700 622 700 682 659 c 128,-1,24
 742 618 742 618 742 540 c 0,25,26
 742 474 742 474 707.5 429 c 128,-1,27
 673 384 673 384 616.5 361 c 128,-1,28
 560 338 560 338 492 338 c 1,29,-1
 518 378 l 1,30,31
 606 378 606 378 659 337.5 c 128,-1,32
 712 297 712 297 712 221 c 0,33,34
 712 147 712 147 671 97.5 c 128,-1,35
 630 48 630 48 559 24 c 128,-1,36
 488 0 488 0 397 0 c 2,37,-1
 115 0 l 1,38,-1
 115 122 l 1,0,-1
EndSplineSet
Substitution2: "'c2sc' Capitals to Small Capitals lookup 48 subtable" uniA7B5.sc
Substitution2: "'aalt' Access All Alternates lookup 3 subtable" uniA7B5.sc
EndChar

StartChar: uni0181
Encoding: 385 385 41
Width: 969
GlyphClass: 2
Flags: W
AnchorPoint: "Anchor-3" 670 700 basechar 0
AnchorPoint: "Anchor-0" 530 0 basechar 0
LayerCount: 2
Fore
SplineSet
108 350 m 1,0,1
 74 411 74 411 71.5 472.5 c 128,-1,2
 69 534 69 534 94.5 586 c 128,-1,3
 120 638 120 638 170.5 669 c 128,-1,4
 221 700 221 700 293 700 c 2,5,-1
 381 700 l 1,6,-1
 355 568 l 1,7,-1
 299 568 l 2,8,9
 263 568 263 568 242 545 c 128,-1,10
 221 522 221 522 220 487.5 c 128,-1,11
 219 453 219 453 240 418 c 1,12,-1
 108 350 l 1,0,1
234 0 m 1,13,-1
 374 700 l 1,14,-1
 712 700 l 2,15,16
 826 700 826 700 886 659 c 128,-1,17
 946 618 946 618 946 540 c 0,18,19
 946 474 946 474 911.5 429 c 128,-1,20
 877 384 877 384 820.5 361 c 128,-1,21
 764 338 764 338 696 338 c 1,22,-1
 723 378 l 1,23,24
 811 378 811 378 863.5 337.5 c 128,-1,25
 916 297 916 297 916 221 c 0,26,27
 916 147 916 147 875 97.5 c 128,-1,28
 834 48 834 48 763 24 c 128,-1,29
 692 0 692 0 601 0 c 2,30,-1
 234 0 l 1,13,-1
419 122 m 1,31,-1
 611 122 l 2,32,33
 678 122 678 122 716 147.5 c 128,-1,34
 754 173 754 173 754 223 c 0,35,36
 754 262 754 262 726 278.5 c 128,-1,37
 698 295 698 295 649 295 c 2,38,-1
 436 295 l 1,39,-1
 459 413 l 1,40,-1
 642 413 l 2,41,42
 684 413 684 413 714 424 c 128,-1,43
 744 435 744 435 760.5 457.5 c 128,-1,44
 777 480 777 480 777 512 c 0,45,46
 777 547 777 547 750 562.5 c 128,-1,47
 723 578 723 578 674 578 c 2,48,-1
 510 578 l 1,49,-1
 419 122 l 1,31,-1
EndSplineSet
Substitution2: "'c2sc' Capitals to Small Capitals lookup 48 subtable" uni0253.sc
Substitution2: "'locl' Localized Forms in Latin lookup 22 subtable" uni0181.loclXPE
AlternateSubs2: "'aalt' Access All Alternates lookup 4 subtable" uni0181.loclXPE uni0253.sc
EndChar

StartChar: uni0243
Encoding: 579 579 43
Width: 786
GlyphClass: 2
Flags: W
AnchorPoint: "Anchor-3" 487 700 basechar 0
AnchorPoint: "Anchor-0" 347 0 basechar 0
LayerCount: 2
Fore
SplineSet
50 0 m 1,0,-1
 190 700 l 1,1,-1
 532 700 l 2,2,3
 620 700 620 700 674 675 c 128,-1,4
 728 650 728 650 750 606 c 128,-1,5
 772 562 772 562 761 508 c 0,6,7
 750 453 750 453 715 415.5 c 128,-1,8
 680 378 680 378 628.5 359.5 c 128,-1,9
 577 341 577 341 516 342 c 1,10,-1
 543 382 l 1,11,12
 608 381 608 381 654.5 356 c 128,-1,13
 701 331 701 331 721.5 287.5 c 128,-1,14
 742 244 742 244 730 187 c 0,15,16
 712 97 712 97 631 48.5 c 128,-1,17
 550 0 550 0 412 0 c 2,18,-1
 50 0 l 1,0,-1
-7 162 m 1,19,-1
 13 262 l 1,20,-1
 162 262 l 1,21,-1
 192 256 l 1,22,-1
 390 256 l 1,23,-1
 373 168 l 1,24,-1
 175 168 l 1,25,-1
 142 162 l 1,26,-1
 -7 162 l 1,19,-1
234 120 m 1,27,-1
 424 120 l 2,28,29
 486 120 486 120 524 142.5 c 128,-1,30
 562 165 562 165 571 210 c 0,31,32
 580 257 580 257 552 280.5 c 128,-1,33
 524 304 524 304 461 304 c 2,34,-1
 260 304 l 1,35,-1
 282 415 l 1,36,-1
 455 415 l 2,37,38
 514 415 514 415 549.5 434.5 c 128,-1,39
 585 454 585 454 593 496 c 0,40,41
 601 537 601 537 574 557.5 c 128,-1,42
 547 578 547 578 487 578 c 2,43,-1
 326 578 l 1,44,-1
 234 120 l 1,27,-1
EndSplineSet
Substitution2: "'c2sc' Capitals to Small Capitals lookup 48 subtable" uni0180.sc
Substitution2: "'aalt' Access All Alternates lookup 3 subtable" uni0180.sc
EndChar

StartChar: uni0182
Encoding: 386 386 44
Width: 765
GlyphClass: 2
Flags: W
AnchorPoint: "Anchor-3" 465 700 basechar 0
AnchorPoint: "Anchor-0" 325 0 basechar 0
LayerCount: 2
Fore
SplineSet
29 0 m 1,0,-1
 169 700 l 1,1,-1
 748 700 l 1,2,-1
 723 578 l 1,3,-1
 305 578 l 1,4,-1
 215 122 l 1,5,-1
 408 122 l 2,6,7
 452 122 452 122 483.5 134 c 128,-1,8
 515 146 515 146 532.5 169 c 128,-1,9
 550 192 550 192 550 224 c 0,10,11
 550 263 550 263 522.5 280.5 c 128,-1,12
 495 298 495 298 443 298 c 2,13,-1
 238 298 l 1,14,-1
 261 416 l 1,15,-1
 479 416 l 2,16,17
 586 415 586 415 649 371.5 c 128,-1,18
 712 328 712 328 712 235 c 0,19,20
 712 159 712 159 670.5 106.5 c 128,-1,21
 629 54 629 54 557.5 27 c 128,-1,22
 486 0 486 0 395 0 c 2,23,-1
 29 0 l 1,0,-1
EndSplineSet
Substitution2: "'c2sc' Capitals to Small Capitals lookup 48 subtable" uni0183.sc
Substitution2: "'aalt' Access All Alternates lookup 3 subtable" uni0183.sc
EndChar

StartChar: C
Encoding: 67 67 45
Width: 733
GlyphClass: 2
Flags: W
AnchorPoint: "Anchor-3" 500 700 basechar 0
AnchorPoint: "Anchor-0" 354 0 basechar 0
LayerCount: 2
Fore
SplineSet
397 -12 m 0,0,1
 290 -12 290 -12 212.5 26.5 c 128,-1,2
 135 65 135 65 93 133.5 c 128,-1,3
 51 202 51 202 51 292 c 0,4,5
 51 381 51 381 82.5 458 c 128,-1,6
 114 535 114 535 171.5 591.5 c 128,-1,7
 229 648 229 648 308.5 680 c 128,-1,8
 388 712 388 712 486 712 c 0,9,10
 580 712 580 712 652 680 c 128,-1,11
 724 648 724 648 761 588 c 1,12,-1
 644 492 l 1,13,14
 617 532 617 532 575 553 c 128,-1,15
 533 574 533 574 475 574 c 0,16,17
 416 574 416 574 368 553.5 c 128,-1,18
 320 533 320 533 285.5 495.5 c 128,-1,19
 251 458 251 458 233 408 c 128,-1,20
 215 358 215 358 215 302 c 0,21,22
 215 249 215 249 238 209.5 c 128,-1,23
 261 170 261 170 305 148 c 128,-1,24
 349 126 349 126 411 126 c 0,25,26
 465 126 465 126 512 145.5 c 128,-1,27
 559 165 559 165 597 207 c 1,28,-1
 693 109 l 1,29,30
 638 45 638 45 562.5 16.5 c 128,-1,31
 487 -12 487 -12 397 -12 c 0,0,1
EndSplineSet
Substitution2: "'c2sc' Capitals to Small Capitals lookup 48 subtable" c.sc
Substitution2: "'aalt' Access All Alternates lookup 3 subtable" c.sc
EndChar

StartChar: uniA792
Encoding: 42898 42898 47
Width: 795
GlyphClass: 2
Flags: W
AnchorPoint: "Anchor-3" 562 700 basechar 0
AnchorPoint: "Anchor-0" 416 0 basechar 0
LayerCount: 2
Fore
SplineSet
459 -12 m 0,0,1
 352 -12 352 -12 274.5 26.5 c 128,-1,2
 197 65 197 65 155.5 133.5 c 128,-1,3
 114 202 114 202 114 292 c 0,4,5
 114 381 114 381 145 458 c 128,-1,6
 176 535 176 535 233.5 591.5 c 128,-1,7
 291 648 291 648 371 680 c 128,-1,8
 451 712 451 712 548 712 c 0,9,10
 642 712 642 712 714 680 c 128,-1,11
 786 648 786 648 823 588 c 1,12,-1
 706 492 l 1,13,14
 679 532 679 532 637 553 c 128,-1,15
 595 574 595 574 537 574 c 0,16,17
 478 574 478 574 430 553.5 c 128,-1,18
 382 533 382 533 348 495.5 c 128,-1,19
 314 458 314 458 295.5 408 c 128,-1,20
 277 358 277 358 277 302 c 0,21,22
 277 249 277 249 300 209.5 c 128,-1,23
 323 170 323 170 367 148 c 128,-1,24
 411 126 411 126 473 126 c 0,25,26
 527 126 527 126 574 145.5 c 128,-1,27
 621 165 621 165 659 207 c 1,28,-1
 755 109 l 1,29,30
 700 45 700 45 625 16.5 c 128,-1,31
 550 -12 550 -12 459 -12 c 0,0,1
19 303 m 1,32,-1
 40 412 l 1,33,-1
 445 412 l 1,34,-1
 424 303 l 1,35,-1
 19 303 l 1,32,-1
EndSplineSet
Substitution2: "'c2sc' Capitals to Small Capitals lookup 48 subtable" uniA793.sc
Substitution2: "'aalt' Access All Alternates lookup 3 subtable" uniA793.sc
EndChar

StartChar: uniA7B3
Encoding: 42931 42931 53
Width: 612
GlyphClass: 1
Flags: W
LayerCount: 2
Fore
SplineSet
651 -130 m 1,0,1
 605 -169 605 -169 556.5 -188.5 c 128,-1,2
 508 -208 508 -208 465 -205 c 128,-1,3
 422 -202 422 -202 389.5 -175 c 128,-1,4
 357 -148 357 -148 343 -97 c 2,5,-1
 267 156 l 1,6,-1
 230 228 l 1,7,-1
 124 525 l 2,8,9
 114 554 114 554 97 563.5 c 128,-1,10
 80 573 80 573 58.5 565.5 c 128,-1,11
 37 558 37 558 14 537 c 1,12,-1
 -44 636 l 1,13,14
 2 676 2 676 50 695 c 128,-1,15
 98 714 98 714 141.5 711 c 128,-1,16
 185 708 185 708 218 681.5 c 128,-1,17
 251 655 251 655 266 603 c 2,18,-1
 342 362 l 1,19,-1
 375 291 l 1,20,-1
 485 -19 l 2,21,22
 495 -47 495 -47 511.5 -56.5 c 128,-1,23
 528 -66 528 -66 549 -58.5 c 128,-1,24
 570 -51 570 -51 592 -30 c 1,25,-1
 651 -130 l 1,0,1
-142 -194 m 1,26,-1
 249 323 l 1,27,-1
 272 313 l 1,28,-1
 541 702 l 1,29,-1
 727 702 l 1,30,-1
 348 213 l 1,31,-1
 328 218 l 1,32,-1
 48 -194 l 1,33,-1
 -142 -194 l 1,26,-1
EndSplineSet
Substitution2: "'c2sc' Capitals to Small Capitals lookup 48 subtable" uniAB53.sc
Substitution2: "'aalt' Access All Alternates lookup 3 subtable" uniAB53.sc
EndChar

StartChar: uni0187
Encoding: 391 391 54
Width: 736
GlyphClass: 2
Flags: W
AnchorPoint: "Anchor-3" 474 700 basechar 0
AnchorPoint: "Anchor-0" 324 0 basechar 0
LayerCount: 2
Fore
SplineSet
399 -12 m 0,0,1
 293 -12 293 -12 215 26.5 c 128,-1,2
 137 65 137 65 95.5 133.5 c 128,-1,3
 54 202 54 202 54 292 c 0,4,5
 54 381 54 381 85 458 c 128,-1,6
 116 535 116 535 173.5 591.5 c 128,-1,7
 231 648 231 648 311 680 c 128,-1,8
 391 712 391 712 488 712 c 0,9,10
 582 712 582 712 654 680 c 128,-1,11
 726 648 726 648 763 588 c 1,12,-1
 646 492 l 1,13,14
 619 532 619 532 577 553 c 128,-1,15
 535 574 535 574 478 574 c 0,16,17
 418 574 418 574 370 553.5 c 128,-1,18
 322 533 322 533 288 495.5 c 128,-1,19
 254 458 254 458 235.5 408 c 128,-1,20
 217 358 217 358 217 302 c 0,21,22
 217 249 217 249 240 209.5 c 128,-1,23
 263 170 263 170 307 148 c 128,-1,24
 351 126 351 126 413 126 c 0,25,26
 467 126 467 126 514 145.5 c 128,-1,27
 561 165 561 165 600 207 c 1,28,-1
 695 109 l 1,29,30
 640 45 640 45 565 16.5 c 128,-1,31
 490 -12 490 -12 399 -12 c 0,0,1
629 588 m 1,32,-1
 645 676 l 2,33,34
 654 725 654 725 680 761 c 128,-1,35
 706 797 706 797 744 817 c 128,-1,36
 782 837 782 837 827.5 840 c 128,-1,37
 873 843 873 843 920 827 c 1,38,-1
 881 714 l 1,39,40
 855 722 855 722 832.5 716.5 c 128,-1,41
 810 711 810 711 795 692.5 c 128,-1,42
 780 674 780 674 774 644 c 2,43,-1
 763 588 l 1,44,-1
 629 588 l 1,32,-1
EndSplineSet
Substitution2: "'c2sc' Capitals to Small Capitals lookup 48 subtable" uni0188.sc
Substitution2: "'aalt' Access All Alternates lookup 3 subtable" uni0188.sc
EndChar

StartChar: uni023B
Encoding: 571 571 55
Width: 733
GlyphClass: 2
Flags: W
AnchorPoint: "Anchor-3" 496 700 basechar 0
AnchorPoint: "Anchor-0" 339 0 basechar 0
LayerCount: 2
Fore
SplineSet
101 -70 m 1,0,-1
 654 770 l 1,1,-1
 755 770 l 1,2,-1
 202 -70 l 1,3,-1
 101 -70 l 1,0,-1
397 -12 m 0,4,5
 290 -12 290 -12 212.5 26.5 c 128,-1,6
 135 65 135 65 93 133.5 c 128,-1,7
 51 202 51 202 51 292 c 0,8,9
 51 381 51 381 82.5 458 c 128,-1,10
 114 535 114 535 171.5 591.5 c 128,-1,11
 229 648 229 648 308.5 680 c 128,-1,12
 388 712 388 712 486 712 c 0,13,14
 580 712 580 712 652 680 c 128,-1,15
 724 648 724 648 761 588 c 1,16,-1
 644 492 l 1,17,18
 617 532 617 532 575 553 c 128,-1,19
 533 574 533 574 475 574 c 0,20,21
 416 574 416 574 368 553.5 c 128,-1,22
 320 533 320 533 285.5 495.5 c 128,-1,23
 251 458 251 458 233 408 c 128,-1,24
 215 358 215 358 215 302 c 0,25,26
 215 249 215 249 238 209.5 c 128,-1,27
 261 170 261 170 305 148 c 128,-1,28
 349 126 349 126 411 126 c 0,29,30
 465 126 465 126 512 145.5 c 128,-1,31
 559 165 559 165 597 207 c 1,32,-1
 693 109 l 1,33,34
 638 45 638 45 562.5 16.5 c 128,-1,35
 487 -12 487 -12 397 -12 c 0,4,5
EndSplineSet
Substitution2: "'c2sc' Capitals to Small Capitals lookup 48 subtable" uni023C.sc
Substitution2: "'aalt' Access All Alternates lookup 3 subtable" uni023C.sc
EndChar

StartChar: D
Encoding: 68 68 56
Width: 826
GlyphClass: 2
Flags: W
AnchorPoint: "Anchor-3" 454 699 basechar 0
AnchorPoint: "Anchor-1" 221 356 basechar 0
AnchorPoint: "Anchor-0" 317 0 basechar 0
LayerCount: 2
Fore
SplineSet
29 0 m 1,0,-1
 169 700 l 1,1,-1
 462 700 l 2,2,3
 570 700 570 700 647.5 664.5 c 128,-1,4
 725 629 725 629 766 563.5 c 128,-1,5
 807 498 807 498 807 408 c 0,6,7
 807 315 807 315 775.5 240 c 128,-1,8
 744 165 744 165 686 111.5 c 128,-1,9
 628 58 628 58 548 29 c 128,-1,10
 468 0 468 0 371 0 c 2,11,-1
 29 0 l 1,0,-1
218 133 m 1,12,-1
 376 133 l 2,13,14
 461 133 461 133 520.5 168 c 128,-1,15
 580 203 580 203 611.5 263 c 128,-1,16
 643 323 643 323 643 399 c 0,17,18
 643 451 643 451 621 488.5 c 128,-1,19
 599 526 599 526 554.5 546.5 c 128,-1,20
 510 567 510 567 444 567 c 2,21,-1
 305 567 l 1,22,-1
 218 133 l 1,12,-1
EndSplineSet
Substitution2: "'c2sc' Capitals to Small Capitals lookup 48 subtable" d.sc
Substitution2: "'aalt' Access All Alternates lookup 3 subtable" d.sc
EndChar

StartChar: uni018A
Encoding: 394 394 65
Width: 1031
GlyphClass: 2
Flags: W
AnchorPoint: "Anchor-3" 659 699 basechar 0
AnchorPoint: "Anchor-1" 426 356 basechar 0
AnchorPoint: "Anchor-0" 522 0 basechar 0
LayerCount: 2
Fore
SplineSet
108 350 m 1,0,1
 74 411 74 411 71.5 472.5 c 128,-1,2
 69 534 69 534 94.5 586 c 128,-1,3
 120 638 120 638 170.5 669 c 128,-1,4
 221 700 221 700 293 700 c 2,5,-1
 381 700 l 1,6,-1
 355 568 l 1,7,-1
 299 568 l 2,8,9
 263 568 263 568 242 545 c 128,-1,10
 221 522 221 522 220 487.5 c 128,-1,11
 219 453 219 453 240 418 c 1,12,-1
 108 350 l 1,0,1
234 0 m 1,13,-1
 374 700 l 1,14,-1
 667 700 l 2,15,16
 775 700 775 700 852.5 664.5 c 128,-1,17
 930 629 930 629 971 563.5 c 128,-1,18
 1012 498 1012 498 1012 408 c 0,19,20
 1012 315 1012 315 980.5 240 c 128,-1,21
 949 165 949 165 891 111.5 c 128,-1,22
 833 58 833 58 753 29 c 128,-1,23
 673 0 673 0 576 0 c 2,24,-1
 234 0 l 1,13,-1
423 133 m 1,25,-1
 581 133 l 2,26,27
 665 133 665 133 725 168 c 128,-1,28
 785 203 785 203 816.5 263 c 128,-1,29
 848 323 848 323 848 399 c 0,30,31
 848 451 848 451 826 488.5 c 128,-1,32
 804 526 804 526 759.5 546.5 c 128,-1,33
 715 567 715 567 649 567 c 2,34,-1
 510 567 l 1,35,-1
 423 133 l 1,25,-1
EndSplineSet
Substitution2: "'c2sc' Capitals to Small Capitals lookup 48 subtable" uni0257.sc
Substitution2: "'aalt' Access All Alternates lookup 3 subtable" uni0257.sc
EndChar

StartChar: uni018B
Encoding: 395 395 68
Width: 758
GlyphClass: 1
Flags: W
LayerCount: 2
Fore
SplineSet
262 0 m 2,0,1
 176 0 176 0 118 30 c 128,-1,2
 60 60 60 60 35 113.5 c 128,-1,3
 10 167 10 167 24 238 c 0,4,5
 42 332 42 332 116 379.5 c 128,-1,6
 190 427 190 427 316 427 c 2,7,-1
 546 427 l 1,8,-1
 576 575 l 1,9,-1
 174 575 l 1,10,-1
 199 700 l 1,11,-1
 761 700 l 1,12,-1
 621 0 l 1,13,-1
 262 0 l 2,0,1
295 122 m 2,14,-1
 485 122 l 1,15,-1
 523 309 l 1,16,-1
 331 309 l 2,17,18
 266 309 266 309 231.5 289 c 128,-1,19
 197 269 197 269 188 228 c 0,20,21
 179 182 179 182 207.5 152 c 128,-1,22
 236 122 236 122 295 122 c 2,14,-1
EndSplineSet
Substitution2: "'c2sc' Capitals to Small Capitals lookup 48 subtable" uni018C.sc
Substitution2: "'aalt' Access All Alternates lookup 3 subtable" uni018C.sc
EndChar

StartChar: E
Encoding: 69 69 72
Width: 671
GlyphClass: 2
Flags: W
AnchorPoint: "Anchor-3" 434 700 basechar 0
AnchorPoint: "Anchor-2" 571 0 basechar 0
AnchorPoint: "Anchor-0" 300 0 basechar 0
LayerCount: 2
Fore
SplineSet
262 418 m 1,0,-1
 599 418 l 1,1,-1
 574 292 l 1,2,-1
 237 292 l 1,3,-1
 262 418 l 1,0,-1
216 130 m 1,4,-1
 598 130 l 1,5,-1
 571 0 l 1,6,-1
 29 0 l 1,7,-1
 169 700 l 1,8,-1
 698 700 l 1,9,-1
 671 570 l 1,10,-1
 304 570 l 1,11,-1
 216 130 l 1,4,-1
EndSplineSet
Substitution2: "'ss01' Style Set 1 lookup 53 subtable" E.ss01
Substitution2: "'c2sc' Capitals to Small Capitals lookup 48 subtable" e.sc
AlternateSubs2: "'aalt' Access All Alternates lookup 4 subtable" e.sc E.ss01
EndChar

StartChar: uni0190
Encoding: 400 400 96
Width: 653
GlyphClass: 2
Flags: W
AnchorPoint: "Anchor-3" 456 700 basechar 0
AnchorPoint: "Anchor-2" 424 0 basechar 0
AnchorPoint: "Anchor-0" 319 0 basechar 0
LayerCount: 2
Fore
SplineSet
323 -12 m 0,0,1
 238 -12 238 -12 170.5 9 c 128,-1,2
 103 30 103 30 63.5 73 c 128,-1,3
 24 116 24 116 24 181 c 0,4,5
 24 242 24 242 56.5 287.5 c 128,-1,6
 89 333 89 333 146 358.5 c 128,-1,7
 203 384 203 384 275 384 c 1,8,-1
 273 343 l 1,9,10
 198 343 198 343 157 384 c 128,-1,11
 116 425 116 425 116 488 c 0,12,13
 116 542 116 542 143 584 c 128,-1,14
 170 626 170 626 217.5 654 c 128,-1,15
 265 682 265 682 326.5 696.5 c 128,-1,16
 388 711 388 711 458 711 c 0,17,18
 529 711 529 711 592.5 696.5 c 128,-1,19
 656 682 656 682 697 654 c 1,20,-1
 644 532 l 1,21,22
 601 557 601 557 547 568.5 c 128,-1,23
 493 580 493 580 443 580 c 0,24,25
 396 580 396 580 358.5 569.5 c 128,-1,26
 321 559 321 559 300 538 c 128,-1,27
 279 517 279 517 279 485 c 0,28,29
 279 454 279 454 303 437 c 128,-1,30
 327 420 327 420 375 420 c 2,31,-1
 541 420 l 1,32,-1
 515 298 l 1,33,-1
 325 298 l 2,34,35
 264 298 264 298 226.5 272.5 c 128,-1,36
 189 247 189 247 189 201 c 0,37,38
 189 173 189 173 208 154.5 c 128,-1,39
 227 136 227 136 261.5 127.5 c 128,-1,40
 296 119 296 119 340 119 c 0,41,42
 385 119 385 119 430 127 c 128,-1,43
 475 135 475 135 514.5 149.5 c 128,-1,44
 554 164 554 164 584 183 c 1,45,-1
 625 62 l 1,46,47
 567 27 567 27 486.5 7.5 c 128,-1,48
 406 -12 406 -12 323 -12 c 0,0,1
EndSplineSet
Substitution2: "'c2sc' Capitals to Small Capitals lookup 48 subtable" uni025B.sc
Substitution2: "'aalt' Access All Alternates lookup 3 subtable" uni025B.sc
EndChar

StartChar: uni018E
Encoding: 398 398 97
Width: 671
GlyphClass: 2
Flags: W
AnchorPoint: "Anchor-3" 404 700 basechar 0
AnchorPoint: "Anchor-0" 270 0 basechar 0
LayerCount: 2
Fore
SplineSet
443 292 m 1,0,-1
 106 292 l 1,1,-1
 131 418 l 1,2,-1
 468 418 l 1,3,-1
 443 292 l 1,0,-1
488 570 m 1,4,-1
 115 570 l 1,5,-1
 141 700 l 1,6,-1
 675 700 l 1,7,-1
 535 0 l 1,8,-1
 -2 0 l 1,9,-1
 24 130 l 1,10,-1
 400 130 l 1,11,-1
 488 570 l 1,4,-1
EndSplineSet
Substitution2: "'ss01' Style Set 1 lookup 53 subtable" uni018E.ss01
Substitution2: "'c2sc' Capitals to Small Capitals lookup 48 subtable" uni0258.sc
AlternateSubs2: "'aalt' Access All Alternates lookup 4 subtable" uni0258.sc uni018E.ss01
EndChar

StartChar: uni01A9
Encoding: 425 425 99
Width: 545
GlyphClass: 1
Flags: W
LayerCount: 2
Fore
SplineSet
89 -9 m 0,0,1
 52 -5 52 -5 20 7.5 c 128,-1,2
 -12 20 -12 20 -31 37 c 1,3,-1
 35 152 l 1,4,5
 62 129 62 129 95 127 c 0,6,7
 123 124 123 124 145 139.5 c 128,-1,8
 167 155 167 155 174 190 c 2,9,-1
 241 525 l 2,10,11
 252 582 252 582 278.5 619.5 c 128,-1,12
 305 657 305 657 340 678 c 128,-1,13
 375 699 375 699 414.5 706.5 c 128,-1,14
 454 714 454 714 491 711 c 0,15,16
 528 707 528 707 559 694.5 c 128,-1,17
 590 682 590 682 609 664 c 1,18,-1
 543 548 l 1,19,20
 516 571 516 571 483 574 c 0,21,22
 455 577 455 577 433 561.5 c 128,-1,23
 411 546 411 546 404 510 c 2,24,-1
 337 175 l 2,25,26
 325 118 325 118 299 80.5 c 128,-1,27
 273 43 273 43 238 22.5 c 128,-1,28
 203 2 203 2 164.5 -5 c 128,-1,29
 126 -12 126 -12 89 -9 c 0,0,1
EndSplineSet
Substitution2: "'c2sc' Capitals to Small Capitals lookup 48 subtable" uni0283.sc
Substitution2: "'aalt' Access All Alternates lookup 3 subtable" uni0283.sc
EndChar

StartChar: uni0246
Encoding: 582 582 100
Width: 674
GlyphClass: 2
Flags: W
AnchorPoint: "Anchor-3" 434 700 basechar 0
AnchorPoint: "Anchor-2" 571 0 basechar 0
AnchorPoint: "Anchor-0" 300 0 basechar 0
LayerCount: 2
Fore
SplineSet
80 -70 m 1,0,-1
 633 770 l 1,1,-1
 734 770 l 1,2,-1
 181 -70 l 1,3,-1
 80 -70 l 1,0,-1
29 0 m 1,4,-1
 169 700 l 1,5,-1
 698 700 l 1,6,-1
 672 570 l 1,7,-1
 304 570 l 1,8,-1
 216 130 l 1,9,-1
 598 130 l 1,10,-1
 571 0 l 1,11,-1
 29 0 l 1,4,-1
236 292 m 1,12,-1
 262 418 l 1,13,-1
 599 418 l 1,14,-1
 574 292 l 1,15,-1
 236 292 l 1,12,-1
EndSplineSet
Substitution2: "'ss01' Style Set 1 lookup 53 subtable" uni0246.ss01
Substitution2: "'c2sc' Capitals to Small Capitals lookup 48 subtable" uni0247.sc
AlternateSubs2: "'aalt' Access All Alternates lookup 4 subtable" uni0247.sc uni0246.ss01
EndChar

StartChar: uni018F
Encoding: 399 399 103
Width: 817
GlyphClass: 2
Flags: W
AnchorPoint: "Anchor-3" 496 700 basechar 0
AnchorPoint: "Anchor-2" 445 0 basechar 0
AnchorPoint: "Anchor-0" 356 0 basechar 0
LayerCount: 2
Fore
SplineSet
384 -12 m 0,0,1
 282 -12 282 -12 206.5 26 c 128,-1,2
 131 64 131 64 89.5 131.5 c 128,-1,3
 48 199 48 199 48 286 c 0,4,5
 48 308 48 308 51.5 333 c 128,-1,6
 55 358 55 358 62 391 c 1,7,-1
 658 391 l 1,8,-1
 636 281 l 1,9,-1
 153 281 l 1,10,-1
 213 330 l 1,11,12
 211 316 211 316 209.5 307 c 128,-1,13
 208 298 208 298 208 284 c 0,14,15
 208 234 208 234 228.5 196 c 128,-1,16
 249 158 249 158 290.5 137.5 c 128,-1,17
 332 117 332 117 393 117 c 256,18,19
 454 117 454 117 499.5 142 c 128,-1,20
 545 167 545 167 574.5 209 c 128,-1,21
 604 251 604 251 619 301 c 128,-1,22
 634 351 634 351 634 399 c 0,23,24
 634 452 634 452 612.5 491.5 c 128,-1,25
 591 531 591 531 548 552.5 c 128,-1,26
 505 574 505 574 442 574 c 0,27,28
 383 574 383 574 328.5 554.5 c 128,-1,29
 274 535 274 535 230 497 c 1,30,-1
 153 609 l 1,31,32
 212 659 212 659 290 685.5 c 128,-1,33
 368 712 368 712 454 712 c 0,34,35
 562 712 562 712 638 673 c 128,-1,36
 714 634 714 634 755.5 565 c 128,-1,37
 797 496 797 496 797 404 c 0,38,39
 797 313 797 313 767 237 c 128,-1,40
 737 161 737 161 682 105.5 c 128,-1,41
 627 50 627 50 551 19 c 128,-1,42
 475 -12 475 -12 384 -12 c 0,0,1
EndSplineSet
Substitution2: "'ss01' Style Set 1 lookup 53 subtable" uni018F.ss01
Substitution2: "'c2sc' Capitals to Small Capitals lookup 48 subtable" uni0259.sc
AlternateSubs2: "'aalt' Access All Alternates lookup 4 subtable" uni0259.sc uni018F.ss01
EndChar

StartChar: uni01B8
Encoding: 440 440 106
Width: 644
GlyphClass: 2
Flags: W
AnchorPoint: "Anchor-3" 414 700 basechar 0
AnchorPoint: "Anchor-0" 274 0 basechar 0
LayerCount: 2
Fore
SplineSet
301 -12 m 256,0,1
 223 -12 223 -12 168 9.5 c 128,-1,2
 113 31 113 31 80.5 67 c 128,-1,3
 48 103 48 103 36.5 147 c 128,-1,4
 25 191 25 191 34 236 c 0,5,6
 52 327 52 327 133 373.5 c 128,-1,7
 214 420 214 420 350 420 c 2,8,-1
 396 420 l 1,9,-1
 316 374 l 1,10,-1
 146 595 l 1,11,-1
 167 700 l 1,12,-1
 678 700 l 1,13,-1
 652 571 l 1,14,-1
 262 571 l 1,15,-1
 289 634 l 1,16,-1
 460 412 l 1,17,-1
 437 302 l 1,18,-1
 352 302 l 2,19,20
 278 302 278 302 241.5 282 c 128,-1,21
 205 262 205 262 196 222 c 0,22,23
 191 193 191 193 204 170.5 c 128,-1,24
 217 148 217 148 247.5 135 c 128,-1,25
 278 122 278 122 323 122 c 0,26,27
 382 122 382 122 442.5 139 c 128,-1,28
 503 156 503 156 551 187 c 1,29,-1
 580 62 l 1,30,31
 524 27 524 27 451.5 7.5 c 128,-1,32
 379 -12 379 -12 301 -12 c 256,0,1
EndSplineSet
Substitution2: "'c2sc' Capitals to Small Capitals lookup 48 subtable" uni01B9.sc
Substitution2: "'aalt' Access All Alternates lookup 3 subtable" uni01B9.sc
EndChar

StartChar: F
Encoding: 70 70 107
Width: 639
GlyphClass: 2
Flags: W
AnchorPoint: "Anchor-3" 406 700 basechar 0
AnchorPoint: "Anchor-0" 266 0 basechar 0
LayerCount: 2
Fore
SplineSet
256 385 m 1,0,-1
 593 385 l 1,1,-1
 566 255 l 1,2,-1
 230 255 l 1,3,-1
 256 385 l 1,0,-1
192 0 m 1,4,-1
 29 0 l 1,5,-1
 169 700 l 1,6,-1
 698 700 l 1,7,-1
 671 570 l 1,8,-1
 305 570 l 1,9,-1
 192 0 l 1,4,-1
EndSplineSet
Substitution2: "'ss01' Style Set 1 lookup 53 subtable" F.ss01
Substitution2: "'c2sc' Capitals to Small Capitals lookup 48 subtable" f.sc
AlternateSubs2: "'aalt' Access All Alternates lookup 4 subtable" f.sc F.ss01
EndChar

StartChar: uni0191
Encoding: 401 401 109
Width: 645
GlyphClass: 1
Flags: W
LayerCount: 2
Fore
SplineSet
-134 -177 m 1,0,-1
 -89 -63 l 1,1,2
 -54 -75 -54 -75 -29 -73.5 c 128,-1,3
 -4 -72 -4 -72 11 -56 c 128,-1,4
 26 -40 26 -40 32 -10 c 2,5,-1
 174 700 l 1,6,-1
 702 700 l 1,7,-1
 676 570 l 1,8,-1
 310 570 l 1,9,-1
 191 -31 l 2,10,11
 179 -88 179 -88 149 -127.5 c 128,-1,12
 119 -167 119 -167 75 -186.5 c 128,-1,13
 31 -206 31 -206 -22.5 -204.5 c 128,-1,14
 -76 -203 -76 -203 -134 -177 c 1,0,-1
235 255 m 1,15,-1
 261 385 l 1,16,-1
 598 385 l 1,17,-1
 571 255 l 1,18,-1
 235 255 l 1,15,-1
EndSplineSet
Substitution2: "'ss01' Style Set 1 lookup 53 subtable" uni0191.ss01
Substitution2: "'c2sc' Capitals to Small Capitals lookup 48 subtable" florin.sc
AlternateSubs2: "'aalt' Access All Alternates lookup 4 subtable" florin.sc uni0191.ss01
EndChar

StartChar: G
Encoding: 71 71 110
Width: 771
GlyphClass: 2
Flags: W
AnchorPoint: "Anchor-3" 502 700 basechar 0
AnchorPoint: "Anchor-0" 353 0 basechar 0
LayerCount: 2
Fore
SplineSet
397 -12 m 0,0,1
 291 -12 291 -12 213.5 26.5 c 128,-1,2
 136 65 136 65 93.5 133.5 c 128,-1,3
 51 202 51 202 51 292 c 0,4,5
 51 381 51 381 82.5 458 c 128,-1,6
 114 535 114 535 172 591.5 c 128,-1,7
 230 648 230 648 311 680 c 128,-1,8
 392 712 392 712 491 712 c 0,9,10
 591 712 591 712 664.5 680.5 c 128,-1,11
 738 649 738 649 783 590 c 1,12,-1
 667 496 l 1,13,14
 632 538 632 538 587.5 556 c 128,-1,15
 543 574 543 574 484 574 c 0,16,17
 422 574 422 574 372.5 553.5 c 128,-1,18
 323 533 323 533 288 496 c 128,-1,19
 253 459 253 459 234 409.5 c 128,-1,20
 215 360 215 360 215 302 c 0,21,22
 215 249 215 249 238 209.5 c 128,-1,23
 261 170 261 170 306.5 148 c 128,-1,24
 352 126 352 126 418 126 c 0,25,26
 468 126 468 126 514 143 c 128,-1,27
 560 160 560 160 603 196 c 1,28,-1
 665 73 l 1,29,30
 612 32 612 32 542.5 10 c 128,-1,31
 473 -12 473 -12 397 -12 c 0,0,1
523 98 m 1,32,-1
 575 361 l 1,33,-1
 723 361 l 1,34,-1
 665 73 l 1,35,-1
 523 98 l 1,32,-1
EndSplineSet
Substitution2: "'ss01' Style Set 1 lookup 53 subtable" G.ss01
Substitution2: "'c2sc' Capitals to Small Capitals lookup 48 subtable" g.sc
AlternateSubs2: "'aalt' Access All Alternates lookup 4 subtable" g.sc G.ss01
EndChar

StartChar: uni0193
Encoding: 403 403 117
Width: 773
GlyphClass: 2
Flags: W
AnchorPoint: "Anchor-3" 514 700 basechar 0
AnchorPoint: "Anchor-0" 364 0 basechar 0
LayerCount: 2
Fore
SplineSet
397 -12 m 0,0,1
 291 -12 291 -12 213.5 26.5 c 128,-1,2
 136 65 136 65 93.5 133.5 c 128,-1,3
 51 202 51 202 51 292 c 0,4,5
 51 381 51 381 82.5 458 c 128,-1,6
 114 535 114 535 172 591.5 c 128,-1,7
 230 648 230 648 311 680 c 128,-1,8
 392 712 392 712 491 712 c 0,9,10
 591 712 591 712 664.5 680.5 c 128,-1,11
 738 649 738 649 783 589 c 1,12,-1
 667 496 l 1,13,14
 632 538 632 538 587.5 556 c 128,-1,15
 543 574 543 574 484 574 c 0,16,17
 422 574 422 574 372.5 553.5 c 128,-1,18
 323 533 323 533 288 496 c 128,-1,19
 253 459 253 459 234 409.5 c 128,-1,20
 215 360 215 360 215 302 c 0,21,22
 215 249 215 249 238 209.5 c 128,-1,23
 261 170 261 170 306.5 148 c 128,-1,24
 352 126 352 126 418 126 c 0,25,26
 468 126 468 126 514 143 c 128,-1,27
 560 160 560 160 603 196 c 1,28,-1
 665 73 l 1,29,30
 612 32 612 32 542.5 10 c 128,-1,31
 473 -12 473 -12 397 -12 c 0,0,1
665 73 m 1,32,-1
 523 98 l 1,33,-1
 575 361 l 1,34,-1
 723 361 l 1,35,-1
 665 73 l 1,32,-1
649 589 m 1,36,-1
 664 677 l 2,37,38
 672 726 672 726 698 761.5 c 128,-1,39
 724 797 724 797 762.5 817.5 c 128,-1,40
 801 838 801 838 846.5 840.5 c 128,-1,41
 892 843 892 843 939 827 c 1,42,-1
 900 715 l 1,43,44
 874 722 874 722 851.5 716.5 c 128,-1,45
 829 711 829 711 813.5 692.5 c 128,-1,46
 798 674 798 674 793 645 c 2,47,-1
 783 589 l 1,48,-1
 649 589 l 1,36,-1
EndSplineSet
Substitution2: "'ss01' Style Set 1 lookup 53 subtable" uni0193.ss01
Substitution2: "'c2sc' Capitals to Small Capitals lookup 48 subtable" uni0260.sc
AlternateSubs2: "'aalt' Access All Alternates lookup 4 subtable" uni0260.sc uni0193.ss01
EndChar

StartChar: uni0241
Encoding: 577 577 118
Width: 617
GlyphClass: 2
Flags: W
AnchorPoint: "Anchor-3" 381 700 basechar 0
AnchorPoint: "Anchor-0" 237 0 basechar 0
LayerCount: 2
Fore
SplineSet
155 0 m 1,0,-1
 189 168 l 2,1,2
 199 218 199 218 222.5 252 c 128,-1,3
 246 286 246 286 277 309 c 128,-1,4
 308 332 308 332 340.5 349.5 c 128,-1,5
 373 367 373 367 402.5 384 c 128,-1,6
 432 401 432 401 453 422.5 c 128,-1,7
 474 444 474 444 480 474 c 0,8,9
 487 510 487 510 470 533 c 128,-1,10
 453 556 453 556 421 568 c 128,-1,11
 389 580 389 580 350 580 c 0,12,13
 316 580 316 580 280 570.5 c 128,-1,14
 244 561 244 561 210.5 541 c 128,-1,15
 177 521 177 521 150 489 c 1,16,-1
 39 564 l 1,17,18
 79 613 79 613 135 645.5 c 128,-1,19
 191 678 191 678 255.5 695 c 128,-1,20
 320 712 320 712 384 712 c 0,21,22
 443 712 443 712 494.5 698 c 128,-1,23
 546 684 546 684 584 655.5 c 128,-1,24
 622 627 622 627 639 583.5 c 128,-1,25
 656 540 656 540 645 481 c 0,26,27
 635 433 635 433 611.5 399 c 128,-1,28
 588 365 588 365 557 340.5 c 128,-1,29
 526 316 526 316 492.5 297 c 128,-1,30
 459 278 459 278 429 258.5 c 128,-1,31
 399 239 399 239 377.5 214.5 c 128,-1,32
 356 190 356 190 349 156 c 2,33,-1
 318 0 l 1,34,-1
 155 0 l 1,0,-1
EndSplineSet
Substitution2: "'c2sc' Capitals to Small Capitals lookup 48 subtable" uni0294.sc
Substitution2: "'aalt' Access All Alternates lookup 3 subtable" uni0294.sc
EndChar

StartChar: uni01E4
Encoding: 484 484 120
Width: 811
GlyphClass: 2
Flags: W
AnchorPoint: "Anchor-3" 514 700 basechar 0
AnchorPoint: "Anchor-0" 365 0 basechar 0
LayerCount: 2
Fore
SplineSet
397 -12 m 0,0,1
 291 -12 291 -12 213.5 26.5 c 128,-1,2
 136 65 136 65 93.5 133.5 c 128,-1,3
 51 202 51 202 51 292 c 0,4,5
 51 381 51 381 82.5 458 c 128,-1,6
 114 535 114 535 172 591.5 c 128,-1,7
 230 648 230 648 311 680 c 128,-1,8
 392 712 392 712 491 712 c 0,9,10
 591 712 591 712 664.5 680.5 c 128,-1,11
 738 649 738 649 783 590 c 1,12,-1
 667 496 l 1,13,14
 632 538 632 538 587.5 556 c 128,-1,15
 543 574 543 574 484 574 c 0,16,17
 422 574 422 574 372.5 553.5 c 128,-1,18
 323 533 323 533 288 496 c 128,-1,19
 253 459 253 459 234 409.5 c 128,-1,20
 215 360 215 360 215 302 c 0,21,22
 215 249 215 249 238 209.5 c 128,-1,23
 261 170 261 170 306.5 148 c 128,-1,24
 352 126 352 126 418 126 c 0,25,26
 468 126 468 126 514 143 c 128,-1,27
 560 160 560 160 603 196 c 1,28,-1
 665 73 l 1,29,30
 612 32 612 32 542.5 10 c 128,-1,31
 473 -12 473 -12 397 -12 c 0,0,1
523 98 m 1,32,-1
 576 365 l 1,33,-1
 724 365 l 1,34,-1
 665 73 l 1,35,-1
 523 98 l 1,32,-1
412 208 m 1,36,-1
 433 317 l 1,37,-1
 803 317 l 1,38,-1
 782 208 l 1,39,-1
 412 208 l 1,36,-1
EndSplineSet
Substitution2: "'ss01' Style Set 1 lookup 53 subtable" uni01E4.ss01
Substitution2: "'c2sc' Capitals to Small Capitals lookup 48 subtable" uni01E5.sc
AlternateSubs2: "'aalt' Access All Alternates lookup 4 subtable" uni01E5.sc uni01E4.ss01
EndChar

StartChar: uni021C
Encoding: 540 540 121
Width: 656
GlyphClass: 1
Flags: W
LayerCount: 2
Fore
SplineSet
-80 -111 m 1,0,-1
 -60 24 l 1,1,2
 7 31 7 31 68 40.5 c 128,-1,3
 129 50 129 50 182.5 63 c 128,-1,4
 236 76 236 76 280 92 c 128,-1,5
 324 108 324 108 355.5 128 c 128,-1,6
 387 148 387 148 404 171.5 c 128,-1,7
 421 195 421 195 421 222 c 0,8,9
 421 262 421 262 391 273 c 128,-1,10
 361 284 361 284 308 272 c 2,11,-1
 151 238 l 1,12,-1
 164 367 l 1,13,-1
 308 399 l 2,14,15
 334 405 334 405 360 414.5 c 128,-1,16
 386 424 386 424 407.5 438 c 128,-1,17
 429 452 429 452 442.5 470.5 c 128,-1,18
 456 489 456 489 456 513 c 0,19,20
 456 531 456 531 447.5 545 c 128,-1,21
 439 559 439 559 421 567 c 128,-1,22
 403 575 403 575 374 575 c 0,23,24
 343 575 343 575 298 565.5 c 128,-1,25
 253 556 253 556 200 537.5 c 128,-1,26
 147 519 147 519 91 495 c 1,27,-1
 64 616 l 1,28,29
 115 643 115 643 174.5 664.5 c 128,-1,30
 234 686 234 686 296 698.5 c 128,-1,31
 358 711 358 711 414 711 c 0,32,33
 491 711 491 711 538 687.5 c 128,-1,34
 585 664 585 664 606.5 626 c 128,-1,35
 628 588 628 588 628 545 c 0,36,37
 628 496 628 496 605 459.5 c 128,-1,38
 582 423 582 423 542.5 396 c 128,-1,39
 503 369 503 369 454 350.5 c 128,-1,40
 405 332 405 332 352 320 c 1,41,-1
 352 352 l 1,42,43
 421 371 421 371 474.5 360 c 128,-1,44
 528 349 528 349 559 313 c 128,-1,45
 590 277 590 277 590 219 c 0,46,47
 590 162 590 162 560 117 c 128,-1,48
 530 72 530 72 478 36.5 c 128,-1,49
 426 1 426 1 359 -25 c 128,-1,50
 292 -51 292 -51 217 -68.5 c 128,-1,51
 142 -86 142 -86 66 -96.5 c 128,-1,52
 -10 -107 -10 -107 -80 -111 c 1,0,-1
EndSplineSet
Substitution2: "'c2sc' Capitals to Small Capitals lookup 48 subtable" uni021D.sc
Substitution2: "'aalt' Access All Alternates lookup 3 subtable" uni021D.sc
EndChar

StartChar: H
Encoding: 72 72 122
Width: 808
GlyphClass: 2
Flags: W
AnchorPoint: "Anchor-3" 490 700 basechar 0
AnchorPoint: "Anchor-1" 463 564 basechar 0
AnchorPoint: "Anchor-0" 350 0 basechar 0
LayerCount: 2
Fore
SplineSet
649 700 m 1,0,-1
 811 700 l 1,1,-1
 671 0 l 1,2,-1
 509 0 l 1,3,-1
 649 700 l 1,0,-1
192 0 m 1,4,-1
 29 0 l 1,5,-1
 169 700 l 1,6,-1
 332 700 l 1,7,-1
 192 0 l 1,4,-1
579 287 m 1,8,-1
 238 287 l 1,9,-1
 265 424 l 1,10,-1
 606 424 l 1,11,-1
 579 287 l 1,8,-1
EndSplineSet
Substitution2: "'c2sc' Capitals to Small Capitals lookup 48 subtable" h.sc
Substitution2: "'aalt' Access All Alternates lookup 3 subtable" h.sc
EndChar

StartChar: Hbar
Encoding: 294 294 123
Width: 848
GlyphClass: 2
Flags: W
AnchorPoint: "Anchor-3" 509 700 basechar 0
AnchorPoint: "Anchor-1" 482 564 basechar 0
AnchorPoint: "Anchor-0" 369 0 basechar 0
LayerCount: 2
Fore
SplineSet
668 700 m 1,0,-1
 831 700 l 1,1,-1
 691 0 l 1,2,-1
 528 0 l 1,3,-1
 668 700 l 1,0,-1
211 0 m 1,4,-1
 48 0 l 1,5,-1
 188 700 l 1,6,-1
 351 700 l 1,7,-1
 211 0 l 1,4,-1
598 283 m 1,8,-1
 257 283 l 1,9,-1
 284 416 l 1,10,-1
 625 416 l 1,11,-1
 598 283 l 1,8,-1
60 499 m 1,12,-1
 81 608 l 1,13,-1
 901 608 l 1,14,-1
 881 499 l 1,15,-1
 60 499 l 1,12,-1
EndSplineSet
Substitution2: "'c2sc' Capitals to Small Capitals lookup 48 subtable" hbar.sc
Substitution2: "'aalt' Access All Alternates lookup 3 subtable" hbar.sc
EndChar

StartChar: uni1E28
Encoding: 7720 7720 126
Width: 808
GlyphClass: 2
Flags: W
AnchorPoint: "Anchor-3" 490 700 basechar 0
AnchorPoint: "Anchor-1" 463 564 basechar 0
AnchorPoint: "Anchor-0" 350 0 basechar 0
LayerCount: 2
Fore
SplineSet
509 0 m 1,0,-1
 649 700 l 1,1,-1
 811 700 l 1,2,-1
 671 0 l 1,3,-1
 509 0 l 1,0,-1
52 -232 m 0,4,5
 23 -232 23 -232 -0.5 -226.5 c 128,-1,6
 -24 -221 -24 -221 -42 -211 c 1,7,-1
 -4 -144 l 1,8,9
 9 -152 9 -152 25 -155.5 c 128,-1,10
 41 -159 41 -159 58 -159 c 0,11,12
 86 -159 86 -159 100 -150.5 c 128,-1,13
 114 -142 114 -142 116 -127 c 0,14,15
 119 -113 119 -113 108 -105.5 c 128,-1,16
 97 -98 97 -98 73 -98 c 2,17,-1
 31 -98 l 1,18,-1
 78 8 l 1,19,-1
 161 8 l 1,20,-1
 135 -50 l 1,21,22
 178 -54 178 -54 200 -78 c 128,-1,23
 222 -102 222 -102 214 -140 c 0,24,25
 205 -183 205 -183 161.5 -207.5 c 128,-1,26
 118 -232 118 -232 52 -232 c 0,4,5
29 0 m 1,27,-1
 169 700 l 1,28,-1
 332 700 l 1,29,-1
 192 0 l 1,30,-1
 29 0 l 1,27,-1
237 287 m 1,31,-1
 264 424 l 1,32,-1
 606 424 l 1,33,-1
 578 287 l 1,34,-1
 237 287 l 1,31,-1
EndSplineSet
Substitution2: "'c2sc' Capitals to Small Capitals lookup 48 subtable" uni1E29.sc
Substitution2: "'aalt' Access All Alternates lookup 3 subtable" uni1E29.sc
EndChar

StartChar: uniA7AA
Encoding: 42922 42922 132
Width: 1013
GlyphClass: 2
Flags: W
AnchorPoint: "Anchor-3" 695 700 basechar 0
AnchorPoint: "Anchor-1" 667 564 basechar 0
AnchorPoint: "Anchor-0" 555 0 basechar 0
LayerCount: 2
Fore
SplineSet
108 350 m 1,0,1
 74 411 74 411 71.5 472.5 c 128,-1,2
 69 534 69 534 94.5 586 c 128,-1,3
 120 638 120 638 170.5 669 c 128,-1,4
 221 700 221 700 293 700 c 2,5,-1
 381 700 l 1,6,-1
 355 568 l 1,7,-1
 299 568 l 2,8,9
 263 568 263 568 242 545 c 128,-1,10
 221 522 221 522 220 487.5 c 128,-1,11
 219 453 219 453 240 418 c 1,12,-1
 108 350 l 1,0,1
854 700 m 1,13,-1
 1016 700 l 1,14,-1
 876 0 l 1,15,-1
 714 0 l 1,16,-1
 854 700 l 1,13,-1
396 0 m 1,17,-1
 234 0 l 1,18,-1
 374 700 l 1,19,-1
 536 700 l 1,20,-1
 396 0 l 1,17,-1
783 287 m 1,21,-1
 443 287 l 1,22,-1
 469 424 l 1,23,-1
 811 424 l 1,24,-1
 783 287 l 1,21,-1
EndSplineSet
Substitution2: "'c2sc' Capitals to Small Capitals lookup 48 subtable" uni0266.sc
Substitution2: "'aalt' Access All Alternates lookup 3 subtable" uni0266.sc
EndChar

StartChar: uniA78D
Encoding: 42893 42893 133
Width: 765
GlyphClass: 2
Flags: W
AnchorPoint: "Anchor-3" 431 700 basechar 0
AnchorPoint: "Anchor-0" 291 0 basechar 0
LayerCount: 2
Fore
SplineSet
467 0 m 1,0,-1
 543 388 l 1,1,-1
 574 351 l 1,2,3
 530 274 530 274 469.5 238 c 128,-1,4
 409 202 409 202 322 202 c 0,5,6
 231 202 231 202 172.5 239 c 128,-1,7
 114 276 114 276 92 344.5 c 128,-1,8
 70 413 70 413 88 506 c 2,9,-1
 127 700 l 1,10,-1
 290 700 l 1,11,-1
 251 504 l 2,12,13
 234 424 234 424 267 380.5 c 128,-1,14
 300 337 300 337 376 337 c 0,15,16
 450 337 450 337 498 379.5 c 128,-1,17
 546 422 546 422 562 501 c 2,18,-1
 601 700 l 1,19,-1
 764 700 l 1,20,-1
 624 0 l 1,21,-1
 467 0 l 1,0,-1
EndSplineSet
Substitution2: "'c2sc' Capitals to Small Capitals lookup 48 subtable" uni0265.sc
Substitution2: "'aalt' Access All Alternates lookup 3 subtable" uni0265.sc
EndChar

StartChar: I
Encoding: 73 73 134
Width: 328
GlyphClass: 2
Flags: W
AnchorPoint: "Anchor-3" 250 700 basechar 0
AnchorPoint: "Anchor-2" 192 0 basechar 0
AnchorPoint: "Anchor-1" 180 350 basechar 0
AnchorPoint: "Anchor-0" 110 0 basechar 0
LayerCount: 2
Fore
SplineSet
29 0 m 1,0,-1
 169 700 l 1,1,-1
 332 700 l 1,2,-1
 192 0 l 1,3,-1
 29 0 l 1,0,-1
EndSplineSet
Substitution2: "'ss01' Style Set 1 lookup 53 subtable" I.ss01
Substitution2: "'c2sc' Capitals to Small Capitals lookup 48 subtable" i.sc
AlternateSubs2: "'aalt' Access All Alternates lookup 4 subtable" i.sc I.ss01
EndChar

StartChar: IJ
Encoding: 306 306 135
Width: 716
GlyphClass: 2
Flags: W
AnchorPoint: "Anchor-3" 255 700 basechar 0
LayerCount: 2
Fore
SplineSet
296 -12 m 0,0,1
 207 -12 207 -12 139 9.5 c 128,-1,2
 71 31 71 31 22 66 c 1,3,-1
 102 189 l 1,4,5
 147 157 147 157 198.5 140.5 c 128,-1,6
 250 124 250 124 305 124 c 0,7,8
 384 124 384 124 428.5 167 c 128,-1,9
 473 210 473 210 492 307 c 2,10,-1
 570 700 l 1,11,-1
 733 700 l 1,12,-1
 653 300 l 2,13,14
 621 141 621 141 532 64.5 c 128,-1,15
 443 -12 443 -12 296 -12 c 0,0,1
87 322 m 1,16,-1
 163 700 l 1,17,-1
 326 700 l 1,18,-1
 250 322 l 1,19,-1
 87 322 l 1,16,-1
EndSplineSet
Substitution2: "'ss01' Style Set 1 lookup 53 subtable" IJ.ss01
Substitution2: "'c2sc' Capitals to Small Capitals lookup 48 subtable" ij.sc
AlternateSubs2: "'aalt' Access All Alternates lookup 4 subtable" ij.sc IJ.ss01
EndChar

StartChar: Iacute_J.loclNLD
Encoding: 65537 -1 136
Width: 724
GlyphClass: 1
Flags: W
LayerCount: 2
Fore
SplineSet
294 -12 m 0,0,1
 205 -12 205 -12 138.5 9.5 c 128,-1,2
 72 31 72 31 22 67 c 1,3,-1
 102 189 l 1,4,5
 146 157 146 157 197 140.5 c 128,-1,6
 248 124 248 124 301 124 c 0,7,8
 382 124 382 124 427.5 167 c 128,-1,9
 473 210 473 210 492 307 c 2,10,-1
 570 700 l 1,11,-1
 733 700 l 1,12,-1
 653 300 l 2,13,14
 621 141 621 141 531 64.5 c 128,-1,15
 441 -12 441 -12 294 -12 c 0,0,1
87 322 m 1,16,-1
 163 700 l 1,17,-1
 326 700 l 1,18,-1
 250 322 l 1,19,-1
 87 322 l 1,16,-1
181 757 m 1,20,-1
 344 901 l 1,21,-1
 500 901 l 1,22,-1
 290 757 l 1,23,-1
 181 757 l 1,20,-1
589 757 m 1,24,-1
 752 901 l 1,25,-1
 907 901 l 1,26,-1
 698 757 l 1,27,-1
 589 757 l 1,24,-1
EndSplineSet
Substitution2: "'ss01' Style Set 1 lookup 53 subtable" Iacute_J.loclNLD.ss01
Substitution2: "'c2sc' Capitals to Small Capitals lookup 48 subtable" iacute_j.loclNLD.sc
Ligature2: "'locl' Localized Forms in Latin lookup 19 subtable" Iacute J
AlternateSubs2: "'aalt' Access All Alternates lookup 4 subtable" iacute_j.loclNLD.sc Iacute_J.loclNLD.ss01
EndChar

StartChar: uni0196
Encoding: 406 406 151
Width: 403
GlyphClass: 2
Flags: W
AnchorPoint: "Anchor-3" 246 700 basechar 0
AnchorPoint: "Anchor-2" 298 0 basechar 0
AnchorPoint: "Anchor-0" 156 0 basechar 0
LayerCount: 2
Fore
SplineSet
237 -11 m 0,0,1
 180 -11 180 -11 136 14.5 c 128,-1,2
 92 40 92 40 71.5 85.5 c 128,-1,3
 51 131 51 131 63 191 c 2,4,-1
 164 700 l 1,5,-1
 327 700 l 1,6,-1
 226 197 l 2,7,8
 220 162 220 162 235.5 142 c 128,-1,9
 251 122 251 122 281 122 c 0,10,11
 296 122 296 122 313 127 c 128,-1,12
 330 132 330 132 349 142 c 1,13,-1
 361 22 l 1,14,15
 329 5 329 5 298 -3 c 128,-1,16
 267 -11 267 -11 237 -11 c 0,0,1
EndSplineSet
Substitution2: "'c2sc' Capitals to Small Capitals lookup 48 subtable" uni0269.sc
Substitution2: "'aalt' Access All Alternates lookup 3 subtable" uni0269.sc
EndChar

StartChar: uni0197
Encoding: 407 407 152
Width: 387
GlyphClass: 2
Flags: W
AnchorPoint: "Anchor-3" 280 700 basechar 0
AnchorPoint: "Anchor-2" 221 0 basechar 0
AnchorPoint: "Anchor-0" 140 0 basechar 0
LayerCount: 2
Fore
SplineSet
59 0 m 1,0,-1
 199 700 l 1,1,-1
 361 700 l 1,2,-1
 221 0 l 1,3,-1
 59 0 l 1,0,-1
31 303 m 1,4,-1
 52 412 l 1,5,-1
 391 412 l 1,6,-1
 370 303 l 1,7,-1
 31 303 l 1,4,-1
EndSplineSet
Substitution2: "'ss01' Style Set 1 lookup 53 subtable" uni0197.ss01
Substitution2: "'c2sc' Capitals to Small Capitals lookup 48 subtable" uni0268.sc
AlternateSubs2: "'aalt' Access All Alternates lookup 4 subtable" uni0268.sc uni0197.ss01
EndChar

StartChar: J
Encoding: 74 74 155
Width: 533
GlyphClass: 2
Flags: W
AnchorPoint: "Anchor-3" 348 700 basechar 0
LayerCount: 2
Fore
SplineSet
179 -12 m 0,0,1
 99 -12 99 -12 41 15 c 128,-1,2
 -17 42 -17 42 -49 93 c 1,3,-1
 58 195 l 1,4,5
 79 160 79 160 110 140.5 c 128,-1,6
 141 121 141 121 181 121 c 0,7,8
 227 121 227 121 256.5 147 c 128,-1,9
 286 173 286 173 297 230 c 2,10,-1
 364 570 l 1,11,-1
 118 570 l 1,12,-1
 145 700 l 1,13,-1
 551 700 l 1,14,-1
 458 238 l 2,15,16
 440 146 440 146 403.5 91.5 c 128,-1,17
 367 37 367 37 311 12.5 c 128,-1,18
 255 -12 255 -12 179 -12 c 0,0,1
EndSplineSet
Substitution2: "'ss01' Style Set 1 lookup 53 subtable" J.ss01
Substitution2: "'c2sc' Capitals to Small Capitals lookup 48 subtable" j.sc
AlternateSubs2: "'aalt' Access All Alternates lookup 4 subtable" j.sc J.ss01
EndChar

StartChar: uniA7B2
Encoding: 42930 42930 157
Width: 556
GlyphClass: 1
Flags: W
LayerCount: 2
Fore
SplineSet
191 -12 m 0,0,1
 125 -12 125 -12 78.5 10.5 c 128,-1,2
 32 33 32 33 10 73 c 128,-1,3
 -12 113 -12 113 -4 164 c 0,4,5
 8 231 8 231 64 267.5 c 128,-1,6
 120 304 120 304 211 304 c 2,7,-1
 547 304 l 1,8,-1
 526 198 l 1,9,-1
 212 198 l 2,10,11
 176 198 176 198 155.5 187.5 c 128,-1,12
 135 177 135 177 130 155 c 0,13,14
 125 132 125 132 142 115 c 128,-1,15
 159 98 159 98 190 98 c 0,16,17
 215 98 215 98 234.5 109.5 c 128,-1,18
 254 121 254 121 267.5 142.5 c 128,-1,19
 281 164 281 164 287 195 c 2,20,-1
 364 570 l 1,21,-1
 119 570 l 1,22,-1
 145 700 l 1,23,-1
 552 700 l 1,24,-1
 448 190 l 2,25,26
 435 127 435 127 400 82 c 128,-1,27
 365 37 365 37 312.5 12.5 c 128,-1,28
 260 -12 260 -12 191 -12 c 0,0,1
EndSplineSet
Substitution2: "'ss01' Style Set 1 lookup 53 subtable" uniA7B2.ss01
Substitution2: "'c2sc' Capitals to Small Capitals lookup 48 subtable" uni029D.sc
AlternateSubs2: "'aalt' Access All Alternates lookup 4 subtable" uni029D.sc uniA7B2.ss01
EndChar

StartChar: uni0248
Encoding: 584 584 158
Width: 555
GlyphClass: 2
Flags: W
AnchorPoint: "Anchor-3" 348 700 basechar 0
LayerCount: 2
Fore
SplineSet
179 -12 m 0,0,1
 99 -12 99 -12 41 15 c 128,-1,2
 -17 42 -17 42 -49 93 c 1,3,-1
 58 195 l 1,4,5
 79 160 79 160 110 140.5 c 128,-1,6
 141 121 141 121 181 121 c 0,7,8
 227 121 227 121 256.5 147 c 128,-1,9
 286 173 286 173 297 230 c 2,10,-1
 364 570 l 1,11,-1
 118 570 l 1,12,-1
 145 700 l 1,13,-1
 551 700 l 1,14,-1
 458 238 l 2,15,16
 440 146 440 146 403.5 91.5 c 128,-1,17
 367 37 367 37 311 12.5 c 128,-1,18
 255 -12 255 -12 179 -12 c 0,0,1
180 303 m 1,19,-1
 201 412 l 1,20,-1
 582 412 l 1,21,-1
 561 303 l 1,22,-1
 180 303 l 1,19,-1
EndSplineSet
Substitution2: "'ss01' Style Set 1 lookup 53 subtable" uni0248.ss01
Substitution2: "'c2sc' Capitals to Small Capitals lookup 48 subtable" uni0249.sc
AlternateSubs2: "'aalt' Access All Alternates lookup 4 subtable" uni0249.sc uni0248.ss01
EndChar

StartChar: K
Encoding: 75 75 159
Width: 740
GlyphClass: 2
Flags: W
AnchorPoint: "Anchor-3" 465 700 basechar 0
AnchorPoint: "Anchor-0" 325 0 basechar 0
LayerCount: 2
Fore
SplineSet
209 160 m 1,0,-1
 231 348 l 1,1,-1
 629 700 l 1,2,-1
 825 700 l 1,3,-1
 456 375 l 1,4,-1
 349 284 l 1,5,-1
 209 160 l 1,0,-1
29 0 m 1,6,-1
 169 700 l 1,7,-1
 330 700 l 1,8,-1
 190 0 l 1,9,-1
 29 0 l 1,6,-1
518 0 m 1,10,-1
 318 305 l 1,11,-1
 433 414 l 1,12,-1
 700 0 l 1,13,-1
 518 0 l 1,10,-1
EndSplineSet
Substitution2: "'c2sc' Capitals to Small Capitals lookup 48 subtable" k.sc
Substitution2: "'aalt' Access All Alternates lookup 3 subtable" k.sc
EndChar

StartChar: uni0198
Encoding: 408 408 164
Width: 736
GlyphClass: 2
Flags: W
AnchorPoint: "Anchor-3" 465 700 basechar 0
AnchorPoint: "Anchor-0" 325 0 basechar 0
LayerCount: 2
Fore
SplineSet
208 167 m 1,0,-1
 229 355 l 1,1,-1
 565 664 l 2,2,3
 627 721 627 721 679.5 738.5 c 128,-1,4
 732 756 732 756 773.5 745 c 128,-1,5
 815 734 815 734 843 701 c 1,6,-1
 765 599 l 1,7,8
 746 617 746 617 721.5 612.5 c 128,-1,9
 697 608 697 608 666 580 c 2,10,-1
 208 167 l 1,0,-1
29 0 m 1,11,-1
 169 700 l 1,12,-1
 329 700 l 1,13,-1
 189 0 l 1,14,-1
 29 0 l 1,11,-1
518 0 m 1,15,-1
 318 305 l 1,16,-1
 433 414 l 1,17,-1
 700 0 l 1,18,-1
 518 0 l 1,15,-1
EndSplineSet
Substitution2: "'c2sc' Capitals to Small Capitals lookup 48 subtable" uni0199.sc
Substitution2: "'aalt' Access All Alternates lookup 3 subtable" uni0199.sc
EndChar

StartChar: uniA740
Encoding: 42816 42816 166
Width: 788
GlyphClass: 2
Flags: W
AnchorPoint: "Anchor-3" 483 700 basechar 0
AnchorPoint: "Anchor-0" 343 0 basechar 0
LayerCount: 2
Fore
SplineSet
227 136 m 1,0,-1
 257 332 l 1,1,-1
 660 700 l 1,2,-1
 853 700 l 1,3,-1
 227 136 l 1,0,-1
57 0 m 1,4,-1
 197 700 l 1,5,-1
 357 700 l 1,6,-1
 217 0 l 1,7,-1
 57 0 l 1,4,-1
543 0 m 1,8,-1
 351 297 l 1,9,-1
 467 408 l 1,10,-1
 726 0 l 1,11,-1
 543 0 l 1,8,-1
74 528 m 1,12,-1
 93 625 l 1,13,-1
 469 625 l 1,14,-1
 450 528 l 1,15,-1
 74 528 l 1,12,-1
EndSplineSet
Substitution2: "'c2sc' Capitals to Small Capitals lookup 48 subtable" uniA741.sc
Substitution2: "'aalt' Access All Alternates lookup 3 subtable" uniA741.sc
EndChar

StartChar: L
Encoding: 76 76 167
Width: 604
GlyphClass: 2
Flags: W
AnchorPoint: "Anchor-4" 518 700 basechar 0
AnchorPoint: "Anchor-3" 251 700 basechar 0
AnchorPoint: "Anchor-1" 198 380 basechar 0
AnchorPoint: "Anchor-0" 297 0 basechar 0
LayerCount: 2
Fore
SplineSet
29 0 m 1,0,-1
 169 700 l 1,1,-1
 332 700 l 1,2,-1
 218 132 l 1,3,-1
 569 132 l 1,4,-1
 542 0 l 1,5,-1
 29 0 l 1,0,-1
EndSplineSet
Substitution2: "'c2sc' Capitals to Small Capitals lookup 48 subtable" l.sc
Substitution2: "'aalt' Access All Alternates lookup 3 subtable" l.sc
EndChar

StartChar: uni023D
Encoding: 573 573 170
Width: 611
GlyphClass: 2
Flags: W
AnchorPoint: "Anchor-4" 524 700 basechar 0
AnchorPoint: "Anchor-3" 258 700 basechar 0
AnchorPoint: "Anchor-1" 205 380 basechar 0
AnchorPoint: "Anchor-0" 304 0 basechar 0
LayerCount: 2
Fore
SplineSet
36 0 m 1,0,-1
 176 700 l 1,1,-1
 338 700 l 1,2,-1
 225 132 l 1,3,-1
 575 132 l 1,4,-1
 549 0 l 1,5,-1
 36 0 l 1,0,-1
8 303 m 1,6,-1
 30 412 l 1,7,-1
 414 412 l 1,8,-1
 392 303 l 1,9,-1
 8 303 l 1,6,-1
EndSplineSet
Substitution2: "'c2sc' Capitals to Small Capitals lookup 48 subtable" uni019A.sc
Substitution2: "'aalt' Access All Alternates lookup 3 subtable" uni019A.sc
EndChar

StartChar: uniA7AD
Encoding: 42925 42925 171
Width: 688
GlyphClass: 2
Flags: W
AnchorPoint: "Anchor-4" 601 700 basechar 0
AnchorPoint: "Anchor-3" 334 700 basechar 0
AnchorPoint: "Anchor-1" 271 387 basechar 0
AnchorPoint: "Anchor-0" 381 0 basechar 0
LayerCount: 2
Fore
SplineSet
113 0 m 1,0,-1
 253 700 l 1,1,-1
 415 700 l 1,2,-1
 302 132 l 1,3,-1
 652 132 l 1,4,-1
 625 0 l 1,5,-1
 113 0 l 1,0,-1
154 311 m 2,6,7
 77 311 77 311 36 354.5 c 128,-1,8
 -5 398 -5 398 7 468 c 0,9,10
 18 524 18 524 56.5 558 c 128,-1,11
 95 592 95 592 150 592 c 0,12,13
 216 592 216 592 246 545.5 c 128,-1,14
 276 499 276 499 261 422 c 1,15,-1
 197 422 l 1,16,17
 203 455 203 455 189.5 477.5 c 128,-1,18
 176 500 176 500 151 500 c 0,19,20
 136 500 136 500 126 491.5 c 128,-1,21
 116 483 116 483 114 469 c 0,22,23
 110 447 110 447 128 434.5 c 128,-1,24
 146 422 146 422 176 422 c 2,25,-1
 554 422 l 1,26,-1
 534 311 l 1,27,-1
 154 311 l 2,6,7
EndSplineSet
Substitution2: "'c2sc' Capitals to Small Capitals lookup 48 subtable" uni026C.sc
Substitution2: "'aalt' Access All Alternates lookup 3 subtable" uni026C.sc
EndChar

StartChar: uni2C60
Encoding: 11360 11360 178
Width: 642
GlyphClass: 2
Flags: W
AnchorPoint: "Anchor-4" 555 700 basechar 0
AnchorPoint: "Anchor-3" 289 700 basechar 0
AnchorPoint: "Anchor-1" 236 380 basechar 0
AnchorPoint: "Anchor-0" 335 0 basechar 0
LayerCount: 2
Fore
SplineSet
67 0 m 1,0,-1
 207 700 l 1,1,-1
 369 700 l 1,2,-1
 256 132 l 1,3,-1
 606 132 l 1,4,-1
 580 0 l 1,5,-1
 67 0 l 1,0,-1
64 421 m 1,6,-1
 84 529 l 1,7,-1
 469 529 l 1,8,-1
 448 421 l 1,9,-1
 64 421 l 1,6,-1
31 259 m 1,10,-1
 51 366 l 1,11,-1
 436 366 l 1,12,-1
 415 259 l 1,13,-1
 31 259 l 1,10,-1
EndSplineSet
Substitution2: "'c2sc' Capitals to Small Capitals lookup 48 subtable" uni2C61.sc
Substitution2: "'aalt' Access All Alternates lookup 3 subtable" uni2C61.sc
EndChar

StartChar: uni2C62
Encoding: 11362 11362 181
Width: 656
GlyphClass: 2
Flags: W
AnchorPoint: "Anchor-4" 563 700 basechar 0
AnchorPoint: "Anchor-3" 296 700 basechar 0
AnchorPoint: "Anchor-0" 332 0 basechar 0
LayerCount: 2
Fore
SplineSet
75 0 m 1,0,-1
 215 700 l 1,1,-1
 377 700 l 1,2,-1
 264 132 l 1,3,-1
 615 132 l 1,4,-1
 588 0 l 1,5,-1
 75 0 l 1,0,-1
340 324 m 0,6,7
 308 324 308 324 279.5 333.5 c 128,-1,8
 251 343 251 343 224.5 355 c 128,-1,9
 198 367 198 367 176 376.5 c 128,-1,10
 154 386 154 386 135 386 c 0,11,12
 109 386 109 386 95 371.5 c 128,-1,13
 81 357 81 357 74 331 c 1,14,-1
 -6 331 l 1,15,16
 9 396 9 396 44.5 435.5 c 128,-1,17
 80 475 80 475 141 475 c 0,18,19
 171 475 171 475 200 465 c 128,-1,20
 229 455 229 455 255.5 443 c 128,-1,21
 282 431 282 431 304.5 421.5 c 128,-1,22
 327 412 327 412 345 412 c 0,23,24
 372 412 372 412 388 426 c 128,-1,25
 404 440 404 440 410 465 c 1,26,-1
 490 465 l 1,27,28
 475 401 475 401 437.5 362.5 c 128,-1,29
 400 324 400 324 340 324 c 0,6,7
EndSplineSet
Substitution2: "'c2sc' Capitals to Small Capitals lookup 48 subtable" uni026B.sc
Substitution2: "'aalt' Access All Alternates lookup 3 subtable" uni026B.sc
EndChar

StartChar: M
Encoding: 77 77 183
Width: 955
GlyphClass: 2
Flags: W
AnchorPoint: "Anchor-3" 563 700 basechar 0
AnchorPoint: "Anchor-0" 423 0 basechar 0
LayerCount: 2
Fore
SplineSet
29 0 m 1,0,-1
 169 700 l 1,1,-1
 301 700 l 1,2,-1
 500 204 l 1,3,-1
 430 205 l 1,4,-1
 818 700 l 1,5,-1
 957 700 l 1,6,-1
 818 0 l 1,7,-1
 666 0 l 1,8,-1
 759 469 l 1,9,-1
 790 469 l 1,10,-1
 481 74 l 1,11,-1
 409 74 l 1,12,-1
 244 470 l 1,13,-1
 274 467 l 1,14,-1
 181 0 l 1,15,-1
 29 0 l 1,0,-1
EndSplineSet
Substitution2: "'ss01' Style Set 1 lookup 53 subtable" M.ss01
Substitution2: "'c2sc' Capitals to Small Capitals lookup 48 subtable" m.sc
AlternateSubs2: "'aalt' Access All Alternates lookup 4 subtable" m.sc M.ss01
EndChar

StartChar: uni2C6E
Encoding: 11374 11374 187
Width: 959
GlyphClass: 2
Flags: W
AnchorPoint: "Anchor-3" 567 700 basechar 0
AnchorPoint: "Anchor-0" 427 0 basechar 0
LayerCount: 2
Fore
SplineSet
466 -172 m 1,0,-1
 517 -58 l 1,1,2
 541 -73 541 -73 566 -76.5 c 128,-1,3
 591 -80 591 -80 612.5 -73 c 128,-1,4
 634 -66 634 -66 649 -48 c 128,-1,5
 664 -30 664 -30 670 -2 c 2,6,-1
 762 467 l 1,7,-1
 796 467 l 1,8,-1
 486 74 l 1,9,-1
 413 74 l 1,10,-1
 250 468 l 1,11,-1
 278 467 l 1,12,-1
 185 0 l 1,13,-1
 34 0 l 1,14,-1
 174 700 l 1,15,-1
 306 700 l 1,16,-1
 505 206 l 1,17,-1
 434 206 l 1,18,-1
 824 700 l 1,19,-1
 961 700 l 1,20,-1
 820 -10 l 2,21,22
 807 -78 807 -78 771.5 -122 c 128,-1,23
 736 -166 736 -166 685.5 -186 c 128,-1,24
 635 -206 635 -206 578.5 -202.5 c 128,-1,25
 522 -199 522 -199 466 -172 c 1,0,-1
EndSplineSet
Substitution2: "'c2sc' Capitals to Small Capitals lookup 48 subtable" uni0271.sc
Substitution2: "'aalt' Access All Alternates lookup 3 subtable" uni0271.sc
EndChar

StartChar: uni019C
Encoding: 412 412 188
Width: 1202
GlyphClass: 2
Flags: W
AnchorPoint: "Anchor-3" 668 700 basechar 0
AnchorPoint: "Anchor-0" 528 0 basechar 0
LayerCount: 2
Fore
SplineSet
1205 700 m 1,0,-1
 1065 0 l 1,1,-1
 909 0 l 1,2,-1
 940 152 l 1,3,-1
 958 127 l 1,4,5
 920 61 920 61 858 24.5 c 128,-1,6
 796 -12 796 -12 711 -12 c 0,7,8
 622 -12 622 -12 568 28 c 128,-1,9
 514 68 514 68 505 139 c 1,10,-1
 553 135 l 1,11,12
 509 64 509 64 441 26 c 128,-1,13
 373 -12 373 -12 284 -12 c 0,14,15
 204 -12 204 -12 149.5 20 c 128,-1,16
 95 52 95 52 73 115 c 128,-1,17
 51 178 51 178 69 270 c 2,18,-1
 155 700 l 1,19,-1
 317 700 l 1,20,-1
 232 275 l 2,21,22
 217 199 217 199 248.5 162.5 c 128,-1,23
 280 126 280 126 342 126 c 0,24,25
 406 126 406 126 455 164.5 c 128,-1,26
 504 203 504 203 519 285 c 2,27,-1
 602 700 l 1,28,-1
 764 700 l 1,29,-1
 680 275 l 2,30,31
 665 199 665 199 693.5 162.5 c 128,-1,32
 722 126 722 126 783 126 c 0,33,34
 825 126 825 126 861 142.5 c 128,-1,35
 897 159 897 159 923.5 194.5 c 128,-1,36
 950 230 950 230 960 285 c 2,37,-1
 1043 700 l 1,38,-1
 1205 700 l 1,0,-1
EndSplineSet
Substitution2: "'c2sc' Capitals to Small Capitals lookup 48 subtable" uni026F.sc
Substitution2: "'aalt' Access All Alternates lookup 3 subtable" uni026F.sc
EndChar

StartChar: N
Encoding: 78 78 189
Width: 808
GlyphClass: 2
Flags: W
AnchorPoint: "Anchor-3" 491 700 basechar 0
AnchorPoint: "Anchor-0" 351 0 basechar 0
LayerCount: 2
Fore
SplineSet
29 0 m 1,0,-1
 169 700 l 1,1,-1
 303 700 l 1,2,-1
 604 193 l 1,3,-1
 551 196 l 1,4,-1
 651 700 l 1,5,-1
 811 700 l 1,6,-1
 671 0 l 1,7,-1
 538 0 l 1,8,-1
 236 507 l 1,9,-1
 290 504 l 1,10,-1
 189 0 l 1,11,-1
 29 0 l 1,0,-1
EndSplineSet
Substitution2: "'ss01' Style Set 1 lookup 53 subtable" N.ss01
Substitution2: "'c2sc' Capitals to Small Capitals lookup 48 subtable" n.sc
AlternateSubs2: "'aalt' Access All Alternates lookup 4 subtable" n.sc N.ss01
EndChar

StartChar: uni019D
Encoding: 413 413 198
Width: 793
GlyphClass: 2
Flags: W
AnchorPoint: "Anchor-3" 490 700 basechar 0
AnchorPoint: "Anchor-0" 350 0 basechar 0
LayerCount: 2
Fore
SplineSet
-134 -177 m 1,0,-1
 -89 -63 l 1,1,2
 -53 -75 -53 -75 -28.5 -73.5 c 128,-1,3
 -4 -72 -4 -72 11 -56 c 128,-1,4
 26 -40 26 -40 32 -10 c 2,5,-1
 174 700 l 1,6,-1
 331 700 l 1,7,-1
 298 532 l 1,8,-1
 280 581 l 1,9,10
 322 644 322 644 384.5 678 c 128,-1,11
 447 712 447 712 526 712 c 0,12,13
 611 712 611 712 667.5 673.5 c 128,-1,14
 724 635 724 635 746.5 563.5 c 128,-1,15
 769 492 769 492 749 392 c 2,16,-1
 671 0 l 1,17,-1
 508 0 l 1,18,-1
 587 396 l 2,19,20
 606 485 606 485 574.5 529.5 c 128,-1,21
 543 574 543 574 468 574 c 0,22,23
 397 574 397 574 346 531.5 c 128,-1,24
 295 489 295 489 276 399 c 2,25,-1
 191 -31 l 2,26,27
 180 -88 180 -88 149.5 -127.5 c 128,-1,28
 119 -167 119 -167 75 -186.5 c 128,-1,29
 31 -206 31 -206 -22.5 -204.5 c 128,-1,30
 -76 -203 -76 -203 -134 -177 c 1,0,-1
EndSplineSet
Substitution2: "'c2sc' Capitals to Small Capitals lookup 48 subtable" uni0272.sc
Substitution2: "'aalt' Access All Alternates lookup 3 subtable" uni0272.sc
EndChar

StartChar: uni0220
Encoding: 544 544 201
Width: 798
GlyphClass: 2
Flags: W
AnchorPoint: "Anchor-3" 500 700 basechar 0
AnchorPoint: "Anchor-0" 359 0 basechar 0
LayerCount: 2
Fore
SplineSet
523 712 m 0,0,1
 607 712 607 712 664 673.5 c 128,-1,2
 721 635 721 635 744 563.5 c 128,-1,3
 767 492 767 492 746 392 c 2,4,-1
 629 -194 l 1,5,-1
 467 -194 l 1,6,-1
 585 396 l 2,7,8
 603 485 603 485 571.5 529.5 c 128,-1,9
 540 574 540 574 465 574 c 0,10,11
 397 574 397 574 344.5 533 c 128,-1,12
 292 492 292 492 274 399 c 2,13,-1
 194 0 l 1,14,-1
 32 0 l 1,15,-1
 172 700 l 1,16,-1
 329 700 l 1,17,-1
 295 532 l 1,18,-1
 278 581 l 1,19,20
 319 645 319 645 382 678.5 c 128,-1,21
 445 712 445 712 523 712 c 0,0,1
EndSplineSet
EndChar

StartChar: Eng
Encoding: 330 330 203
Width: 808
GlyphClass: 2
Flags: W
AnchorPoint: "Anchor-3" 491 700 basechar 0
AnchorPoint: "Anchor-0" 316 -199 basechar 0
LayerCount: 2
Fore
SplineSet
29 0 m 1,0,-1
 169 700 l 1,1,-1
 303 700 l 1,2,-1
 604 193 l 1,3,-1
 538 0 l 1,4,-1
 236 507 l 1,5,-1
 290 504 l 1,6,-1
 189 0 l 1,7,-1
 29 0 l 1,0,-1
402 -202 m 0,8,9
 349 -202 349 -202 298 -183.5 c 128,-1,10
 247 -165 247 -165 216 -132 c 1,11,-1
 303 -24 l 1,12,13
 322 -45 322 -45 348 -57 c 128,-1,14
 374 -69 374 -69 406 -69 c 0,15,16
 452 -69 452 -69 480 -44.5 c 128,-1,17
 508 -20 508 -20 520 41 c 2,18,-1
 651 700 l 1,19,-1
 811 700 l 1,20,-1
 685 67 l 2,21,22
 664 -38 664 -38 625.5 -96.5 c 128,-1,23
 587 -155 587 -155 531.5 -178.5 c 128,-1,24
 476 -202 476 -202 402 -202 c 0,8,9
EndSplineSet
Substitution2: "'ss01' Style Set 1 lookup 53 subtable" Eng.ss01
Substitution2: "'c2sc' Capitals to Small Capitals lookup 48 subtable" eng.sc
Substitution2: "'locl' Localized Forms in Latin lookup 20 subtable" Eng.loclNSM
AlternateSubs2: "'aalt' Access All Alternates lookup 4 subtable" Eng.loclNSM eng.sc Eng.ss01
EndChar

StartChar: O
Encoding: 79 79 204
Width: 844
GlyphClass: 2
Flags: W
AnchorPoint: "Anchor-4" 702 700 basechar 0
AnchorPoint: "Anchor-3" 508 700 basechar 0
AnchorPoint: "Anchor-2" 467 0 basechar 0
AnchorPoint: "Anchor-1" 438 350 basechar 0
AnchorPoint: "Anchor-0" 368 0 basechar 0
LayerCount: 2
Fore
SplineSet
392 -12 m 0,0,1
 286 -12 286 -12 209.5 26.5 c 128,-1,2
 133 65 133 65 92 133.5 c 128,-1,3
 51 202 51 202 51 292 c 256,4,5
 51 382 51 382 82 458.5 c 128,-1,6
 113 535 113 535 170.5 591.5 c 128,-1,7
 228 648 228 648 307.5 680 c 128,-1,8
 387 712 387 712 484 712 c 0,9,10
 590 712 590 712 666.5 673.5 c 128,-1,11
 743 635 743 635 784 566.5 c 128,-1,12
 825 498 825 498 825 408 c 256,13,14
 825 318 825 318 794 241.5 c 128,-1,15
 763 165 763 165 705.5 108.5 c 128,-1,16
 648 52 648 52 568.5 20 c 128,-1,17
 489 -12 489 -12 392 -12 c 0,0,1
406 126 m 0,18,19
 465 126 465 126 512.5 147.5 c 128,-1,20
 560 169 560 169 593 207 c 128,-1,21
 626 245 626 245 643.5 294.5 c 128,-1,22
 661 344 661 344 661 399 c 0,23,24
 661 451 661 451 639 490.5 c 128,-1,25
 617 530 617 530 574.5 552 c 128,-1,26
 532 574 532 574 470 574 c 0,27,28
 411 574 411 574 364 552.5 c 128,-1,29
 317 531 317 531 283.5 493 c 128,-1,30
 250 455 250 455 232.5 405.5 c 128,-1,31
 215 356 215 356 215 301 c 0,32,33
 215 249 215 249 237.5 209.5 c 128,-1,34
 260 170 260 170 302.5 148 c 128,-1,35
 345 126 345 126 406 126 c 0,18,19
EndSplineSet
Substitution2: "'c2sc' Capitals to Small Capitals lookup 48 subtable" o.sc
Substitution2: "Single Substitution lookup 42 subtable" ordmasculine
AlternateSubs2: "'aalt' Access All Alternates lookup 4 subtable" ordmasculine o.sc
EndChar

StartChar: uni0222
Encoding: 546 546 205
Width: 757
GlyphClass: 1
Flags: W
LayerCount: 2
Fore
SplineSet
346 -10 m 0,0,1
 237 -10 237 -10 161.5 22.5 c 128,-1,2
 86 55 86 55 52.5 111.5 c 128,-1,3
 19 168 19 168 33 242 c 0,4,5
 47 311 47 311 93.5 360 c 128,-1,6
 140 409 140 409 216.5 436 c 128,-1,7
 293 463 293 463 396 463 c 0,8,9
 500 463 500 463 575.5 433 c 128,-1,10
 651 403 651 403 687 348.5 c 128,-1,11
 723 294 723 294 709 220 c 0,12,13
 696 149 696 149 648.5 97.5 c 128,-1,14
 601 46 601 46 524 18 c 128,-1,15
 447 -10 447 -10 346 -10 c 0,0,1
360 115 m 0,16,17
 414 115 414 115 454.5 128.5 c 128,-1,18
 495 142 495 142 520 168 c 128,-1,19
 545 194 545 194 551 230 c 0,20,21
 558 267 558 267 541.5 296.5 c 128,-1,22
 525 326 525 326 485.5 342.5 c 128,-1,23
 446 359 446 359 385 359 c 0,24,25
 331 359 331 359 290.5 345.5 c 128,-1,26
 250 332 250 332 225.5 306.5 c 128,-1,27
 201 281 201 281 194 245 c 0,28,29
 188 208 188 208 204 178.5 c 128,-1,30
 220 149 220 149 259.5 132 c 128,-1,31
 299 115 299 115 360 115 c 0,16,17
409 370 m 0,32,33
 310 370 310 370 243.5 397 c 128,-1,34
 177 424 177 424 149 475 c 128,-1,35
 121 526 121 526 135 597 c 2,36,-1
 156 700 l 1,37,-1
 317 700 l 1,38,-1
 295 589 l 2,39,40
 287 553 287 553 301 527 c 128,-1,41
 315 501 315 501 347 487 c 128,-1,42
 379 473 379 473 427 473 c 0,43,44
 473 473 473 473 506.5 486.5 c 128,-1,45
 540 500 540 500 561.5 526 c 128,-1,46
 583 552 583 552 591 590 c 2,47,-1
 613 700 l 1,48,-1
 773 700 l 1,49,-1
 750 580 l 2,50,51
 737 514 737 514 692 466.5 c 128,-1,52
 647 419 647 419 575.5 394.5 c 128,-1,53
 504 370 504 370 409 370 c 0,32,33
EndSplineSet
Substitution2: "'c2sc' Capitals to Small Capitals lookup 48 subtable" uni0223.sc
Substitution2: "'aalt' Access All Alternates lookup 3 subtable" uni0223.sc
EndChar

StartChar: Ohorn
Encoding: 416 416 224
Width: 844
GlyphClass: 2
Flags: W
AnchorPoint: "Anchor-3" 508 700 basechar 0
AnchorPoint: "Anchor-0" 368 0 basechar 0
LayerCount: 2
Fore
SplineSet
392 -12 m 0,0,1
 286 -12 286 -12 209.5 26.5 c 128,-1,2
 133 65 133 65 92 133.5 c 128,-1,3
 51 202 51 202 51 292 c 256,4,5
 51 382 51 382 82 458.5 c 128,-1,6
 113 535 113 535 170.5 591.5 c 128,-1,7
 228 648 228 648 307.5 680 c 128,-1,8
 387 712 387 712 484 712 c 0,9,10
 533 712 533 712 569 707.5 c 128,-1,11
 605 703 605 703 636.5 698 c 128,-1,12
 668 693 668 693 702 693 c 0,13,14
 744 693 744 693 766.5 712.5 c 128,-1,15
 789 732 789 732 789 763 c 0,16,17
 789 781 789 781 783.5 796.5 c 128,-1,18
 778 812 778 812 769 823 c 1,19,-1
 862 857 l 1,20,21
 876 837 876 837 885 812 c 128,-1,22
 894 787 894 787 894 756 c 0,23,24
 894 705 894 705 872 668.5 c 128,-1,25
 850 632 850 632 811 612.5 c 128,-1,26
 772 593 772 593 721 593 c 0,27,28
 708 593 708 593 693.5 594.5 c 128,-1,29
 679 596 679 596 663 598 c 1,30,-1
 735 626 l 1,31,32
 779 586 779 586 802 530.5 c 128,-1,33
 825 475 825 475 825 408 c 0,34,35
 825 318 825 318 794 241.5 c 128,-1,36
 763 165 763 165 705.5 108.5 c 128,-1,37
 648 52 648 52 568.5 20 c 128,-1,38
 489 -12 489 -12 392 -12 c 0,0,1
406 126 m 0,39,40
 465 126 465 126 512.5 147.5 c 128,-1,41
 560 169 560 169 593 207 c 128,-1,42
 626 245 626 245 643.5 294.5 c 128,-1,43
 661 344 661 344 661 399 c 0,44,45
 661 451 661 451 639 490.5 c 128,-1,46
 617 530 617 530 574.5 552 c 128,-1,47
 532 574 532 574 470 574 c 0,48,49
 411 574 411 574 364 552.5 c 128,-1,50
 317 531 317 531 283.5 493 c 128,-1,51
 250 455 250 455 232.5 405.5 c 128,-1,52
 215 356 215 356 215 301 c 0,53,54
 215 249 215 249 237.5 209.5 c 128,-1,55
 260 170 260 170 302.5 148 c 128,-1,56
 345 126 345 126 406 126 c 0,39,40
EndSplineSet
Substitution2: "'c2sc' Capitals to Small Capitals lookup 48 subtable" ohorn.sc
Substitution2: "'aalt' Access All Alternates lookup 3 subtable" ohorn.sc
EndChar

StartChar: uniA7B6
Encoding: 42934 42934 235
Width: 1049
GlyphClass: 2
Flags: W
AnchorPoint: "Anchor-3" 608 700 basechar 0
AnchorPoint: "Anchor-0" 468 0 basechar 0
LayerCount: 2
Fore
SplineSet
281 -10 m 0,0,1
 195 -10 195 -10 139.5 35.5 c 128,-1,2
 84 81 84 81 64.5 163.5 c 128,-1,3
 45 246 45 246 66 357 c 0,4,5
 79 421 79 421 103.5 484 c 128,-1,6
 128 547 128 547 161 603 c 128,-1,7
 194 659 194 659 233 700 c 1,8,-1
 398 700 l 1,9,10
 359 653 359 653 324.5 595 c 128,-1,11
 290 537 290 537 265 474 c 128,-1,12
 240 411 240 411 228 349 c 0,13,14
 214 280 214 280 220 230 c 128,-1,15
 226 180 226 180 251 153.5 c 128,-1,16
 276 127 276 127 317 127 c 0,17,18
 350 127 350 127 375 143 c 128,-1,19
 400 159 400 159 417 193 c 128,-1,20
 434 227 434 227 444 276 c 2,21,-1
 479 450 l 1,22,-1
 641 450 l 1,23,-1
 606 276 l 2,24,25
 597 231 597 231 603.5 197.5 c 128,-1,26
 610 164 610 164 631.5 145.5 c 128,-1,27
 653 127 653 127 687 127 c 0,28,29
 727 127 727 127 759 152.5 c 128,-1,30
 791 178 791 178 814.5 228.5 c 128,-1,31
 838 279 838 279 851 351 c 0,32,33
 869 447 869 447 861.5 537.5 c 128,-1,34
 854 628 854 628 823 700 c 1,35,-1
 987 700 l 1,36,37
 1021 633 1021 633 1029 546 c 128,-1,38
 1037 459 1037 459 1018 356 c 0,39,40
 996 241 996 241 949.5 159 c 128,-1,41
 903 77 903 77 837 33.5 c 128,-1,42
 771 -10 771 -10 688 -10 c 0,43,44
 616 -10 616 -10 564 21.5 c 128,-1,45
 512 53 512 53 488.5 108 c 128,-1,46
 465 163 465 163 476 232 c 1,47,-1
 556 232 l 1,48,49
 539 157 539 157 499.5 102.5 c 128,-1,50
 460 48 460 48 404.5 19 c 128,-1,51
 349 -10 349 -10 281 -10 c 0,0,1
EndSplineSet
Substitution2: "'c2sc' Capitals to Small Capitals lookup 48 subtable" uniA7B7.sc
Substitution2: "'aalt' Access All Alternates lookup 3 subtable" uniA7B7.sc
EndChar

StartChar: uni01EA
Encoding: 490 490 236
Width: 844
GlyphClass: 2
Flags: W
AnchorPoint: "Anchor-3" 508 700 basechar 0
LayerCount: 2
Fore
SplineSet
351 -232 m 0,0,1
 295 -232 295 -232 260 -206 c 128,-1,2
 225 -180 225 -180 225 -133 c 0,3,4
 225 -83 225 -83 262.5 -41.5 c 128,-1,5
 300 0 300 0 372 27 c 1,6,-1
 392 -12 l 1,7,8
 286 -12 286 -12 209.5 26.5 c 128,-1,9
 133 65 133 65 92 133.5 c 128,-1,10
 51 202 51 202 51 292 c 256,11,12
 51 382 51 382 82 458.5 c 128,-1,13
 113 535 113 535 170.5 591.5 c 128,-1,14
 228 648 228 648 307.5 680 c 128,-1,15
 387 712 387 712 484 712 c 0,16,17
 590 712 590 712 666.5 673.5 c 128,-1,18
 743 635 743 635 784 566.5 c 128,-1,19
 825 498 825 498 825 408 c 0,20,21
 825 304 825 304 783.5 218 c 128,-1,22
 742 132 742 132 667 75 c 128,-1,23
 592 18 592 18 491 -2 c 0,24,25
 429 -15 429 -15 393.5 -33.5 c 128,-1,26
 358 -52 358 -52 343 -72 c 128,-1,27
 328 -92 328 -92 328 -111 c 0,28,29
 328 -131 328 -131 341.5 -142 c 128,-1,30
 355 -153 355 -153 377 -153 c 0,31,32
 394 -153 394 -153 410.5 -148.5 c 128,-1,33
 427 -144 427 -144 440 -138 c 1,34,-1
 452 -209 l 1,35,36
 432 -219 432 -219 406.5 -225.5 c 128,-1,37
 381 -232 381 -232 351 -232 c 0,0,1
406 126 m 0,38,39
 465 126 465 126 512.5 147.5 c 128,-1,40
 560 169 560 169 593 207 c 128,-1,41
 626 245 626 245 643.5 294.5 c 128,-1,42
 661 344 661 344 661 399 c 0,43,44
 661 451 661 451 639 490.5 c 128,-1,45
 617 530 617 530 574.5 552 c 128,-1,46
 532 574 532 574 470 574 c 0,47,48
 411 574 411 574 364 552.5 c 128,-1,49
 317 531 317 531 283.5 493 c 128,-1,50
 250 455 250 455 232.5 405.5 c 128,-1,51
 215 356 215 356 215 301 c 0,52,53
 215 249 215 249 237.5 209.5 c 128,-1,54
 260 170 260 170 302.5 148 c 128,-1,55
 345 126 345 126 406 126 c 0,38,39
EndSplineSet
Substitution2: "'c2sc' Capitals to Small Capitals lookup 48 subtable" uni01EB.sc
Substitution2: "'locl' Localized Forms in Latin lookup 18 subtable" uni01EA.loclNAV
AlternateSubs2: "'aalt' Access All Alternates lookup 4 subtable" uni01EA.loclNAV uni01EB.sc
EndChar

StartChar: uni0186
Encoding: 390 390 238
Width: 733
GlyphClass: 2
Flags: W
AnchorPoint: "Anchor-3" 421 700 basechar 0
AnchorPoint: "Anchor-2" 368 0 basechar 0
AnchorPoint: "Anchor-0" 281 0 basechar 0
LayerCount: 2
Fore
SplineSet
368 712 m 0,0,1
 476 712 476 712 553.5 673.5 c 128,-1,2
 631 635 631 635 672.5 566.5 c 128,-1,3
 714 498 714 498 714 408 c 0,4,5
 714 319 714 319 683 242 c 128,-1,6
 652 165 652 165 594.5 108.5 c 128,-1,7
 537 52 537 52 457 20 c 128,-1,8
 377 -12 377 -12 279 -12 c 0,9,10
 187 -12 187 -12 114.5 20 c 128,-1,11
 42 52 42 52 5 112 c 1,12,-1
 122 208 l 1,13,14
 149 168 149 168 190.5 147 c 128,-1,15
 232 126 232 126 290 126 c 0,16,17
 350 126 350 126 398 146.5 c 128,-1,18
 446 167 446 167 480 204.5 c 128,-1,19
 514 242 514 242 532 292 c 128,-1,20
 550 342 550 342 550 398 c 0,21,22
 550 451 550 451 527.5 490.5 c 128,-1,23
 505 530 505 530 461.5 552 c 128,-1,24
 418 574 418 574 354 574 c 0,25,26
 301 574 301 574 254 554.5 c 128,-1,27
 207 535 207 535 168 493 c 1,28,-1
 73 591 l 1,29,30
 128 656 128 656 203.5 684 c 128,-1,31
 279 712 279 712 368 712 c 0,0,1
EndSplineSet
Substitution2: "'c2sc' Capitals to Small Capitals lookup 48 subtable" uni0254.sc
Substitution2: "'aalt' Access All Alternates lookup 3 subtable" uni0254.sc
EndChar

StartChar: OE
Encoding: 338 338 245
Width: 1136
GlyphClass: 2
Flags: W
AnchorPoint: "Anchor-3" 714 700 basechar 0
AnchorPoint: "Anchor-0" 574 0 basechar 0
LayerCount: 2
Fore
SplineSet
396 0 m 2,0,1
 289 0 289 0 211.5 35.5 c 128,-1,2
 134 71 134 71 92.5 137 c 128,-1,3
 51 203 51 203 51 292 c 0,4,5
 51 385 51 385 82.5 460 c 128,-1,6
 114 535 114 535 172 588.5 c 128,-1,7
 230 642 230 642 310 671 c 128,-1,8
 390 700 390 700 487 700 c 2,9,-1
 676 700 l 1,10,-1
 650 567 l 1,11,-1
 482 567 l 2,12,13
 399 567 399 567 338.5 532 c 128,-1,14
 278 497 278 497 246.5 437 c 128,-1,15
 215 377 215 377 215 301 c 0,16,17
 215 249 215 249 237.5 211.5 c 128,-1,18
 260 174 260 174 304 153.5 c 128,-1,19
 348 133 348 133 414 133 c 2,20,-1
 561 133 l 1,21,-1
 536 0 l 1,22,-1
 396 0 l 2,0,1
494 0 m 1,23,-1
 634 700 l 1,24,-1
 1163 700 l 1,25,-1
 1137 570 l 1,26,-1
 769 570 l 1,27,-1
 681 130 l 1,28,-1
 1063 130 l 1,29,-1
 1036 0 l 1,30,-1
 494 0 l 1,23,-1
702 292 m 1,31,-1
 727 418 l 1,32,-1
 1064 418 l 1,33,-1
 1039 292 l 1,34,-1
 702 292 l 1,31,-1
EndSplineSet
Substitution2: "'c2sc' Capitals to Small Capitals lookup 48 subtable" oe.sc
Substitution2: "'aalt' Access All Alternates lookup 3 subtable" oe.sc
EndChar

StartChar: P
Encoding: 80 80 246
Width: 732
GlyphClass: 2
Flags: W
AnchorPoint: "Anchor-3" 452 700 basechar 0
AnchorPoint: "Anchor-0" 312 0 basechar 0
LayerCount: 2
Fore
SplineSet
29 0 m 1,0,-1
 169 700 l 1,1,-1
 452 700 l 2,2,3
 583 700 583 700 654.5 642.5 c 128,-1,4
 726 585 726 585 726 482 c 0,5,6
 726 394 726 394 685 328.5 c 128,-1,7
 644 263 644 263 567.5 228 c 128,-1,8
 491 193 491 193 386 193 c 2,9,-1
 159 193 l 1,10,-1
 245 267 l 1,11,-1
 192 0 l 1,12,-1
 29 0 l 1,0,-1
241 248 m 1,13,-1
 184 325 l 1,14,-1
 393 325 l 2,15,16
 473 325 473 325 517.5 361.5 c 128,-1,17
 562 398 562 398 562 468 c 0,18,19
 562 519 562 519 528 543.5 c 128,-1,20
 494 568 494 568 432 568 c 2,21,-1
 235 568 l 1,22,-1
 321 647 l 1,23,-1
 241 248 l 1,13,-1
EndSplineSet
Substitution2: "'c2sc' Capitals to Small Capitals lookup 48 subtable" p.sc
Substitution2: "'aalt' Access All Alternates lookup 3 subtable" p.sc
EndChar

StartChar: uni01A4
Encoding: 420 420 249
Width: 936
GlyphClass: 2
Flags: W
AnchorPoint: "Anchor-3" 657 700 basechar 0
AnchorPoint: "Anchor-0" 517 0 basechar 0
LayerCount: 2
Fore
SplineSet
108 350 m 1,0,1
 74 411 74 411 71.5 472.5 c 128,-1,2
 69 534 69 534 94.5 586 c 128,-1,3
 120 638 120 638 170.5 669 c 128,-1,4
 221 700 221 700 293 700 c 2,5,-1
 381 700 l 1,6,-1
 355 568 l 1,7,-1
 299 568 l 2,8,9
 263 568 263 568 242 545 c 128,-1,10
 221 522 221 522 220 487.5 c 128,-1,11
 219 453 219 453 240 418 c 1,12,-1
 108 350 l 1,0,1
234 0 m 1,13,-1
 374 700 l 1,14,-1
 657 700 l 2,15,16
 788 700 788 700 859.5 642.5 c 128,-1,17
 931 585 931 585 931 482 c 0,18,19
 931 394 931 394 889.5 328.5 c 128,-1,20
 848 263 848 263 771.5 228 c 128,-1,21
 695 193 695 193 591 193 c 2,22,-1
 363 193 l 1,23,-1
 450 267 l 1,24,-1
 396 0 l 1,25,-1
 234 0 l 1,13,-1
446 248 m 1,26,-1
 389 325 l 1,27,-1
 598 325 l 2,28,29
 678 325 678 325 722.5 361.5 c 128,-1,30
 767 398 767 398 767 468 c 0,31,32
 767 519 767 519 733 543.5 c 128,-1,33
 699 568 699 568 637 568 c 2,34,-1
 439 568 l 1,35,-1
 526 647 l 1,36,-1
 446 248 l 1,26,-1
EndSplineSet
Substitution2: "'c2sc' Capitals to Small Capitals lookup 48 subtable" uni01A5.sc
Substitution2: "'aalt' Access All Alternates lookup 3 subtable" uni01A5.sc
EndChar

StartChar: Thorn
Encoding: 222 222 250
Width: 732
GlyphClass: 2
Flags: W
AnchorPoint: "Anchor-3" 452 700 basechar 0
AnchorPoint: "Anchor-0" 312 0 basechar 0
LayerCount: 2
Fore
SplineSet
181 116 m 1,0,-1
 206 248 l 1,1,-1
 378 248 l 2,2,3
 458 248 458 248 502.5 284.5 c 128,-1,4
 547 321 547 321 547 390 c 0,5,6
 547 442 547 442 513 466.5 c 128,-1,7
 479 491 479 491 417 491 c 2,8,-1
 256 491 l 1,9,-1
 281 623 l 1,10,-1
 440 623 l 2,11,12
 569 623 569 623 640 566 c 128,-1,13
 711 509 711 509 711 405 c 0,14,15
 711 317 711 317 670 251.5 c 128,-1,16
 629 186 629 186 552.5 151 c 128,-1,17
 476 116 476 116 371 116 c 2,18,-1
 181 116 l 1,0,-1
29 0 m 1,19,-1
 169 700 l 1,20,-1
 332 700 l 1,21,-1
 192 0 l 1,22,-1
 29 0 l 1,19,-1
EndSplineSet
Substitution2: "'c2sc' Capitals to Small Capitals lookup 48 subtable" thorn.sc
Substitution2: "'aalt' Access All Alternates lookup 3 subtable" thorn.sc
EndChar

StartChar: uni2C63
Encoding: 11363 11363 251
Width: 738
GlyphClass: 2
Flags: W
LayerCount: 2
Fore
SplineSet
35 0 m 1,0,-1
 175 700 l 1,1,-1
 458 700 l 2,2,3
 589 700 589 700 661 642.5 c 128,-1,4
 733 585 733 585 733 482 c 0,5,6
 733 394 733 394 691.5 328.5 c 128,-1,7
 650 263 650 263 573.5 228 c 128,-1,8
 497 193 497 193 393 193 c 2,9,-1
 165 193 l 1,10,-1
 252 267 l 1,11,-1
 198 0 l 1,12,-1
 35 0 l 1,0,-1
26 394 m 1,13,-1
 47 501 l 1,14,-1
 426 501 l 1,15,-1
 405 394 l 1,16,-1
 26 394 l 1,13,-1
247 248 m 1,17,-1
 190 321 l 1,18,-1
 399 321 l 2,19,20
 480 321 480 321 524.5 359.5 c 128,-1,21
 569 398 569 398 569 468 c 0,22,23
 569 522 569 522 534.5 547 c 128,-1,24
 500 572 500 572 438 572 c 2,25,-1
 241 572 l 1,26,-1
 327 647 l 1,27,-1
 247 248 l 1,17,-1
EndSplineSet
Substitution2: "'c2sc' Capitals to Small Capitals lookup 48 subtable" uni1D7D.sc
Substitution2: "'aalt' Access All Alternates lookup 3 subtable" uni1D7D.sc
EndChar

StartChar: Q
Encoding: 81 81 252
Width: 844
GlyphClass: 2
Flags: W
AnchorPoint: "Anchor-3" 509 700 basechar 0
LayerCount: 2
Fore
SplineSet
392 -12 m 0,0,1
 286 -12 286 -12 209.5 26.5 c 128,-1,2
 133 65 133 65 92 133.5 c 128,-1,3
 51 202 51 202 51 292 c 256,4,5
 51 382 51 382 82 458.5 c 128,-1,6
 113 535 113 535 170.5 591.5 c 128,-1,7
 228 648 228 648 307.5 680 c 128,-1,8
 387 712 387 712 484 712 c 0,9,10
 590 712 590 712 666.5 673.5 c 128,-1,11
 743 635 743 635 784 566.5 c 128,-1,12
 825 498 825 498 825 408 c 256,13,14
 825 318 825 318 794 241.5 c 128,-1,15
 763 165 763 165 705.5 108.5 c 128,-1,16
 648 52 648 52 568.5 20 c 128,-1,17
 489 -12 489 -12 392 -12 c 0,0,1
588 -161 m 0,18,19
 491 -161 491 -161 419.5 -115 c 128,-1,20
 348 -69 348 -69 300 22 c 1,21,-1
 478 58 l 1,22,23
 499 3 499 3 528 -19 c 128,-1,24
 557 -41 557 -41 598 -41 c 0,25,26
 630 -41 630 -41 660.5 -28 c 128,-1,27
 691 -15 691 -15 716 8 c 1,28,-1
 777 -89 l 1,29,30
 743 -125 743 -125 693.5 -143 c 128,-1,31
 644 -161 644 -161 588 -161 c 0,18,19
406 126 m 0,32,33
 465 126 465 126 512.5 147.5 c 128,-1,34
 560 169 560 169 593 207 c 128,-1,35
 626 245 626 245 643.5 294.5 c 128,-1,36
 661 344 661 344 661 399 c 0,37,38
 661 451 661 451 639 490.5 c 128,-1,39
 617 530 617 530 574.5 552 c 128,-1,40
 532 574 532 574 470 574 c 0,41,42
 411 574 411 574 364 552.5 c 128,-1,43
 317 531 317 531 283.5 493 c 128,-1,44
 250 455 250 455 232.5 405.5 c 128,-1,45
 215 356 215 356 215 301 c 0,46,47
 215 249 215 249 237.5 209.5 c 128,-1,48
 260 170 260 170 302.5 148 c 128,-1,49
 345 126 345 126 406 126 c 0,32,33
EndSplineSet
Substitution2: "'ss01' Style Set 1 lookup 53 subtable" Q.ss01
Substitution2: "'c2sc' Capitals to Small Capitals lookup 48 subtable" q.sc
AlternateSubs2: "'aalt' Access All Alternates lookup 4 subtable" q.sc Q.ss01
EndChar

StartChar: uni024A
Encoding: 586 586 253
Width: 891
GlyphClass: 2
Flags: W
AnchorPoint: "Anchor-4" 707 700 basechar 0
AnchorPoint: "Anchor-3" 513 700 basechar 0
AnchorPoint: "Anchor-2" 471 0 basechar 0
AnchorPoint: "Anchor-1" 443 350 basechar 0
AnchorPoint: "Anchor-0" 373 0 basechar 0
LayerCount: 2
Fore
SplineSet
365 -11 m 0,0,1
 273 -11 273 -11 203 28.5 c 128,-1,2
 133 68 133 68 93.5 139.5 c 128,-1,3
 54 211 54 211 54 304 c 0,4,5
 54 389 54 389 86 463 c 128,-1,6
 118 537 118 537 175 593 c 128,-1,7
 232 649 232 649 307 680.5 c 128,-1,8
 382 712 382 712 469 712 c 0,9,10
 572 712 572 712 639 666 c 128,-1,11
 706 620 706 620 731 535.5 c 128,-1,12
 756 451 756 451 733 334 c 0,13,14
 712 226 712 226 660.5 148.5 c 128,-1,15
 609 71 609 71 534 30 c 128,-1,16
 459 -11 459 -11 365 -11 c 0,0,1
401 126 m 0,17,18
 467 126 467 126 522 154.5 c 128,-1,19
 577 183 577 183 614.5 233.5 c 128,-1,20
 652 284 652 284 663 349 c 256,21,22
 674 414 674 414 654 465 c 128,-1,23
 634 516 634 516 588.5 545 c 128,-1,24
 543 574 543 574 477 574 c 0,25,26
 422 574 422 574 375 554 c 128,-1,27
 328 534 328 534 292.5 498.5 c 128,-1,28
 257 463 257 463 237.5 415 c 128,-1,29
 218 367 218 367 218 312 c 0,30,31
 218 225 218 225 267.5 175.5 c 128,-1,32
 317 126 317 126 401 126 c 0,17,18
853 -190 m 1,33,34
 799 -206 799 -206 747.5 -202.5 c 128,-1,35
 696 -199 696 -199 657 -176 c 128,-1,36
 618 -153 618 -153 599.5 -111.5 c 128,-1,37
 581 -70 581 -70 593 -9 c 2,38,-1
 629 169 l 1,39,-1
 672 352 l 1,40,-1
 695 535 l 1,41,-1
 728 700 l 1,42,-1
 890 700 l 1,43,-1
 749 -5 l 2,44,45
 743 -35 743 -35 754.5 -53 c 128,-1,46
 766 -71 766 -71 790.5 -76 c 128,-1,47
 815 -81 815 -81 846 -73 c 1,48,-1
 853 -190 l 1,33,34
EndSplineSet
Substitution2: "'c2sc' Capitals to Small Capitals lookup 48 subtable" uni024B.sc
Substitution2: "'aalt' Access All Alternates lookup 3 subtable" uni024B.sc
EndChar

StartChar: R
Encoding: 82 82 254
Width: 735
GlyphClass: 2
Flags: W
AnchorPoint: "Anchor-3" 460 700 basechar 0
AnchorPoint: "Anchor-0" 320 0 basechar 0
LayerCount: 2
Fore
SplineSet
29 0 m 1,0,-1
 169 700 l 1,1,-1
 454 700 l 2,2,3
 585 700 585 700 656.5 643 c 128,-1,4
 728 586 728 586 728 483 c 0,5,6
 728 395 728 395 686.5 330.5 c 128,-1,7
 645 266 645 266 568.5 231 c 128,-1,8
 492 196 492 196 388 196 c 2,9,-1
 160 196 l 1,10,-1
 245 267 l 1,11,-1
 192 0 l 1,12,-1
 29 0 l 1,0,-1
479 0 m 1,13,-1
 336 254 l 1,14,-1
 506 254 l 1,15,-1
 650 0 l 1,16,-1
 479 0 l 1,13,-1
241 248 m 1,17,-1
 185 325 l 1,18,-1
 394 325 l 2,19,20
 475 325 475 325 519.5 361.5 c 128,-1,21
 564 398 564 398 564 468 c 0,22,23
 564 519 564 519 529.5 543.5 c 128,-1,24
 495 568 495 568 433 568 c 2,25,-1
 236 568 l 1,26,-1
 321 647 l 1,27,-1
 241 248 l 1,17,-1
EndSplineSet
Substitution2: "'c2sc' Capitals to Small Capitals lookup 48 subtable" r.sc
Substitution2: "'aalt' Access All Alternates lookup 3 subtable" r.sc
EndChar

StartChar: uni024C
Encoding: 588 588 264
Width: 735
GlyphClass: 2
Flags: W
AnchorPoint: "Anchor-3" 460 700 basechar 0
AnchorPoint: "Anchor-0" 320 0 basechar 0
LayerCount: 2
Fore
SplineSet
29 0 m 1,0,-1
 169 700 l 1,1,-1
 454 700 l 2,2,3
 585 700 585 700 656.5 643 c 128,-1,4
 728 586 728 586 728 483 c 0,5,6
 728 395 728 395 686.5 330.5 c 128,-1,7
 645 266 645 266 568.5 231 c 128,-1,8
 492 196 492 196 388 196 c 2,9,-1
 160 196 l 1,10,-1
 245 267 l 1,11,-1
 192 0 l 1,12,-1
 29 0 l 1,0,-1
479 0 m 1,13,-1
 336 254 l 1,14,-1
 506 254 l 1,15,-1
 650 0 l 1,16,-1
 479 0 l 1,13,-1
241 248 m 1,17,-1
 185 325 l 1,18,-1
 394 325 l 2,19,20
 475 325 475 325 519.5 361.5 c 128,-1,21
 564 398 564 398 564 468 c 0,22,23
 564 519 564 519 529.5 543.5 c 128,-1,24
 495 568 495 568 433 568 c 2,25,-1
 236 568 l 1,26,-1
 321 647 l 1,27,-1
 241 248 l 1,17,-1
-16 217 m 1,28,-1
 5 325 l 1,29,-1
 349 325 l 1,30,-1
 330 217 l 1,31,-1
 -16 217 l 1,28,-1
EndSplineSet
Substitution2: "'c2sc' Capitals to Small Capitals lookup 48 subtable" uni024D.sc
Substitution2: "'aalt' Access All Alternates lookup 3 subtable" uni024D.sc
EndChar

StartChar: uni2C64
Encoding: 11364 11364 265
Width: 744
GlyphClass: 2
Flags: W
AnchorPoint: "Anchor-3" 466 700 basechar 0
AnchorPoint: "Anchor-0" 326 0 basechar 0
LayerCount: 2
Fore
SplineSet
318 -184 m 1,0,1
 274 -199 274 -199 228.5 -201.5 c 128,-1,2
 183 -204 183 -204 143.5 -194 c 128,-1,3
 104 -184 104 -184 75.5 -160 c 128,-1,4
 47 -136 47 -136 34.5 -97.5 c 128,-1,5
 22 -59 22 -59 33 -7 c 2,6,-1
 174 700 l 1,7,-1
 459 700 l 2,8,9
 590 700 590 700 661 643 c 128,-1,10
 732 586 732 586 732 483 c 0,11,12
 732 395 732 395 691 330.5 c 128,-1,13
 650 266 650 266 573.5 231 c 128,-1,14
 497 196 497 196 392 196 c 2,15,-1
 165 196 l 1,16,-1
 250 267 l 1,17,-1
 196 -5 l 2,18,19
 191 -29 191 -29 197.5 -45 c 128,-1,20
 204 -61 204 -61 218.5 -69 c 128,-1,21
 233 -77 233 -77 255.5 -76.5 c 128,-1,22
 278 -76 278 -76 306 -68 c 1,23,-1
 318 -184 l 1,0,1
484 0 m 1,24,-1
 341 254 l 1,25,-1
 511 254 l 1,26,-1
 655 0 l 1,27,-1
 484 0 l 1,24,-1
246 248 m 1,28,-1
 190 325 l 1,29,-1
 399 325 l 2,30,31
 479 325 479 325 523.5 361.5 c 128,-1,32
 568 398 568 398 568 468 c 0,33,34
 568 519 568 519 534 543.5 c 128,-1,35
 500 568 500 568 438 568 c 2,36,-1
 241 568 l 1,37,-1
 326 647 l 1,38,-1
 246 248 l 1,28,-1
EndSplineSet
Substitution2: "'c2sc' Capitals to Small Capitals lookup 48 subtable" uni027D.sc
Substitution2: "'aalt' Access All Alternates lookup 3 subtable" uni027D.sc
EndChar

StartChar: S
Encoding: 83 83 266
Width: 638
GlyphClass: 2
Flags: W
AnchorPoint: "Anchor-3" 410 700 basechar 0
AnchorPoint: "Anchor-1" 341 350 basechar 0
AnchorPoint: "Anchor-0" 270 0 basechar 0
LayerCount: 2
Fore
SplineSet
273 -12 m 0,0,1
 216 -12 216 -12 162.5 -1.5 c 128,-1,2
 109 9 109 9 65.5 27 c 128,-1,3
 22 45 22 45 -8 66 c 1,4,-1
 58 191 l 1,5,6
 91 168 91 168 128.5 151.5 c 128,-1,7
 166 135 166 135 207 126.5 c 128,-1,8
 248 118 248 118 289 118 c 0,9,10
 334 118 334 118 366.5 128 c 128,-1,11
 399 138 399 138 416.5 156 c 128,-1,12
 434 174 434 174 434 200 c 0,13,14
 434 224 434 224 415 239 c 128,-1,15
 396 254 396 254 365.5 264.5 c 128,-1,16
 335 275 335 275 298 285 c 128,-1,17
 261 295 261 295 223.5 308.5 c 128,-1,18
 186 322 186 322 155.5 342.5 c 128,-1,19
 125 363 125 363 106 395 c 128,-1,20
 87 427 87 427 87 475 c 0,21,22
 87 547 87 547 126.5 600 c 128,-1,23
 166 653 166 653 238 682.5 c 128,-1,24
 310 712 310 712 407 712 c 0,25,26
 478 712 478 712 541 696.5 c 128,-1,27
 604 681 604 681 649 652 c 1,28,-1
 588 528 l 1,29,30
 548 555 548 555 499 568.5 c 128,-1,31
 450 582 450 582 398 582 c 0,32,33
 351 582 351 582 317.5 571 c 128,-1,34
 284 560 284 560 266.5 540.5 c 128,-1,35
 249 521 249 521 249 496 c 256,36,37
 249 471 249 471 267.5 455.5 c 128,-1,38
 286 440 286 440 317 429.5 c 128,-1,39
 348 419 348 419 385 409 c 128,-1,40
 422 399 422 399 459 386 c 128,-1,41
 496 373 496 373 527 353 c 128,-1,42
 558 333 558 333 577 302.5 c 128,-1,43
 596 272 596 272 596 226 c 0,44,45
 596 154 596 154 556 100.5 c 128,-1,46
 516 47 516 47 443.5 17.5 c 128,-1,47
 371 -12 371 -12 273 -12 c 0,0,1
EndSplineSet
Substitution2: "'c2sc' Capitals to Small Capitals lookup 48 subtable" s.sc
Substitution2: "'aalt' Access All Alternates lookup 3 subtable" s.sc
EndChar

StartChar: uni1E9E
Encoding: 7838 7838 277
Width: 770
GlyphClass: 2
Flags: W
AnchorPoint: "Anchor-3" 483 700 basechar 0
AnchorPoint: "Anchor-0" 343 0 basechar 0
LayerCount: 2
Fore
SplineSet
435 -12 m 0,0,1
 393 -12 393 -12 349 -4.5 c 128,-1,2
 305 3 305 3 276 15 c 1,3,-1
 318 139 l 1,4,5
 340 130 340 130 369 124 c 128,-1,6
 398 118 398 118 432 118 c 0,7,8
 469 118 469 118 497 131 c 128,-1,9
 525 144 525 144 540 168 c 128,-1,10
 555 192 555 192 555 224 c 0,11,12
 555 263 555 263 527.5 284.5 c 128,-1,13
 500 306 500 306 450 306 c 0,14,15
 433 306 433 306 415 303.5 c 128,-1,16
 397 301 397 301 381 296 c 1,17,-1
 366 367 l 1,18,-1
 643 632 l 1,19,-1
 639 527 l 1,20,21
 606 553 606 553 565 567.5 c 128,-1,22
 524 582 524 582 472 582 c 0,23,24
 382 582 382 582 328 536.5 c 128,-1,25
 274 491 274 491 256 399 c 2,26,-1
 177 0 l 1,27,-1
 15 0 l 1,28,-1
 96 407 l 2,29,30
 127 560 127 560 223.5 636 c 128,-1,31
 320 712 320 712 486 712 c 0,32,33
 531 712 531 712 576.5 704 c 128,-1,34
 622 696 622 696 663 680.5 c 128,-1,35
 704 665 704 665 734 643 c 1,36,-1
 715 545 l 1,37,-1
 488 327 l 1,38,-1
 432 410 l 1,39,40
 451 415 451 415 469 417 c 128,-1,41
 487 419 487 419 503 419 c 0,42,43
 566 419 566 419 615 395.5 c 128,-1,44
 664 372 664 372 691.5 330 c 128,-1,45
 719 288 719 288 719 231 c 0,46,47
 719 160 719 160 684 105 c 128,-1,48
 649 50 649 50 585.5 19 c 128,-1,49
 522 -12 522 -12 435 -12 c 0,0,1
EndSplineSet
Substitution2: "'c2sc' Capitals to Small Capitals lookup 48 subtable" germandbls.sc
Substitution2: "'aalt' Access All Alternates lookup 3 subtable" germandbls.sc
EndChar

StartChar: uniA7A8
Encoding: 42920 42920 278
Width: 638
GlyphClass: 1
Flags: W
LayerCount: 2
Fore
SplineSet
273 -12 m 0,0,1
 216 -12 216 -12 162.5 -1.5 c 128,-1,2
 109 9 109 9 65.5 27 c 128,-1,3
 22 45 22 45 -8 66 c 1,4,-1
 58 187 l 1,5,6
 91 163 91 163 128.5 147 c 128,-1,7
 166 131 166 131 207 122.5 c 128,-1,8
 248 114 248 114 289 114 c 0,9,10
 334 114 334 114 366.5 124 c 128,-1,11
 399 134 399 134 416.5 153 c 128,-1,12
 434 172 434 172 434 200 c 0,13,14
 434 224 434 224 415 239 c 128,-1,15
 396 254 396 254 365.5 264.5 c 128,-1,16
 335 275 335 275 298 285 c 128,-1,17
 261 295 261 295 223.5 308.5 c 128,-1,18
 186 322 186 322 155.5 342.5 c 128,-1,19
 125 363 125 363 106 395 c 128,-1,20
 87 427 87 427 87 475 c 0,21,22
 87 547 87 547 126.5 600 c 128,-1,23
 166 653 166 653 238 682.5 c 128,-1,24
 310 712 310 712 407 712 c 0,25,26
 478 712 478 712 541 696.5 c 128,-1,27
 604 681 604 681 649 652 c 1,28,-1
 588 532 l 1,29,30
 548 559 548 559 499 572.5 c 128,-1,31
 450 586 450 586 398 586 c 0,32,33
 351 586 351 586 317.5 574.5 c 128,-1,34
 284 563 284 563 266.5 543 c 128,-1,35
 249 523 249 523 249 496 c 0,36,37
 249 471 249 471 267.5 455.5 c 128,-1,38
 286 440 286 440 317 429.5 c 128,-1,39
 348 419 348 419 385 409 c 128,-1,40
 422 399 422 399 459 386 c 128,-1,41
 496 373 496 373 527 353 c 128,-1,42
 558 333 558 333 577 302.5 c 128,-1,43
 596 272 596 272 596 226 c 0,44,45
 596 154 596 154 556 100.5 c 128,-1,46
 516 47 516 47 443.5 17.5 c 128,-1,47
 371 -12 371 -12 273 -12 c 0,0,1
256 169 m 1,48,-1
 182 219 l 1,49,-1
 402 528 l 1,50,-1
 474 481 l 1,51,-1
 256 169 l 1,48,-1
EndSplineSet
Substitution2: "'c2sc' Capitals to Small Capitals lookup 48 subtable" uniA7A9.sc
Substitution2: "'aalt' Access All Alternates lookup 3 subtable" uniA7A9.sc
EndChar

StartChar: T
Encoding: 84 84 279
Width: 618
GlyphClass: 2
Flags: W
AnchorPoint: "Anchor-3" 395 700 basechar 0
AnchorPoint: "Anchor-1" 325 351 basechar 0
AnchorPoint: "Anchor-0" 255 0 basechar 0
LayerCount: 2
Fore
SplineSet
174 0 m 1,0,-1
 287 568 l 1,1,-1
 63 568 l 1,2,-1
 90 700 l 1,3,-1
 700 700 l 1,4,-1
 673 568 l 1,5,-1
 450 568 l 1,6,-1
 336 0 l 1,7,-1
 174 0 l 1,0,-1
EndSplineSet
Substitution2: "'ss01' Style Set 1 lookup 53 subtable" T.ss01
Substitution2: "'c2sc' Capitals to Small Capitals lookup 48 subtable" t.sc
AlternateSubs2: "'aalt' Access All Alternates lookup 4 subtable" t.sc T.ss01
EndChar

StartChar: Tbar
Encoding: 358 358 280
Width: 618
GlyphClass: 1
Flags: W
LayerCount: 2
Fore
SplineSet
174 0 m 1,0,-1
 288 568 l 1,1,-1
 64 568 l 1,2,-1
 91 700 l 1,3,-1
 700 700 l 1,4,-1
 674 568 l 1,5,-1
 450 568 l 1,6,-1
 337 0 l 1,7,-1
 174 0 l 1,0,-1
98 287 m 1,8,-1
 119 395 l 1,9,-1
 550 395 l 1,10,-1
 530 287 l 1,11,-1
 98 287 l 1,8,-1
EndSplineSet
Substitution2: "'ss01' Style Set 1 lookup 53 subtable" Tbar.ss01
Substitution2: "'c2sc' Capitals to Small Capitals lookup 48 subtable" tbar.sc
AlternateSubs2: "'aalt' Access All Alternates lookup 4 subtable" tbar.sc Tbar.ss01
EndChar

StartChar: uni023E
Encoding: 574 574 285
Width: 615
GlyphClass: 1
Flags: W
LayerCount: 2
Fore
SplineSet
39 -70 m 1,0,-1
 592 770 l 1,1,-1
 690 770 l 1,2,-1
 137 -70 l 1,3,-1
 39 -70 l 1,0,-1
177 0 m 1,4,-1
 291 568 l 1,5,-1
 63 568 l 1,6,-1
 90 700 l 1,7,-1
 697 700 l 1,8,-1
 671 568 l 1,9,-1
 443 568 l 1,10,-1
 330 0 l 1,11,-1
 177 0 l 1,4,-1
EndSplineSet
Substitution2: "'ss01' Style Set 1 lookup 53 subtable" uni023E.ss01
Substitution2: "'c2sc' Capitals to Small Capitals lookup 48 subtable" uni2C66.sc
AlternateSubs2: "'aalt' Access All Alternates lookup 4 subtable" uni2C66.sc uni023E.ss01
Substitution2: "'rvrn' Required Variation Alternates lookup 1 subtable" uni023E.BRACKET.varAlt01
Substitution2: "'rvrn' Required Variation Alternates lookup 0 subtable" uni023E.BRACKET.varAlt01
EndChar

StartChar: uni01AC
Encoding: 428 428 288
Width: 711
GlyphClass: 2
Flags: W
AnchorPoint: "Anchor-3" 488 700 basechar 0
AnchorPoint: "Anchor-1" 413 328 basechar 0
AnchorPoint: "Anchor-0" 348 0 basechar 0
LayerCount: 2
Fore
SplineSet
267 0 m 1,0,-1
 380 568 l 1,1,-1
 290 568 l 1,2,-1
 311 700 l 1,3,-1
 793 700 l 1,4,-1
 766 568 l 1,5,-1
 543 568 l 1,6,-1
 429 0 l 1,7,-1
 267 0 l 1,0,-1
103 363 m 1,8,9
 69 426 69 426 70 486 c 128,-1,10
 71 546 71 546 101 594.5 c 128,-1,11
 131 643 131 643 185 671.5 c 128,-1,12
 239 700 239 700 311 700 c 2,13,-1
 345 700 l 1,14,-1
 319 568 l 1,15,-1
 290 568 l 2,16,17
 249 568 249 568 225.5 545.5 c 128,-1,18
 202 523 202 523 200.5 487.5 c 128,-1,19
 199 452 199 452 222 412 c 1,20,-1
 103 363 l 1,8,9
EndSplineSet
Substitution2: "'ss01' Style Set 1 lookup 53 subtable" uni01AC.ss01
Substitution2: "'c2sc' Capitals to Small Capitals lookup 48 subtable" uni01AD.sc
AlternateSubs2: "'aalt' Access All Alternates lookup 4 subtable" uni01AD.sc uni01AC.ss01
EndChar

StartChar: uni01AE
Encoding: 430 430 290
Width: 617
GlyphClass: 2
Flags: W
AnchorPoint: "Anchor-3" 395 700 basechar 0
AnchorPoint: "Anchor-1" 320 328 basechar 0
AnchorPoint: "Anchor-0" 255 0 basechar 0
LayerCount: 2
Fore
SplineSet
457 -184 m 1,0,1
 412 -199 412 -199 367 -201.5 c 128,-1,2
 322 -204 322 -204 282.5 -194 c 128,-1,3
 243 -184 243 -184 214 -160.5 c 128,-1,4
 185 -137 185 -137 173 -98.5 c 128,-1,5
 161 -60 161 -60 172 -9 c 2,6,-1
 287 568 l 1,7,-1
 63 568 l 1,8,-1
 90 700 l 1,9,-1
 700 700 l 1,10,-1
 673 568 l 1,11,-1
 450 568 l 1,12,-1
 334 -5 l 2,13,14
 329 -29 329 -29 335.5 -45 c 128,-1,15
 342 -61 342 -61 357 -69 c 128,-1,16
 372 -77 372 -77 394.5 -76.5 c 128,-1,17
 417 -76 417 -76 444 -68 c 1,18,-1
 457 -184 l 1,0,1
EndSplineSet
Substitution2: "'ss01' Style Set 1 lookup 53 subtable" uni01AE.ss01
Substitution2: "'c2sc' Capitals to Small Capitals lookup 48 subtable" uni0288.sc
AlternateSubs2: "'aalt' Access All Alternates lookup 4 subtable" uni0288.sc uni01AE.ss01
EndChar

StartChar: uniA7B1
Encoding: 42929 42929 291
Width: 618
GlyphClass: 2
Flags: W
AnchorPoint: "Anchor-3" 395 700 basechar 0
AnchorPoint: "Anchor-1" 325 349 basechar 0
AnchorPoint: "Anchor-0" 255 0 basechar 0
LayerCount: 2
Fore
SplineSet
-50 0 m 1,0,-1
 -23 132 l 1,1,-1
 201 132 l 1,2,-1
 314 700 l 1,3,-1
 476 700 l 1,4,-1
 363 132 l 1,5,-1
 587 132 l 1,6,-1
 560 0 l 1,7,-1
 -50 0 l 1,0,-1
EndSplineSet
Substitution2: "'ss01' Style Set 1 lookup 53 subtable" uniA7B1.ss01
Substitution2: "'c2sc' Capitals to Small Capitals lookup 48 subtable" uni0287.sc
AlternateSubs2: "'aalt' Access All Alternates lookup 4 subtable" uni0287.sc uniA7B1.ss01
EndChar

StartChar: U
Encoding: 85 85 292
Width: 770
GlyphClass: 2
Flags: W
AnchorPoint: "Anchor-4" 728 700 basechar 0
AnchorPoint: "Anchor-3" 472 700 basechar 0
AnchorPoint: "Anchor-2" 545 0 basechar 0
AnchorPoint: "Anchor-0" 332 0 basechar 0
LayerCount: 2
Fore
SplineSet
351 -12 m 0,0,1
 248 -12 248 -12 180 28 c 128,-1,2
 112 68 112 68 84.5 139.5 c 128,-1,3
 57 211 57 211 76 308 c 2,4,-1
 155 700 l 1,5,-1
 317 700 l 1,6,-1
 239 311 l 2,7,8
 220 217 220 217 255 171.5 c 128,-1,9
 290 126 290 126 369 126 c 0,10,11
 442 126 442 126 486.5 169.5 c 128,-1,12
 531 213 531 213 550 311 c 2,13,-1
 628 700 l 1,14,-1
 788 700 l 1,15,-1
 708 301 l 2,16,17
 677 146 677 146 587.5 67 c 128,-1,18
 498 -12 498 -12 351 -12 c 0,0,1
EndSplineSet
Substitution2: "'ss01' Style Set 1 lookup 53 subtable" U.ss01
Substitution2: "'c2sc' Capitals to Small Capitals lookup 48 subtable" u.sc
AlternateSubs2: "'aalt' Access All Alternates lookup 4 subtable" u.sc U.ss01
EndChar

StartChar: uni0244
Encoding: 580 580 294
Width: 780
GlyphClass: 2
Flags: W
AnchorPoint: "Anchor-4" 729 700 basechar 0
AnchorPoint: "Anchor-3" 473 700 basechar 0
AnchorPoint: "Anchor-2" 546 0 basechar 0
AnchorPoint: "Anchor-0" 333 0 basechar 0
LayerCount: 2
Fore
SplineSet
156 700 m 1,0,-1
 318 700 l 1,1,-1
 240 311 l 2,2,3
 221 217 221 217 256 171.5 c 128,-1,4
 291 126 291 126 370 126 c 0,5,6
 443 126 443 126 487.5 169.5 c 128,-1,7
 532 213 532 213 551 311 c 2,8,-1
 629 700 l 1,9,-1
 789 700 l 1,10,-1
 709 301 l 2,11,12
 678 146 678 146 588.5 67 c 128,-1,13
 499 -12 499 -12 352 -12 c 0,14,15
 249 -12 249 -12 181 28 c 128,-1,16
 113 68 113 68 85.5 139.5 c 128,-1,17
 58 211 58 211 77 308 c 2,18,-1
 156 700 l 1,0,-1
-13 303 m 1,19,-1
 8 412 l 1,20,-1
 819 412 l 1,21,-1
 798 303 l 1,22,-1
 -13 303 l 1,19,-1
EndSplineSet
Substitution2: "'ss01' Style Set 1 lookup 53 subtable" uni0244.ss01
Substitution2: "'c2sc' Capitals to Small Capitals lookup 48 subtable" uni0289.sc
AlternateSubs2: "'aalt' Access All Alternates lookup 4 subtable" uni0289.sc uni0244.ss01
EndChar

StartChar: Uogonek
Encoding: 370 370 319
Width: 770
GlyphClass: 2
Flags: W
AnchorPoint: "Anchor-4" 728 700 basechar 0
AnchorPoint: "Anchor-3" 472 700 basechar 0
AnchorPoint: "Anchor-0" 285 -232 basechar 0
LayerCount: 2
Fore
SplineSet
628 700 m 1,0,-1
 788 700 l 1,1,-1
 708 301 l 2,2,3
 683 175 683 175 619 99 c 128,-1,4
 555 23 555 23 452 -1 c 0,5,6
 370 -20 370 -20 334 -50 c 128,-1,7
 298 -80 298 -80 298 -111 c 0,8,9
 298 -131 298 -131 311.5 -142 c 128,-1,10
 325 -153 325 -153 347 -153 c 0,11,12
 364 -153 364 -153 380.5 -148.5 c 128,-1,13
 397 -144 397 -144 410 -138 c 1,14,-1
 422 -209 l 1,15,16
 402 -219 402 -219 376.5 -225.5 c 128,-1,17
 351 -232 351 -232 321 -232 c 0,18,19
 265 -232 265 -232 230 -206 c 128,-1,20
 195 -180 195 -180 195 -133 c 0,21,22
 195 -83 195 -83 230 -44.5 c 128,-1,23
 265 -6 265 -6 330 22 c 1,24,-1
 394 -10 l 1,25,26
 383 -11 383 -11 372.5 -11.5 c 128,-1,27
 362 -12 362 -12 351 -12 c 0,28,29
 248 -12 248 -12 180 28 c 128,-1,30
 112 68 112 68 84.5 139.5 c 128,-1,31
 57 211 57 211 76 308 c 2,32,-1
 155 700 l 1,33,-1
 317 700 l 1,34,-1
 239 311 l 2,35,36
 220 217 220 217 255 171.5 c 128,-1,37
 290 126 290 126 369 126 c 0,38,39
 442 126 442 126 486.5 169.5 c 128,-1,40
 531 213 531 213 550 311 c 2,41,-1
 628 700 l 1,0,-1
EndSplineSet
Substitution2: "'ss01' Style Set 1 lookup 53 subtable" Uogonek.ss01
Substitution2: "'c2sc' Capitals to Small Capitals lookup 48 subtable" uogonek.sc
Substitution2: "'locl' Localized Forms in Latin lookup 18 subtable" Uogonek.loclNAV
AlternateSubs2: "'aalt' Access All Alternates lookup 4 subtable" Uogonek.loclNAV uogonek.sc Uogonek.ss01
EndChar

StartChar: uni01B1
Encoding: 433 433 320
Width: 901
GlyphClass: 2
Flags: W
AnchorPoint: "Anchor-3" 537 700 basechar 0
AnchorPoint: "Anchor-0" 397 0 basechar 0
LayerCount: 2
Fore
SplineSet
971 700 m 1,0,-1
 946 568 l 1,1,-1
 777 568 l 1,2,3
 813 528 813 528 829.5 479.5 c 128,-1,4
 846 431 846 431 846 370 c 0,5,6
 846 284 846 284 813.5 214 c 128,-1,7
 781 144 781 144 722.5 93.5 c 128,-1,8
 664 43 664 43 586 15.5 c 128,-1,9
 508 -12 508 -12 416 -12 c 0,10,11
 319 -12 319 -12 242 22.5 c 128,-1,12
 165 57 165 57 120.5 121 c 128,-1,13
 76 185 76 185 76 273 c 0,14,15
 76 321 76 321 87.5 364.5 c 128,-1,16
 99 408 99 408 120.5 446 c 128,-1,17
 142 484 142 484 169.5 514.5 c 128,-1,18
 197 545 197 545 228 568 c 1,19,-1
 75 568 l 1,20,-1
 101 700 l 1,21,-1
 467 700 l 1,22,-1
 443 577 l 1,23,24
 400 559 400 559 363 532 c 128,-1,25
 326 505 326 505 298.5 468.5 c 128,-1,26
 271 432 271 432 256 388 c 128,-1,27
 241 344 241 344 241 294 c 0,28,29
 241 212 241 212 295 169 c 128,-1,30
 349 126 349 126 433 126 c 0,31,32
 513 126 513 126 569.5 159 c 128,-1,33
 626 192 626 192 656.5 249.5 c 128,-1,34
 687 307 687 307 687 380 c 0,35,36
 687 424 687 424 675.5 460.5 c 128,-1,37
 664 497 664 497 640.5 526 c 128,-1,38
 617 555 617 555 580 577 c 1,39,-1
 605 700 l 1,40,-1
 971 700 l 1,0,-1
EndSplineSet
Substitution2: "'c2sc' Capitals to Small Capitals lookup 48 subtable" uni028A.sc
Substitution2: "'aalt' Access All Alternates lookup 3 subtable" uni028A.sc
EndChar

StartChar: V
Encoding: 86 86 325
Width: 746
GlyphClass: 2
Flags: W
AnchorPoint: "Anchor-3" 459 700 basechar 0
AnchorPoint: "Anchor-2" 399 0 basechar 0
AnchorPoint: "Anchor-0" 319 0 basechar 0
LayerCount: 2
Fore
SplineSet
239 0 m 1,0,-1
 77 700 l 1,1,-1
 244 700 l 1,2,-1
 385 79 l 1,3,-1
 280 79 l 1,4,-1
 674 700 l 1,5,-1
 842 700 l 1,6,-1
 399 0 l 1,7,-1
 239 0 l 1,0,-1
EndSplineSet
Substitution2: "'c2sc' Capitals to Small Capitals lookup 48 subtable" v.sc
Substitution2: "'aalt' Access All Alternates lookup 3 subtable" v.sc
EndChar

StartChar: uni0194
Encoding: 404 404 326
Width: 676
GlyphClass: 2
Flags: W
AnchorPoint: "Anchor-3" 424 700 basechar 0
AnchorPoint: "Anchor-1" 332 257 basechar 0
AnchorPoint: "Anchor-0" 284 0 basechar 0
LayerCount: 2
Fore
SplineSet
267 -206 m 0,0,1
 215 -206 215 -206 176 -184 c 128,-1,2
 137 -162 137 -162 118.5 -124.5 c 128,-1,3
 100 -87 100 -87 109 -42 c 0,4,5
 115 -5 115 -5 138 30.5 c 128,-1,6
 161 66 161 66 190.5 101 c 128,-1,7
 220 136 220 136 250.5 170.5 c 128,-1,8
 281 205 281 205 304 239 c 2,9,-1
 623 700 l 1,10,-1
 792 700 l 1,11,-1
 411 153 l 2,12,13
 393 129 393 129 364 100.5 c 128,-1,14
 335 72 335 72 304.5 43 c 128,-1,15
 274 14 274 14 251.5 -12.5 c 128,-1,16
 229 -39 229 -39 226 -61 c 0,17,18
 223 -79 223 -79 236 -92 c 128,-1,19
 249 -105 249 -105 270 -105 c 0,20,21
 290 -105 290 -105 305 -92.5 c 128,-1,22
 320 -80 320 -80 324 -61 c 0,23,24
 328 -39 328 -39 318 -12 c 128,-1,25
 308 15 308 15 291 43 c 128,-1,26
 274 71 274 71 258.5 98.5 c 128,-1,27
 243 126 243 126 235 149 c 2,28,-1
 67 700 l 1,29,-1
 234 700 l 1,30,-1
 366 239 l 2,31,32
 374 210 374 210 389.5 173 c 128,-1,33
 405 136 405 136 420 95 c 128,-1,34
 435 54 435 54 443 12 c 128,-1,35
 451 -30 451 -30 444 -69 c 0,36,37
 433 -130 433 -130 384.5 -168 c 128,-1,38
 336 -206 336 -206 267 -206 c 0,0,1
EndSplineSet
Substitution2: "'c2sc' Capitals to Small Capitals lookup 48 subtable" uni0263.sc
Substitution2: "'aalt' Access All Alternates lookup 3 subtable" uni0263.sc
EndChar

StartChar: uni01B2
Encoding: 434 434 328
Width: 768
GlyphClass: 2
Flags: W
AnchorPoint: "Anchor-4" 728 700 basechar 0
AnchorPoint: "Anchor-3" 472 704 basechar 0
AnchorPoint: "Anchor-2" 545 0 basechar 0
AnchorPoint: "Anchor-0" 332 0 basechar 0
LayerCount: 2
Fore
SplineSet
351 -12 m 0,0,1
 248 -12 248 -12 180 28 c 128,-1,2
 112 68 112 68 84.5 139.5 c 128,-1,3
 57 211 57 211 76 308 c 2,4,-1
 155 700 l 1,5,-1
 317 700 l 1,6,-1
 239 311 l 2,7,8
 220 217 220 217 255 171.5 c 128,-1,9
 290 126 290 126 369 126 c 0,10,11
 442 126 442 126 487 169.5 c 128,-1,12
 532 213 532 213 552 311 c 2,13,-1
 593 519 l 2,14,15
 599 549 599 549 591 567 c 128,-1,16
 583 585 583 585 565.5 592 c 128,-1,17
 548 599 548 599 524.5 596 c 128,-1,18
 501 593 501 593 475 579 c 1,19,-1
 462 694 l 1,20,21
 506 712 506 712 552 717 c 128,-1,22
 598 722 598 722 639.5 713 c 128,-1,23
 681 704 681 704 710.5 680 c 128,-1,24
 740 656 740 656 752.5 615.5 c 128,-1,25
 765 575 765 575 753 517 c 2,26,-1
 710 301 l 2,27,28
 679 146 679 146 588.5 67 c 128,-1,29
 498 -12 498 -12 351 -12 c 0,0,1
EndSplineSet
Substitution2: "'c2sc' Capitals to Small Capitals lookup 48 subtable" uni028B.sc
Substitution2: "'locl' Localized Forms in Latin lookup 21 subtable" uni01B2.loclTOD0
AlternateSubs2: "'aalt' Access All Alternates lookup 4 subtable" uni01B2.loclTOD0 uni028B.sc
EndChar

StartChar: uni0245
Encoding: 581 581 330
Width: 746
GlyphClass: 2
Flags: W
AnchorPoint: "Anchor-3" 460 700 basechar 0
AnchorPoint: "Anchor-2" 702 0 basechar 0
AnchorPoint: "Anchor-0" 320 0 basechar 0
LayerCount: 2
Fore
SplineSet
539 700 m 1,0,-1
 702 0 l 1,1,-1
 535 0 l 1,2,-1
 394 621 l 1,3,-1
 499 621 l 1,4,-1
 105 0 l 1,5,-1
 -63 0 l 1,6,-1
 380 700 l 1,7,-1
 539 700 l 1,0,-1
EndSplineSet
Substitution2: "'c2sc' Capitals to Small Capitals lookup 48 subtable" uni028C.sc
Substitution2: "'aalt' Access All Alternates lookup 3 subtable" uni028C.sc
EndChar

StartChar: W
Encoding: 87 87 331
Width: 1147
GlyphClass: 2
Flags: W
AnchorPoint: "Anchor-3" 659 700 basechar 0
AnchorPoint: "Anchor-0" 519 0 basechar 0
LayerCount: 2
Fore
SplineSet
189 0 m 1,0,-1
 99 700 l 1,1,-1
 260 700 l 1,2,-1
 337 81 l 1,3,-1
 254 81 l 1,4,-1
 585 700 l 1,5,-1
 735 700 l 1,6,-1
 810 81 l 1,7,-1
 730 81 l 1,8,-1
 1059 700 l 1,9,-1
 1220 700 l 1,10,-1
 850 0 l 1,11,-1
 676 0 l 1,12,-1
 606 544 l 1,13,-1
 655 544 l 1,14,-1
 363 0 l 1,15,-1
 189 0 l 1,0,-1
EndSplineSet
Substitution2: "'ss01' Style Set 1 lookup 53 subtable" W.ss01
Substitution2: "'c2sc' Capitals to Small Capitals lookup 48 subtable" w.sc
AlternateSubs2: "'aalt' Access All Alternates lookup 4 subtable" w.sc W.ss01
EndChar

StartChar: uni2C72
Encoding: 11378 11378 338
Width: 1185
GlyphClass: 2
Flags: W
AnchorPoint: "Anchor-3" 660 700 basechar 0
AnchorPoint: "Anchor-0" 520 0 basechar 0
LayerCount: 2
Fore
SplineSet
189 0 m 1,0,-1
 99 700 l 1,1,-1
 260 700 l 1,2,-1
 337 78 l 1,3,-1
 254 78 l 1,4,-1
 585 700 l 1,5,-1
 735 700 l 1,6,-1
 804 78 l 1,7,-1
 724 78 l 1,8,-1
 1004 618 l 2,9,10
 1036 679 1036 679 1074.5 710.5 c 128,-1,11
 1113 742 1113 742 1152.5 750 c 128,-1,12
 1192 758 1192 758 1229 748 c 128,-1,13
 1266 738 1266 738 1296 717 c 1,14,-1
 1233 603 l 1,15,16
 1216 613 1216 613 1198.5 612 c 128,-1,17
 1181 611 1181 611 1165 598.5 c 128,-1,18
 1149 586 1149 586 1135 560 c 2,19,-1
 844 0 l 1,20,-1
 670 0 l 1,21,-1
 606 549 l 1,22,-1
 655 550 l 1,23,-1
 363 0 l 1,24,-1
 189 0 l 1,0,-1
EndSplineSet
Substitution2: "'ss01' Style Set 1 lookup 53 subtable" uni2C72.ss01
Substitution2: "'c2sc' Capitals to Small Capitals lookup 48 subtable" uni2C73.sc
AlternateSubs2: "'aalt' Access All Alternates lookup 4 subtable" uni2C73.sc uni2C72.ss01
EndChar

StartChar: X
Encoding: 88 88 339
Width: 714
GlyphClass: 2
Flags: W
AnchorPoint: "Anchor-3" 444 700 basechar 0
AnchorPoint: "Anchor-0" 304 0 basechar 0
LayerCount: 2
Fore
SplineSet
-50 0 m 1,0,-1
 327 408 l 1,1,-1
 311 315 l 1,2,-1
 104 700 l 1,3,-1
 277 700 l 1,4,-1
 421 424 l 1,5,-1
 350 426 l 1,6,-1
 598 700 l 1,7,-1
 782 700 l 1,8,-1
 428 315 l 1,9,-1
 433 407 l 1,10,-1
 655 0 l 1,11,-1
 480 0 l 1,12,-1
 328 292 l 1,13,-1
 401 289 l 1,14,-1
 144 0 l 1,15,-1
 -50 0 l 1,0,-1
EndSplineSet
Substitution2: "'c2sc' Capitals to Small Capitals lookup 48 subtable" x.sc
Substitution2: "'aalt' Access All Alternates lookup 3 subtable" x.sc
EndChar

StartChar: Y
Encoding: 89 89 342
Width: 696
GlyphClass: 2
Flags: W
AnchorPoint: "Anchor-3" 434 700 basechar 0
AnchorPoint: "Anchor-2" 375 0 basechar 0
AnchorPoint: "Anchor-1" 339 228 basechar 0
AnchorPoint: "Anchor-0" 294 0 basechar 0
LayerCount: 2
Fore
SplineSet
213 0 m 1,0,-1
 270 288 l 1,1,-1
 288 186 l 1,2,-1
 82 700 l 1,3,-1
 244 700 l 1,4,-1
 401 307 l 1,5,-1
 303 306 l 1,6,-1
 620 700 l 1,7,-1
 787 700 l 1,8,-1
 377 185 l 1,9,-1
 432 288 l 1,10,-1
 375 0 l 1,11,-1
 213 0 l 1,0,-1
EndSplineSet
Substitution2: "'ss01' Style Set 1 lookup 53 subtable" Y.ss01
Substitution2: "'c2sc' Capitals to Small Capitals lookup 48 subtable" y.sc
AlternateSubs2: "'aalt' Access All Alternates lookup 4 subtable" y.sc Y.ss01
EndChar

StartChar: uni01B3
Encoding: 435 435 349
Width: 714
GlyphClass: 2
Flags: W
AnchorPoint: "Anchor-3" 445 700 basechar 0
AnchorPoint: "Anchor-1" 352 257 basechar 0
AnchorPoint: "Anchor-0" 305 0 basechar 0
LayerCount: 2
Fore
SplineSet
213 0 m 1,0,-1
 270 288 l 1,1,-1
 288 186 l 1,2,-1
 82 700 l 1,3,-1
 244 700 l 1,4,-1
 401 307 l 1,5,-1
 303 306 l 1,6,-1
 600 676 l 2,7,8
 649 739 649 739 715.5 750 c 128,-1,9
 782 761 782 761 844 715 c 1,10,-1
 780 601 l 1,11,12
 754 614 754 614 732 608.5 c 128,-1,13
 710 603 710 603 690 578 c 2,14,-1
 377 185 l 1,15,-1
 432 288 l 1,16,-1
 375 0 l 1,17,-1
 213 0 l 1,0,-1
EndSplineSet
Substitution2: "'ss01' Style Set 1 lookup 53 subtable" uni01B3.ss01
Substitution2: "'c2sc' Capitals to Small Capitals lookup 48 subtable" uni01B4.sc
AlternateSubs2: "'aalt' Access All Alternates lookup 4 subtable" uni01B4.sc uni01B3.ss01
EndChar

StartChar: uni01A6
Encoding: 422 422 352
Width: 735
GlyphClass: 2
Flags: W
AnchorPoint: "Anchor-3" 460 700 basechar 0
AnchorPoint: "Anchor-0" 320 0 basechar 0
LayerCount: 2
Fore
SplineSet
150 132 m 1,0,-1
 176 261 l 1,1,-1
 385 261 l 2,2,3
 465 261 465 261 509.5 297.5 c 128,-1,4
 554 334 554 334 554 403 c 0,5,6
 554 455 554 455 520 479.5 c 128,-1,7
 486 504 486 504 424 504 c 2,8,-1
 226 504 l 1,9,-1
 253 636 l 1,10,-1
 445 636 l 2,11,12
 575 636 575 636 646.5 579 c 128,-1,13
 718 522 718 522 718 419 c 0,14,15
 718 331 718 331 677 266.5 c 128,-1,16
 636 202 636 202 559.5 167 c 128,-1,17
 483 132 483 132 378 132 c 2,18,-1
 150 132 l 1,0,-1
29 0 m 1,19,-1
 169 700 l 1,20,-1
 332 700 l 1,21,-1
 192 0 l 1,22,-1
 29 0 l 1,19,-1
465 -100 m 1,23,-1
 314 167 l 1,24,-1
 484 167 l 1,25,-1
 635 -100 l 1,26,-1
 465 -100 l 1,23,-1
EndSplineSet
Substitution2: "'c2sc' Capitals to Small Capitals lookup 48 subtable" uni0280.sc
Substitution2: "'aalt' Access All Alternates lookup 3 subtable" uni0280.sc
EndChar

StartChar: uni024E
Encoding: 590 590 353
Width: 741
GlyphClass: 2
Flags: W
AnchorPoint: "Anchor-3" 480 700 basechar 0
AnchorPoint: "Anchor-1" 387 257 basechar 0
AnchorPoint: "Anchor-0" 340 0 basechar 0
LayerCount: 2
Fore
SplineSet
260 0 m 1,0,-1
 317 288 l 1,1,-1
 336 186 l 1,2,-1
 129 700 l 1,3,-1
 285 700 l 1,4,-1
 432 299 l 1,5,-1
 367 298 l 1,6,-1
 675 700 l 1,7,-1
 834 700 l 1,8,-1
 424 185 l 1,9,-1
 480 288 l 1,10,-1
 422 0 l 1,11,-1
 260 0 l 1,0,-1
93 499 m 1,12,-1
 115 608 l 1,13,-1
 814 608 l 1,14,-1
 793 499 l 1,15,-1
 93 499 l 1,12,-1
EndSplineSet
Substitution2: "'ss01' Style Set 1 lookup 53 subtable" uni024E.ss01
Substitution2: "'c2sc' Capitals to Small Capitals lookup 48 subtable" uni024F.sc
AlternateSubs2: "'aalt' Access All Alternates lookup 4 subtable" uni024F.sc uni024E.ss01
EndChar

StartChar: Z
Encoding: 90 90 355
Width: 671
GlyphClass: 2
Flags: W
AnchorPoint: "Anchor-3" 430 700 basechar 0
AnchorPoint: "Anchor-2" 595 0 basechar 0
AnchorPoint: "Anchor-0" 294 0 basechar 0
LayerCount: 2
Fore
SplineSet
-17 0 m 1,0,-1
 4 105 l 1,1,-1
 536 627 l 1,2,-1
 550 568 l 1,3,-1
 107 568 l 1,4,-1
 134 700 l 1,5,-1
 722 700 l 1,6,-1
 701 595 l 1,7,-1
 170 73 l 1,8,-1
 156 132 l 1,9,-1
 622 132 l 1,10,-1
 595 0 l 1,11,-1
 -17 0 l 1,0,-1
EndSplineSet
Substitution2: "'ss01' Style Set 1 lookup 53 subtable" Z.ss01
Substitution2: "'c2sc' Capitals to Small Capitals lookup 48 subtable" z.sc
AlternateSubs2: "'aalt' Access All Alternates lookup 4 subtable" z.sc Z.ss01
EndChar

StartChar: uni01B5
Encoding: 437 437 362
Width: 671
GlyphClass: 2
Flags: W
AnchorPoint: "Anchor-3" 430 700 basechar 0
AnchorPoint: "Anchor-0" 294 0 basechar 0
LayerCount: 2
Fore
SplineSet
-17 0 m 1,0,-1
 4 105 l 1,1,-1
 536 627 l 1,2,-1
 550 568 l 1,3,-1
 107 568 l 1,4,-1
 134 700 l 1,5,-1
 722 700 l 1,6,-1
 701 595 l 1,7,-1
 170 73 l 1,8,-1
 156 132 l 1,9,-1
 622 132 l 1,10,-1
 595 0 l 1,11,-1
 -17 0 l 1,0,-1
120 303 m 1,12,-1
 141 412 l 1,13,-1
 597 412 l 1,14,-1
 576 303 l 1,15,-1
 120 303 l 1,12,-1
EndSplineSet
Substitution2: "'c2sc' Capitals to Small Capitals lookup 48 subtable" uni01B6.sc
Substitution2: "'aalt' Access All Alternates lookup 3 subtable" uni01B6.sc
EndChar

StartChar: uniA78B
Encoding: 42891 42891 363
Width: 297
GlyphClass: 1
Flags: W
LayerCount: 2
Fore
SplineSet
73 297 m 1,0,-1
 154 700 l 1,1,-1
 314 700 l 1,2,-1
 214 297 l 1,3,-1
 73 297 l 1,0,-1
EndSplineSet
Substitution2: "'c2sc' Capitals to Small Capitals lookup 48 subtable" uniA78C.sc
Substitution2: "'aalt' Access All Alternates lookup 3 subtable" uniA78C.sc
EndChar

StartChar: uni0295.case
Encoding: 65538 -1 364
Width: 617
GlyphClass: 2
Flags: W
AnchorPoint: "Anchor-3" 408 700 basechar 0
AnchorPoint: "Anchor-0" 272 0 basechar 0
LayerCount: 2
Fore
SplineSet
354 0 m 1,0,-1
 191 0 l 1,1,-1
 223 156 l 2,2,3
 229 190 229 190 217.5 214.5 c 128,-1,4
 206 239 206 239 183.5 258.5 c 128,-1,5
 161 278 161 278 135.5 297 c 128,-1,6
 110 316 110 316 88.5 340.5 c 128,-1,7
 67 365 67 365 57 399 c 128,-1,8
 47 433 47 433 57 481 c 0,9,10
 69 540 69 540 103 583.5 c 128,-1,11
 137 627 137 627 186.5 655.5 c 128,-1,12
 236 684 236 684 293.5 698 c 128,-1,13
 351 712 351 712 410 712 c 0,14,15
 475 712 475 712 532 695 c 128,-1,16
 589 678 589 678 632 645.5 c 128,-1,17
 675 613 675 613 695 564 c 1,18,-1
 555 489 l 1,19,20
 541 521 541 521 515 541 c 128,-1,21
 489 561 489 561 457 570.5 c 128,-1,22
 425 580 425 580 391 580 c 0,23,24
 353 580 353 580 315.5 568 c 128,-1,25
 278 556 278 556 252 533 c 128,-1,26
 226 510 226 510 219 474 c 0,27,28
 213 444 213 444 225.5 422.5 c 128,-1,29
 238 401 238 401 260.5 384 c 128,-1,30
 283 367 283 367 308.5 349.5 c 128,-1,31
 334 332 334 332 355.5 309 c 128,-1,32
 377 286 377 286 387.5 252 c 128,-1,33
 398 218 398 218 388 168 c 2,34,-1
 354 0 l 1,0,-1
EndSplineSet
EndChar

StartChar: uni01B2.loclTOD0
Encoding: 65548 -1 374
Width: 780
GlyphClass: 2
Flags: W
AnchorPoint: "Anchor-3" 459 700 basechar 0
AnchorPoint: "Anchor-0" 319 0 basechar 0
LayerCount: 2
Fore
SplineSet
399 0 m 1,0,-1
 279 78 l 1,1,-1
 617 618 l 2,2,3
 654 677 654 677 693 708 c 128,-1,4
 732 739 732 739 770 748 c 128,-1,5
 808 757 808 757 843.5 748 c 128,-1,6
 879 739 879 739 908 717 c 1,7,-1
 846 603 l 1,8,9
 821 618 821 618 796.5 608 c 128,-1,10
 772 598 772 598 748 560 c 2,11,-1
 399 0 l 1,0,-1
239 0 m 1,12,-1
 77 700 l 1,13,-1
 244 700 l 1,14,-1
 385 79 l 1,15,-1
 399 0 l 1,16,-1
 239 0 l 1,12,-1
EndSplineSet
Substitution2: "'ss01' Style Set 1 lookup 53 subtable" uni01B2.loclTOD0.ss01
Substitution2: "'c2sc' Capitals to Small Capitals lookup 48 subtable" uni01B2.loclTOD0.sc
AlternateSubs2: "'aalt' Access All Alternates lookup 4 subtable" uni01B2.loclTOD0.sc uni01B2.loclTOD0.ss01
EndChar

StartChar: uni0181.loclXPE
Encoding: 65549 -1 375
Width: 731
GlyphClass: 1
Flags: W
LayerCount: 2
Fore
SplineSet
41 47 m 1,0,-1
 172 700 l 1,1,-1
 718 700 l 1,2,-1
 692 571 l 1,3,-1
 306 571 l 1,4,-1
 218 128 l 1,5,-1
 41 47 l 1,0,-1
358 -11 m 0,6,7
 275 -11 275 -11 191.5 5 c 128,-1,8
 108 21 108 21 41 47 c 1,9,-1
 210 139 l 1,10,11
 247 125 247 125 286 117.5 c 128,-1,12
 325 110 325 110 360 110 c 0,13,14
 404 110 404 110 438 119.5 c 128,-1,15
 472 129 472 129 493.5 148 c 128,-1,16
 515 167 515 167 521 198 c 0,17,18
 528 230 528 230 512.5 253 c 128,-1,19
 497 276 497 276 462 288 c 128,-1,20
 427 300 427 300 374 300 c 0,21,22
 338 300 338 300 297.5 294.5 c 128,-1,23
 257 289 257 289 218 278 c 1,24,-1
 241 392 l 1,25,26
 290 406 290 406 336 412.5 c 128,-1,27
 382 419 382 419 425 419 c 0,28,29
 516 419 516 419 578.5 390 c 128,-1,30
 641 361 641 361 669 308.5 c 128,-1,31
 697 256 697 256 683 185 c 0,32,33
 670 116 670 116 625.5 72.5 c 128,-1,34
 581 29 581 29 512.5 9 c 128,-1,35
 444 -11 444 -11 358 -11 c 0,6,7
EndSplineSet
EndChar

StartChar: A.ss01
Encoding: 65550 -1 376
Width: 779
GlyphClass: 2
Flags: W
AnchorPoint: "Anchor-3" 474 700 basechar 0
AnchorPoint: "Anchor-2" 657 0 basechar 0
AnchorPoint: "Anchor-0" 335 0 basechar 0
LayerCount: 2
Fore
SplineSet
15 0 m 1,0,-1
 94 399 l 2,1,2
 126 556 126 556 219 634 c 128,-1,3
 312 712 312 712 459 712 c 0,4,5
 561 712 561 712 629 672 c 128,-1,6
 697 632 697 632 725 557.5 c 128,-1,7
 753 483 753 483 732 378 c 2,8,-1
 657 0 l 1,9,-1
 494 0 l 1,10,-1
 572 389 l 2,11,12
 590 482 590 482 556 528 c 128,-1,13
 522 574 522 574 443 574 c 0,14,15
 367 574 367 574 319.5 532.5 c 128,-1,16
 272 491 272 491 253 396 c 2,17,-1
 174 0 l 1,18,-1
 15 0 l 1,0,-1
151 168 m 1,19,-1
 177 298 l 1,20,-1
 613 298 l 1,21,-1
 587 168 l 1,22,-1
 151 168 l 1,19,-1
EndSplineSet
EndChar

StartChar: uni023A.ss01
Encoding: 65579 -1 405
Width: 779
GlyphClass: 2
Flags: W
AnchorPoint: "Anchor-3" 475 700 basechar 0
AnchorPoint: "Anchor-2" 657 0 basechar 0
AnchorPoint: "Anchor-0" 335 0 basechar 0
LayerCount: 2
Fore
SplineSet
156 -70 m 1,0,-1
 709 770 l 1,1,-1
 809 770 l 1,2,-1
 257 -70 l 1,3,-1
 156 -70 l 1,0,-1
149 170 m 1,4,-1
 174 297 l 1,5,-1
 615 297 l 1,6,-1
 590 170 l 1,7,-1
 149 170 l 1,4,-1
15 0 m 1,8,-1
 94 400 l 2,9,10
 126 558 126 558 220 634.5 c 128,-1,11
 314 711 314 711 459 711 c 0,12,13
 561 711 561 711 629 671.5 c 128,-1,14
 697 632 697 632 725 557.5 c 128,-1,15
 753 483 753 483 732 379 c 2,16,-1
 656 0 l 1,17,-1
 498 0 l 1,18,-1
 576 389 l 2,19,20
 595 485 595 485 559 531.5 c 128,-1,21
 523 578 523 578 443 578 c 0,22,23
 366 578 366 578 317 535.5 c 128,-1,24
 268 493 268 493 249 397 c 2,25,-1
 170 0 l 1,26,-1
 15 0 l 1,8,-1
EndSplineSet
EndChar

StartChar: uni2C6F.ss01
Encoding: 65581 -1 407
Width: 779
GlyphClass: 2
Flags: W
AnchorPoint: "Anchor-3" 476 700 basechar 0
AnchorPoint: "Anchor-2" 155 700 basechar 0
AnchorPoint: "Anchor-0" 338 0 basechar 0
LayerCount: 2
Fore
SplineSet
797 700 m 1,0,-1
 718 301 l 2,1,2
 687 144 687 144 593.5 66 c 128,-1,3
 500 -12 500 -12 353 -12 c 0,4,5
 252 -12 252 -12 183.5 28 c 128,-1,6
 115 68 115 68 87 143 c 128,-1,7
 59 218 59 218 80 322 c 2,8,-1
 155 700 l 1,9,-1
 317 700 l 1,10,-1
 240 311 l 2,11,12
 221 218 221 218 256 172 c 128,-1,13
 291 126 291 126 369 126 c 0,14,15
 444 126 444 126 492 168 c 128,-1,16
 540 210 540 210 558 304 c 2,17,-1
 638 700 l 1,18,-1
 797 700 l 1,0,-1
660 532 m 1,19,-1
 635 402 l 1,20,-1
 199 402 l 1,21,-1
 225 532 l 1,22,-1
 660 532 l 1,19,-1
EndSplineSet
EndChar

StartChar: AE.ss01
Encoding: 65582 -1 408
Width: 1092
GlyphClass: 2
Flags: W
AnchorPoint: "Anchor-3" 626 700 basechar 0
AnchorPoint: "Anchor-0" 486 0 basechar 0
LayerCount: 2
Fore
SplineSet
453 0 m 1,0,-1
 593 700 l 1,1,-1
 1122 700 l 1,2,-1
 1096 571 l 1,3,-1
 727 571 l 1,4,-1
 696 417 l 1,5,-1
 1023 417 l 1,6,-1
 998 294 l 1,7,-1
 672 294 l 1,8,-1
 638 129 l 1,9,-1
 1021 129 l 1,10,-1
 995 0 l 1,11,-1
 453 0 l 1,0,-1
154 177 m 1,12,-1
 180 305 l 1,13,-1
 594 305 l 1,14,-1
 568 177 l 1,15,-1
 154 177 l 1,12,-1
16 0 m 1,16,-1
 94 391 l 2,17,18
 125 544 125 544 219.5 622 c 128,-1,19
 314 700 314 700 466 700 c 2,20,-1
 673 700 l 1,21,-1
 645 562 l 1,22,-1
 463 562 l 2,23,24
 379 562 379 562 325.5 514.5 c 128,-1,25
 272 467 272 467 254 375 c 2,26,-1
 179 0 l 1,27,-1
 16 0 l 1,16,-1
EndSplineSet
EndChar

StartChar: E.ss01
Encoding: 65589 -1 415
Width: 667
GlyphClass: 2
Flags: W
AnchorPoint: "Anchor-3" 449 700 basechar 0
AnchorPoint: "Anchor-2" 564 0 basechar 0
AnchorPoint: "Anchor-0" 309 0 basechar 0
LayerCount: 2
Fore
SplineSet
324 -12 m 0,0,1
 232 -12 232 -12 164.5 11 c 128,-1,2
 97 34 97 34 60 77 c 128,-1,3
 23 120 23 120 23 179 c 0,4,5
 23 240 23 240 56 285.5 c 128,-1,6
 89 331 89 331 146 356.5 c 128,-1,7
 203 382 203 382 275 382 c 1,8,-1
 272 340 l 1,9,10
 223 340 223 340 187.5 358.5 c 128,-1,11
 152 377 152 377 133.5 409 c 128,-1,12
 115 441 115 441 115 479 c 0,13,14
 115 550 115 550 157 602.5 c 128,-1,15
 199 655 199 655 276 683.5 c 128,-1,16
 353 712 353 712 456 712 c 0,17,18
 531 712 531 712 594 698.5 c 128,-1,19
 657 685 657 685 700 660 c 1,20,-1
 647 538 l 1,21,22
 600 562 600 562 547.5 571.5 c 128,-1,23
 495 581 495 581 445 581 c 0,24,25
 391 581 391 581 353.5 569 c 128,-1,26
 316 557 316 557 297 534.5 c 128,-1,27
 278 512 278 512 278 482 c 0,28,29
 278 451 278 451 302.5 434.5 c 128,-1,30
 327 418 327 418 374 418 c 2,31,-1
 561 418 l 1,32,-1
 535 290 l 1,33,-1
 325 290 l 2,34,35
 263 290 263 290 226 266.5 c 128,-1,36
 189 243 189 243 189 201 c 0,37,38
 189 161 189 161 226.5 140 c 128,-1,39
 264 119 264 119 347 119 c 0,40,41
 415 119 415 119 477 136 c 128,-1,42
 539 153 539 153 580 180 c 1,43,-1
 622 59 l 1,44,45
 569 27 569 27 489 7.5 c 128,-1,46
 409 -12 409 -12 324 -12 c 0,0,1
EndSplineSet
EndChar

StartChar: Eogonek.ss01
Encoding: 65612 -1 438
Width: 667
GlyphClass: 1
Flags: W
LayerCount: 2
Fore
SplineSet
448 -232 m 0,0,1
 393 -232 393 -232 358 -206 c 128,-1,2
 323 -180 323 -180 323 -133 c 0,3,4
 323 -84 323 -84 356.5 -45 c 128,-1,5
 390 -6 390 -6 449 23 c 1,6,-1
 458 1 l 1,7,8
 422 -5 422 -5 389.5 -8.5 c 128,-1,9
 357 -12 357 -12 324 -12 c 0,10,11
 232 -12 232 -12 164.5 11 c 128,-1,12
 97 34 97 34 60 77 c 128,-1,13
 23 120 23 120 23 179 c 0,14,15
 23 240 23 240 56 285.5 c 128,-1,16
 89 331 89 331 146 356.5 c 128,-1,17
 203 382 203 382 275 382 c 1,18,-1
 272 340 l 1,19,20
 223 340 223 340 187.5 358.5 c 128,-1,21
 152 377 152 377 133.5 409 c 128,-1,22
 115 441 115 441 115 479 c 0,23,24
 115 550 115 550 157 602.5 c 128,-1,25
 199 655 199 655 276 683.5 c 128,-1,26
 353 712 353 712 456 712 c 0,27,28
 531 712 531 712 594 698.5 c 128,-1,29
 657 685 657 685 700 660 c 1,30,-1
 647 538 l 1,31,32
 600 562 600 562 547.5 571.5 c 128,-1,33
 495 581 495 581 445 581 c 0,34,35
 391 581 391 581 353.5 569 c 128,-1,36
 316 557 316 557 297 534.5 c 128,-1,37
 278 512 278 512 278 482 c 0,38,39
 278 451 278 451 302.5 434.5 c 128,-1,40
 327 418 327 418 374 418 c 2,41,-1
 561 418 l 1,42,-1
 535 290 l 1,43,-1
 325 290 l 2,44,45
 263 290 263 290 226 266.5 c 128,-1,46
 189 243 189 243 189 201 c 0,47,48
 189 161 189 161 226.5 140 c 128,-1,49
 264 119 264 119 347 119 c 0,50,51
 415 119 415 119 477 136 c 128,-1,52
 539 153 539 153 580 180 c 1,53,-1
 622 59 l 1,54,55
 546 20 546 20 503 -11 c 128,-1,56
 460 -42 460 -42 443 -66 c 128,-1,57
 426 -90 426 -90 426 -111 c 0,58,59
 426 -131 426 -131 439 -142 c 128,-1,60
 452 -153 452 -153 474 -153 c 0,61,62
 491 -153 491 -153 507.5 -148.5 c 128,-1,63
 524 -144 524 -144 538 -138 c 1,64,-1
 549 -209 l 1,65,66
 529 -219 529 -219 504 -225.5 c 128,-1,67
 479 -232 479 -232 448 -232 c 0,0,1
EndSplineSet
EndChar

StartChar: uni0246.ss01
Encoding: 65613 -1 439
Width: 667
GlyphClass: 2
Flags: W
AnchorPoint: "Anchor-3" 456 700 basechar 0
AnchorPoint: "Anchor-2" 424 0 basechar 0
AnchorPoint: "Anchor-0" 319 0 basechar 0
LayerCount: 2
Fore
SplineSet
80 -70 m 1,0,-1
 633 770 l 1,1,-1
 733 770 l 1,2,-1
 181 -70 l 1,3,-1
 80 -70 l 1,0,-1
324 -12 m 0,4,5
 232 -12 232 -12 164.5 11 c 128,-1,6
 97 34 97 34 60 77 c 128,-1,7
 23 120 23 120 23 179 c 0,8,9
 23 240 23 240 56 285.5 c 128,-1,10
 89 331 89 331 146 356.5 c 128,-1,11
 203 382 203 382 275 382 c 1,12,-1
 272 340 l 1,13,14
 223 340 223 340 187.5 358.5 c 128,-1,15
 152 377 152 377 133.5 409 c 128,-1,16
 115 441 115 441 115 479 c 0,17,18
 115 550 115 550 157 602.5 c 128,-1,19
 199 655 199 655 276 683.5 c 128,-1,20
 353 712 353 712 456 712 c 0,21,22
 531 712 531 712 594 698.5 c 128,-1,23
 657 685 657 685 700 660 c 1,24,-1
 647 538 l 1,25,26
 600 562 600 562 547.5 571.5 c 128,-1,27
 495 581 495 581 445 581 c 0,28,29
 391 581 391 581 353.5 569 c 128,-1,30
 316 557 316 557 297 534.5 c 128,-1,31
 278 512 278 512 278 482 c 0,32,33
 278 451 278 451 302.5 434.5 c 128,-1,34
 327 418 327 418 374 418 c 2,35,-1
 561 418 l 1,36,-1
 535 290 l 1,37,-1
 325 290 l 2,38,39
 263 290 263 290 226 266.5 c 128,-1,40
 189 243 189 243 189 201 c 0,41,42
 189 161 189 161 226.5 140 c 128,-1,43
 264 119 264 119 347 119 c 0,44,45
 415 119 415 119 477 136 c 128,-1,46
 539 153 539 153 580 180 c 1,47,-1
 622 59 l 1,48,49
 569 27 569 27 489 7.5 c 128,-1,50
 409 -12 409 -12 324 -12 c 0,4,5
EndSplineSet
EndChar

StartChar: uni018E.ss01
Encoding: 65616 -1 442
Width: 654
GlyphClass: 2
Flags: W
AnchorPoint: "Anchor-3" 378 700 basechar 0
AnchorPoint: "Anchor-0" 260 0 basechar 0
LayerCount: 2
Fore
SplineSet
240 -11 m 0,0,1
 185 -11 185 -11 130.5 -2.5 c 128,-1,2
 76 6 76 6 30.5 22 c 128,-1,3
 -15 38 -15 38 -46 60 c 1,4,-1
 29 182 l 1,5,6
 53 164 53 164 91 149.5 c 128,-1,7
 129 135 129 135 173 126.5 c 128,-1,8
 217 118 217 118 260 118 c 0,9,10
 308 118 308 118 348 129 c 128,-1,11
 388 140 388 140 413 163.5 c 128,-1,12
 438 187 438 187 438 223 c 0,13,14
 438 262 438 262 408 280 c 128,-1,15
 378 298 378 298 327 298 c 2,16,-1
 146 298 l 1,17,-1
 171 420 l 1,18,-1
 341 420 l 2,19,20
 379 420 379 420 406 429.5 c 128,-1,21
 433 439 433 439 448.5 458 c 128,-1,22
 464 477 464 477 464 504 c 0,23,24
 464 533 464 533 448 549.5 c 128,-1,25
 432 566 432 566 404.5 572.5 c 128,-1,26
 377 579 377 579 344 579 c 0,27,28
 306 579 306 579 265.5 572.5 c 128,-1,29
 225 566 225 566 187.5 554.5 c 128,-1,30
 150 543 150 543 122 529 c 1,31,-1
 101 653 l 1,32,33
 138 671 138 671 182 684 c 128,-1,34
 226 697 226 697 272.5 703.5 c 128,-1,35
 319 710 319 710 363 710 c 0,36,37
 436 710 436 710 497 691 c 128,-1,38
 558 672 558 672 594.5 632.5 c 128,-1,39
 631 593 631 593 631 533 c 0,40,41
 631 476 631 476 600.5 432.5 c 128,-1,42
 570 389 570 389 520 365 c 128,-1,43
 470 341 470 341 410 341 c 1,44,-1
 422 376 l 1,45,46
 473 376 473 376 513.5 358.5 c 128,-1,47
 554 341 554 341 577 306.5 c 128,-1,48
 600 272 600 272 600 221 c 0,49,50
 600 162 600 162 570 118 c 128,-1,51
 540 74 540 74 488.5 45.5 c 128,-1,52
 437 17 437 17 373 3 c 128,-1,53
 309 -11 309 -11 240 -11 c 0,0,1
EndSplineSet
EndChar

StartChar: uni018F.ss01
Encoding: 65617 -1 443
Width: 817
GlyphClass: 2
Flags: W
AnchorPoint: "Anchor-3" 495 700 basechar 0
AnchorPoint: "Anchor-2" 445 0 basechar 0
AnchorPoint: "Anchor-0" 355 0 basechar 0
LayerCount: 2
Fore
SplineSet
384 -12 m 0,0,1
 294 -12 294 -12 222.5 18 c 128,-1,2
 151 48 151 48 105.5 105 c 128,-1,3
 60 162 60 162 48 244 c 1,4,-1
 652 471 l 1,5,-1
 669 359 l 1,6,-1
 148 162 l 1,7,-1
 213 274 l 1,8,9
 212 203 212 203 259.5 160 c 128,-1,10
 307 117 307 117 393 117 c 0,11,12
 449 117 449 117 494 139 c 128,-1,13
 539 161 539 161 570 200 c 128,-1,14
 601 239 601 239 617.5 290.5 c 128,-1,15
 634 342 634 342 634 399 c 0,16,17
 634 452 634 452 612.5 491.5 c 128,-1,18
 591 531 591 531 548 552.5 c 128,-1,19
 505 574 505 574 442 574 c 0,20,21
 383 574 383 574 328.5 554.5 c 128,-1,22
 274 535 274 535 230 497 c 1,23,-1
 153 609 l 1,24,25
 211 659 211 659 290 685.5 c 128,-1,26
 369 712 369 712 454 712 c 0,27,28
 562 712 562 712 638 673 c 128,-1,29
 714 634 714 634 755.5 565 c 128,-1,30
 797 496 797 496 797 404 c 0,31,32
 797 313 797 313 767 237 c 128,-1,33
 737 161 737 161 682 105.5 c 128,-1,34
 627 50 627 50 551 19 c 128,-1,35
 475 -12 475 -12 384 -12 c 0,0,1
EndSplineSet
EndChar

StartChar: F.ss01
Encoding: 65618 -1 444
Width: 606
GlyphClass: 1
Flags: W
LayerCount: 2
Fore
SplineSet
15 0 m 1,0,-1
 101 432 l 2,1,2
 128 569 128 569 217.5 640.5 c 128,-1,3
 307 712 307 712 465 712 c 0,4,5
 521 712 521 712 577 699 c 128,-1,6
 633 686 633 686 671 661 c 1,7,-1
 600 536 l 1,8,9
 572 556 572 556 534.5 565 c 128,-1,10
 497 574 497 574 458 574 c 0,11,12
 376 574 376 574 327 539.5 c 128,-1,13
 278 505 278 505 264 436 c 2,14,-1
 177 0 l 1,15,-1
 15 0 l 1,0,-1
166 254 m 1,16,-1
 192 385 l 1,17,-1
 541 385 l 1,18,-1
 514 254 l 1,19,-1
 166 254 l 1,16,-1
EndSplineSet
EndChar

StartChar: uni0191.ss01
Encoding: 65620 -1 446
Width: 647
GlyphClass: 1
Flags: W
LayerCount: 2
Fore
SplineSet
-132 -168 m 1,0,-1
 -86 -56 l 1,1,2
 -56 -69 -56 -69 -33 -72.5 c 128,-1,3
 -10 -76 -10 -76 7 -70.5 c 128,-1,4
 24 -65 24 -65 35 -50 c 128,-1,5
 46 -35 46 -35 51 -10 c 2,6,-1
 140 432 l 2,7,8
 168 569 168 569 257 640.5 c 128,-1,9
 346 712 346 712 504 712 c 0,10,11
 560 712 560 712 616 699 c 128,-1,12
 672 686 672 686 710 661 c 1,13,-1
 639 536 l 1,14,15
 611 556 611 556 573.5 565 c 128,-1,16
 536 574 536 574 497 574 c 0,17,18
 415 574 415 574 366 539.5 c 128,-1,19
 317 505 317 505 303 436 c 2,20,-1
 209 -31 l 2,21,22
 197 -90 197 -90 164.5 -130.5 c 128,-1,23
 132 -171 132 -171 85.5 -189.5 c 128,-1,24
 39 -208 39 -208 -16.5 -203.5 c 128,-1,25
 -72 -199 -72 -199 -132 -168 c 1,0,-1
204 254 m 1,26,-1
 231 385 l 1,27,-1
 579 385 l 1,28,-1
 553 254 l 1,29,-1
 204 254 l 1,26,-1
EndSplineSet
EndChar

StartChar: G.ss01
Encoding: 65621 -1 447
Width: 771
GlyphClass: 2
Flags: W
AnchorPoint: "Anchor-3" 502 700 basechar 0
AnchorPoint: "Anchor-0" 366 0 basechar 0
LayerCount: 2
Fore
SplineSet
364 -12 m 0,0,1
 275 -12 275 -12 204 25 c 128,-1,2
 133 62 133 62 92 129.5 c 128,-1,3
 51 197 51 197 51 290 c 0,4,5
 51 380 51 380 82.5 457 c 128,-1,6
 114 534 114 534 172 591 c 128,-1,7
 230 648 230 648 311 680 c 128,-1,8
 392 712 392 712 491 712 c 0,9,10
 589 712 589 712 663.5 680.5 c 128,-1,11
 738 649 738 649 783 590 c 1,12,-1
 667 496 l 1,13,14
 632 538 632 538 587.5 556 c 128,-1,15
 543 574 543 574 483 574 c 0,16,17
 422 574 422 574 372.5 553.5 c 128,-1,18
 323 533 323 533 288 496 c 128,-1,19
 253 459 253 459 234 409.5 c 128,-1,20
 215 360 215 360 215 302 c 0,21,22
 215 249 215 249 236 208.5 c 128,-1,23
 257 168 257 168 298 146 c 128,-1,24
 339 124 339 124 398 124 c 0,25,26
 447 124 447 124 491.5 144 c 128,-1,27
 536 164 536 164 570 200 c 1,28,-1
 626 133 l 1,29,30
 591 80 591 80 551 48 c 128,-1,31
 511 16 511 16 465 2 c 128,-1,32
 419 -12 419 -12 364 -12 c 0,0,1
529 0 m 1,33,-1
 546 86 l 1,34,-1
 524 103 l 1,35,-1
 575 361 l 1,36,-1
 723 361 l 1,37,-1
 649 0 l 1,38,-1
 529 0 l 1,33,-1
EndSplineSet
EndChar

StartChar: uni0193.ss01
Encoding: 65628 -1 454
Width: 773
GlyphClass: 2
Flags: W
AnchorPoint: "Anchor-3" 518 700 basechar 0
AnchorPoint: "Anchor-0" 365 0 basechar 0
LayerCount: 2
Fore
SplineSet
364 -12 m 0,0,1
 275 -12 275 -12 204 25 c 128,-1,2
 133 62 133 62 92 129.5 c 128,-1,3
 51 197 51 197 51 290 c 0,4,5
 51 380 51 380 82.5 457 c 128,-1,6
 114 534 114 534 172 591 c 128,-1,7
 230 648 230 648 311 680 c 128,-1,8
 392 712 392 712 491 712 c 0,9,10
 589 712 589 712 663.5 680.5 c 128,-1,11
 738 649 738 649 782 589 c 1,12,-1
 667 496 l 1,13,14
 632 538 632 538 587.5 556 c 128,-1,15
 543 574 543 574 483 574 c 0,16,17
 422 574 422 574 372.5 553.5 c 128,-1,18
 323 533 323 533 288 496 c 128,-1,19
 253 459 253 459 234 409.5 c 128,-1,20
 215 360 215 360 215 302 c 0,21,22
 215 249 215 249 236 208.5 c 128,-1,23
 257 168 257 168 298 146 c 128,-1,24
 339 124 339 124 398 124 c 0,25,26
 447 124 447 124 491.5 144 c 128,-1,27
 536 164 536 164 570 200 c 1,28,-1
 626 133 l 1,29,30
 591 80 591 80 551 48 c 128,-1,31
 511 16 511 16 465 2 c 128,-1,32
 419 -12 419 -12 364 -12 c 0,0,1
529 0 m 1,33,-1
 546 86 l 1,34,-1
 524 103 l 1,35,-1
 575 361 l 1,36,-1
 723 361 l 1,37,-1
 649 0 l 1,38,-1
 529 0 l 1,33,-1
648 589 m 1,39,-1
 664 677 l 2,40,41
 673 725 673 725 699 761 c 128,-1,42
 725 797 725 797 763 817.5 c 128,-1,43
 801 838 801 838 846.5 840.5 c 128,-1,44
 892 843 892 843 939 827 c 1,45,-1
 900 715 l 1,46,47
 874 722 874 722 851.5 716.5 c 128,-1,48
 829 711 829 711 814 692.5 c 128,-1,49
 799 674 799 674 793 645 c 2,50,-1
 782 589 l 1,51,-1
 648 589 l 1,39,-1
EndSplineSet
EndChar

StartChar: uni01E4.ss01
Encoding: 65630 -1 456
Width: 816
GlyphClass: 2
Flags: W
AnchorPoint: "Anchor-3" 502 700 basechar 0
AnchorPoint: "Anchor-0" 367 0 basechar 0
LayerCount: 2
Fore
SplineSet
364 -12 m 0,0,1
 275 -12 275 -12 204 25 c 128,-1,2
 133 62 133 62 92 129.5 c 128,-1,3
 51 197 51 197 51 290 c 0,4,5
 51 380 51 380 82.5 457 c 128,-1,6
 114 534 114 534 172 591 c 128,-1,7
 230 648 230 648 311 680 c 128,-1,8
 392 712 392 712 491 712 c 0,9,10
 589 712 589 712 663.5 680.5 c 128,-1,11
 738 649 738 649 783 590 c 1,12,-1
 667 496 l 1,13,14
 632 538 632 538 587.5 556 c 128,-1,15
 543 574 543 574 483 574 c 0,16,17
 422 574 422 574 372.5 553.5 c 128,-1,18
 323 533 323 533 288 496 c 128,-1,19
 253 459 253 459 234 409.5 c 128,-1,20
 215 360 215 360 215 302 c 0,21,22
 215 249 215 249 236 208.5 c 128,-1,23
 257 168 257 168 298 146 c 128,-1,24
 339 124 339 124 398 124 c 0,25,26
 447 124 447 124 491.5 144 c 128,-1,27
 536 164 536 164 570 200 c 1,28,-1
 626 133 l 1,29,30
 591 80 591 80 551 48 c 128,-1,31
 511 16 511 16 465 2 c 128,-1,32
 419 -12 419 -12 364 -12 c 0,0,1
529 0 m 1,33,-1
 546 86 l 1,34,-1
 524 103 l 1,35,-1
 575 361 l 1,36,-1
 723 361 l 1,37,-1
 649 0 l 1,38,-1
 529 0 l 1,33,-1
412 208 m 1,39,-1
 433 317 l 1,40,-1
 803 317 l 1,41,-1
 782 208 l 1,42,-1
 412 208 l 1,39,-1
EndSplineSet
EndChar

StartChar: I.ss01
Encoding: 65631 -1 457
Width: 483
GlyphClass: 2
Flags: W
AnchorPoint: "Anchor-3" 328 700 basechar 0
AnchorPoint: "Anchor-2" 269 0 basechar 0
AnchorPoint: "Anchor-0" 188 0 basechar 0
LayerCount: 2
Fore
SplineSet
110 17 m 1,0,-1
 243 684 l 1,1,-1
 406 684 l 1,2,-1
 273 17 l 1,3,-1
 110 17 l 1,0,-1
-15 0 m 1,4,-1
 10 129 l 1,5,-1
 416 129 l 1,6,-1
 391 0 l 1,7,-1
 -15 0 l 1,4,-1
100 571 m 1,8,-1
 125 700 l 1,9,-1
 531 700 l 1,10,-1
 506 571 l 1,11,-1
 100 571 l 1,8,-1
EndSplineSet
EndChar

StartChar: IJ.ss01
Encoding: 65632 -1 458
Width: 716
GlyphClass: 2
Flags: W
AnchorPoint: "Anchor-3" 253 700 basechar 0
LayerCount: 2
Fore
SplineSet
277 -109 m 0,0,1
 188 -109 188 -109 119.5 -88 c 128,-1,2
 51 -67 51 -67 3 -32 c 1,3,-1
 82 91 l 1,4,5
 127 59 127 59 179 43 c 128,-1,6
 231 27 231 27 286 27 c 0,7,8
 364 27 364 27 408.5 69 c 128,-1,9
 453 111 453 111 473 209 c 2,10,-1
 570 700 l 1,11,-1
 732 700 l 1,12,-1
 634 203 l 2,13,14
 602 44 602 44 512.5 -32.5 c 128,-1,15
 423 -109 423 -109 277 -109 c 0,0,1
67 222 m 1,16,-1
 163 700 l 1,17,-1
 325 700 l 1,18,-1
 230 222 l 1,19,-1
 67 222 l 1,16,-1
EndSplineSet
EndChar

StartChar: uni0197.ss01
Encoding: 65646 -1 472
Width: 483
GlyphClass: 2
Flags: W
AnchorPoint: "Anchor-3" 328 700 basechar 0
AnchorPoint: "Anchor-2" 269 0 basechar 0
AnchorPoint: "Anchor-0" 188 0 basechar 0
LayerCount: 2
Fore
SplineSet
110 17 m 1,0,-1
 243 684 l 1,1,-1
 406 684 l 1,2,-1
 273 17 l 1,3,-1
 110 17 l 1,0,-1
-15 0 m 1,4,-1
 10 129 l 1,5,-1
 416 129 l 1,6,-1
 391 0 l 1,7,-1
 -15 0 l 1,4,-1
100 571 m 1,8,-1
 125 700 l 1,9,-1
 531 700 l 1,10,-1
 506 571 l 1,11,-1
 100 571 l 1,8,-1
79 303 m 1,12,-1
 100 412 l 1,13,-1
 440 412 l 1,14,-1
 419 303 l 1,15,-1
 79 303 l 1,12,-1
EndSplineSet
EndChar

StartChar: J.ss01
Encoding: 65649 -1 475
Width: 533
GlyphClass: 2
Flags: W
AnchorPoint: "Anchor-3" 347 700 basechar 0
LayerCount: 2
Fore
SplineSet
159 -112 m 0,0,1
 79 -112 79 -112 21 -85 c 128,-1,2
 -37 -58 -37 -58 -69 -7 c 1,3,-1
 38 95 l 1,4,5
 59 60 59 60 90 40.5 c 128,-1,6
 121 21 121 21 161 21 c 0,7,8
 207 21 207 21 236.5 47 c 128,-1,9
 266 73 266 73 277 130 c 2,10,-1
 364 570 l 1,11,-1
 118 570 l 1,12,-1
 145 700 l 1,13,-1
 551 700 l 1,14,-1
 438 138 l 2,15,16
 411 1 411 1 342 -55.5 c 128,-1,17
 273 -112 273 -112 159 -112 c 0,0,1
EndSplineSet
EndChar

StartChar: uniA7B2.ss01
Encoding: 65651 -1 477
Width: 566
GlyphClass: 2
Flags: W
AnchorPoint: "Anchor-3" 355 700 basechar 0
LayerCount: 2
Fore
SplineSet
180 -110 m 0,0,1
 114 -110 114 -110 67 -88 c 128,-1,2
 20 -66 20 -66 -2 -26 c 128,-1,3
 -24 14 -24 14 -16 65 c 0,4,5
 -4 132 -4 132 52 169 c 128,-1,6
 108 206 108 206 199 206 c 2,7,-1
 535 206 l 1,8,-1
 514 100 l 1,9,-1
 200 100 l 2,10,11
 164 100 164 100 143.5 89 c 128,-1,12
 123 78 123 78 118 57 c 0,13,14
 113 33 113 33 130 16.5 c 128,-1,15
 147 0 147 0 178 0 c 0,16,17
 203 0 203 0 222.5 11 c 128,-1,18
 242 22 242 22 255.5 43.5 c 128,-1,19
 269 65 269 65 276 96 c 2,20,-1
 371 570 l 1,21,-1
 125 570 l 1,22,-1
 151 700 l 1,23,-1
 558 700 l 1,24,-1
 436 91 l 2,25,26
 424 29 424 29 389 -16 c 128,-1,27
 354 -61 354 -61 301 -85.5 c 128,-1,28
 248 -110 248 -110 180 -110 c 0,0,1
EndSplineSet
EndChar

StartChar: uni0248.ss01
Encoding: 65652 -1 478
Width: 533
GlyphClass: 2
Flags: W
AnchorPoint: "Anchor-3" 347 700 basechar 0
LayerCount: 2
Fore
SplineSet
159 -112 m 0,0,1
 79 -112 79 -112 21 -85 c 128,-1,2
 -37 -58 -37 -58 -69 -7 c 1,3,-1
 38 95 l 1,4,5
 59 60 59 60 90 40.5 c 128,-1,6
 121 21 121 21 161 21 c 0,7,8
 207 21 207 21 236 47 c 128,-1,9
 265 73 265 73 277 130 c 2,10,-1
 364 570 l 1,11,-1
 118 570 l 1,12,-1
 145 700 l 1,13,-1
 551 700 l 1,14,-1
 438 138 l 2,15,16
 411 1 411 1 342 -55.5 c 128,-1,17
 273 -112 273 -112 159 -112 c 0,0,1
179 303 m 1,18,-1
 200 412 l 1,19,-1
 581 412 l 1,20,-1
 560 303 l 1,21,-1
 179 303 l 1,18,-1
EndSplineSet
EndChar

StartChar: M.ss01
Encoding: 65654 -1 480
Width: 1202
GlyphClass: 2
Flags: W
AnchorPoint: "Anchor-3" 716 700 basechar 0
AnchorPoint: "Anchor-0" 554 0 basechar 0
LayerCount: 2
Fore
SplineSet
29 0 m 1,0,-1
 169 700 l 1,1,-1
 326 700 l 1,2,-1
 295 548 l 1,3,-1
 276 573 l 1,4,5
 315 639 315 639 376.5 675.5 c 128,-1,6
 438 712 438 712 524 712 c 0,7,8
 613 712 613 712 667 672 c 128,-1,9
 721 632 721 632 729 561 c 1,10,-1
 681 565 l 1,11,12
 726 636 726 636 794 674 c 128,-1,13
 862 712 862 712 951 712 c 0,14,15
 1031 712 1031 712 1085.5 680 c 128,-1,16
 1140 648 1140 648 1162 585 c 128,-1,17
 1184 522 1184 522 1166 430 c 2,18,-1
 1080 0 l 1,19,-1
 918 0 l 1,20,-1
 1002 425 l 2,21,22
 1018 502 1018 502 987 538 c 128,-1,23
 956 574 956 574 893 574 c 0,24,25
 829 574 829 574 780.5 535.5 c 128,-1,26
 732 497 732 497 715 415 c 2,27,-1
 633 0 l 1,28,-1
 470 0 l 1,29,-1
 555 425 l 2,30,31
 570 502 570 502 541.5 538 c 128,-1,32
 513 574 513 574 451 574 c 0,33,34
 410 574 410 574 374 557.5 c 128,-1,35
 338 541 338 541 312 506 c 128,-1,36
 286 471 286 471 274 415 c 2,37,-1
 192 0 l 1,38,-1
 29 0 l 1,0,-1
EndSplineSet
EndChar

StartChar: N.ss01
Encoding: 65656 -1 482
Width: 788
GlyphClass: 2
Flags: W
AnchorPoint: "Anchor-3" 487 700 basechar 0
AnchorPoint: "Anchor-0" 347 0 basechar 0
LayerCount: 2
Fore
SplineSet
521 712 m 0,0,1
 605 712 605 712 662 673.5 c 128,-1,2
 719 635 719 635 741.5 564 c 128,-1,3
 764 493 764 493 744 392 c 2,4,-1
 666 0 l 1,5,-1
 503 0 l 1,6,-1
 582 396 l 2,7,8
 601 485 601 485 569 529.5 c 128,-1,9
 537 574 537 574 463 574 c 0,10,11
 394 574 394 574 342 533 c 128,-1,12
 290 492 290 492 271 399 c 2,13,-1
 192 0 l 1,14,-1
 29 0 l 1,15,-1
 169 700 l 1,16,-1
 326 700 l 1,17,-1
 293 532 l 1,18,-1
 275 581 l 1,19,20
 317 645 317 645 380 678.5 c 128,-1,21
 443 712 443 712 521 712 c 0,0,1
EndSplineSet
EndChar

StartChar: Eng.ss01
Encoding: 65668 -1 494
Width: 788
GlyphClass: 2
Flags: W
AnchorPoint: "Anchor-3" 481 700 basechar 0
AnchorPoint: "Anchor-0" 302 -194 basechar 0
LayerCount: 2
Fore
SplineSet
521 712 m 0,0,1
 605 712 605 712 662 673.5 c 128,-1,2
 719 635 719 635 741.5 564 c 128,-1,3
 764 493 764 493 744 392 c 2,4,-1
 679 67 l 2,5,6
 658 -38 658 -38 618.5 -96.5 c 128,-1,7
 579 -155 579 -155 522.5 -178.5 c 128,-1,8
 466 -202 466 -202 392 -202 c 0,9,10
 334 -202 334 -202 284 -184.5 c 128,-1,11
 234 -167 234 -167 203 -132 c 1,12,-1
 293 -22 l 1,13,14
 310 -43 310 -43 337 -56 c 128,-1,15
 364 -69 364 -69 399 -69 c 0,16,17
 443 -69 443 -69 471.5 -42.5 c 128,-1,18
 500 -16 500 -16 513 47 c 2,19,-1
 582 396 l 2,20,21
 601 485 601 485 569 529.5 c 128,-1,22
 537 574 537 574 463 574 c 0,23,24
 394 574 394 574 342 533 c 128,-1,25
 290 492 290 492 271 399 c 2,26,-1
 192 0 l 1,27,-1
 29 0 l 1,28,-1
 169 700 l 1,29,-1
 326 700 l 1,30,-1
 293 532 l 1,31,-1
 275 581 l 1,32,33
 317 645 317 645 380 678.5 c 128,-1,34
 443 712 443 712 521 712 c 0,0,1
EndSplineSet
EndChar

StartChar: Q.ss01
Encoding: 65669 -1 495
Width: 844
GlyphClass: 2
Flags: W
AnchorPoint: "Anchor-3" 509 700 basechar 0
LayerCount: 2
Fore
SplineSet
392 -12 m 0,0,1
 286 -12 286 -12 209.5 26.5 c 128,-1,2
 133 65 133 65 92 133.5 c 128,-1,3
 51 202 51 202 51 292 c 256,4,5
 51 382 51 382 82 458.5 c 128,-1,6
 113 535 113 535 170.5 591.5 c 128,-1,7
 228 648 228 648 307.5 680 c 128,-1,8
 387 712 387 712 484 712 c 0,9,10
 590 712 590 712 666.5 673.5 c 128,-1,11
 743 635 743 635 784 566.5 c 128,-1,12
 825 498 825 498 825 408 c 256,13,14
 825 318 825 318 794 241.5 c 128,-1,15
 763 165 763 165 705.5 108.5 c 128,-1,16
 648 52 648 52 568.5 20 c 128,-1,17
 489 -12 489 -12 392 -12 c 0,0,1
260 -135 m 1,18,-1
 290 16 l 1,19,-1
 305 67 l 1,20,-1
 348 281 l 1,21,-1
 498 281 l 1,22,-1
 455 67 l 1,23,-1
 453 18 l 1,24,-1
 422 -135 l 1,25,-1
 260 -135 l 1,18,-1
406 126 m 0,26,27
 465 126 465 126 512.5 147.5 c 128,-1,28
 560 169 560 169 593 207 c 128,-1,29
 626 245 626 245 643.5 294.5 c 128,-1,30
 661 344 661 344 661 399 c 0,31,32
 661 451 661 451 639 490.5 c 128,-1,33
 617 530 617 530 574.5 552 c 128,-1,34
 532 574 532 574 470 574 c 0,35,36
 411 574 411 574 364 552.5 c 128,-1,37
 317 531 317 531 283.5 493 c 128,-1,38
 250 455 250 455 232.5 405.5 c 128,-1,39
 215 356 215 356 215 301 c 0,40,41
 215 249 215 249 237.5 209.5 c 128,-1,42
 260 170 260 170 302.5 148 c 128,-1,43
 345 126 345 126 406 126 c 0,26,27
EndSplineSet
EndChar

StartChar: T.ss01
Encoding: 65670 -1 496
Width: 638
GlyphClass: 2
Flags: W
AnchorPoint: "Anchor-3" 408 700 basechar 0
AnchorPoint: "Anchor-1" 335 341 basechar 0
AnchorPoint: "Anchor-0" 264 0 basechar 0
LayerCount: 2
Fore
SplineSet
97 507 m 1,0,-1
 55 629 l 1,1,2
 100 656 100 656 155 674.5 c 128,-1,3
 210 693 210 693 270 702.5 c 128,-1,4
 330 712 330 712 389 712 c 0,5,6
 484 712 484 712 567.5 690 c 128,-1,7
 651 668 651 668 715 625 c 1,8,-1
 644 504 l 1,9,10
 584 540 584 540 516 558 c 128,-1,11
 448 576 448 576 365 576 c 0,12,13
 292 576 292 576 223 558.5 c 128,-1,14
 154 541 154 541 97 507 c 1,0,-1
183 0 m 1,15,-1
 310 632 l 1,16,-1
 472 632 l 1,17,-1
 346 0 l 1,18,-1
 183 0 l 1,15,-1
EndSplineSet
EndChar

StartChar: Tbar.ss01
Encoding: 65671 -1 497
Width: 638
GlyphClass: 2
Flags: W
AnchorPoint: "Anchor-3" 408 700 basechar 0
AnchorPoint: "Anchor-1" 335 351 basechar 0
AnchorPoint: "Anchor-0" 264 0 basechar 0
LayerCount: 2
Fore
SplineSet
97 507 m 1,0,-1
 55 629 l 1,1,2
 100 656 100 656 155 674.5 c 128,-1,3
 210 693 210 693 270 702.5 c 128,-1,4
 330 712 330 712 389 712 c 0,5,6
 484 712 484 712 567.5 690 c 128,-1,7
 651 668 651 668 715 625 c 1,8,-1
 644 504 l 1,9,10
 584 540 584 540 516 558 c 128,-1,11
 448 576 448 576 365 576 c 0,12,13
 292 576 292 576 223 558.5 c 128,-1,14
 154 541 154 541 97 507 c 1,0,-1
183 0 m 1,15,-1
 310 632 l 1,16,-1
 472 632 l 1,17,-1
 346 0 l 1,18,-1
 183 0 l 1,15,-1
109 287 m 1,19,-1
 130 395 l 1,20,-1
 557 395 l 1,21,-1
 536 287 l 1,22,-1
 109 287 l 1,19,-1
EndSplineSet
EndChar

StartChar: uni023E.ss01
Encoding: 65676 -1 502
Width: 638
GlyphClass: 2
Flags: W
AnchorPoint: "Anchor-3" 410 700 basechar 0
AnchorPoint: "Anchor-1" 332 339 basechar 0
AnchorPoint: "Anchor-0" 268 0 basechar 0
LayerCount: 2
Fore
SplineSet
50 -70 m 1,0,-1
 603 770 l 1,1,-1
 701 770 l 1,2,-1
 149 -70 l 1,3,-1
 50 -70 l 1,0,-1
189 0 m 1,4,-1
 317 635 l 1,5,-1
 471 635 l 1,6,-1
 344 0 l 1,7,-1
 189 0 l 1,4,-1
644 504 m 1,8,9
 584 540 584 540 516 558 c 128,-1,10
 448 576 448 576 365 576 c 0,11,12
 292 576 292 576 223 558.5 c 128,-1,13
 154 541 154 541 97 507 c 1,14,-1
 55 629 l 1,15,16
 100 656 100 656 155 674.5 c 128,-1,17
 210 693 210 693 270 702.5 c 128,-1,18
 330 712 330 712 389 712 c 0,19,20
 484 712 484 712 567.5 690 c 128,-1,21
 651 668 651 668 715 625 c 1,22,-1
 644 504 l 1,8,9
EndSplineSet
Substitution2: "'rvrn' Required Variation Alternates lookup 1 subtable" uni023E.ss01.BRACKET.varAlt01
Substitution2: "'rvrn' Required Variation Alternates lookup 0 subtable" uni023E.ss01.BRACKET.varAlt01
EndChar

StartChar: uni01AC.ss01
Encoding: 65679 -1 505
Width: 671
GlyphClass: 2
Flags: W
AnchorPoint: "Anchor-3" 440 700 basechar 0
AnchorPoint: "Anchor-1" 367 329 basechar 0
AnchorPoint: "Anchor-0" 301 0 basechar 0
LayerCount: 2
Fore
SplineSet
59 358 m 1,0,1
 22 435 22 435 29.5 499.5 c 128,-1,2
 37 564 37 564 84.5 611.5 c 128,-1,3
 132 659 132 659 214.5 685.5 c 128,-1,4
 297 712 297 712 410 712 c 0,5,6
 509 712 509 712 597 688 c 128,-1,7
 685 664 685 664 748 620 c 1,8,-1
 678 509 l 1,9,10
 632 535 632 535 588.5 551 c 128,-1,11
 545 567 545 567 497.5 574 c 128,-1,12
 450 581 450 581 393 581 c 0,13,14
 289 581 289 581 230 562 c 128,-1,15
 171 543 171 543 156.5 503 c 128,-1,16
 142 463 142 463 170 399 c 1,17,-1
 59 358 l 1,0,1
220 0 m 1,18,-1
 347 634 l 1,19,-1
 509 634 l 1,20,-1
 383 0 l 1,21,-1
 220 0 l 1,18,-1
EndSplineSet
EndChar

StartChar: uni01AE.ss01
Encoding: 65681 -1 507
Width: 653
GlyphClass: 2
Flags: W
AnchorPoint: "Anchor-3" 413 700 basechar 0
AnchorPoint: "Anchor-0" 273 0 basechar 0
LayerCount: 2
Fore
SplineSet
469 -184 m 1,0,1
 424 -199 424 -199 379 -201.5 c 128,-1,2
 334 -204 334 -204 294.5 -194 c 128,-1,3
 255 -184 255 -184 226.5 -160.5 c 128,-1,4
 198 -137 198 -137 185.5 -98.5 c 128,-1,5
 173 -60 173 -60 184 -9 c 2,6,-1
 312 632 l 1,7,-1
 475 632 l 1,8,-1
 346 -5 l 2,9,10
 341 -29 341 -29 347.5 -45 c 128,-1,11
 354 -61 354 -61 368.5 -69 c 128,-1,12
 383 -77 383 -77 406 -76.5 c 128,-1,13
 429 -76 429 -76 456 -68 c 1,14,-1
 469 -184 l 1,0,1
647 504 m 1,15,16
 586 540 586 540 518 558 c 128,-1,17
 450 576 450 576 367 576 c 0,18,19
 294 576 294 576 225 558.5 c 128,-1,20
 156 541 156 541 99 507 c 1,21,-1
 57 629 l 1,22,23
 102 656 102 656 157 674.5 c 128,-1,24
 212 693 212 693 272.5 702.5 c 128,-1,25
 333 712 333 712 392 712 c 0,26,27
 486 712 486 712 569.5 690 c 128,-1,28
 653 668 653 668 718 625 c 1,29,-1
 647 504 l 1,15,16
EndSplineSet
EndChar

StartChar: uniA7B1.ss01
Encoding: 65682 -1 508
Width: 638
GlyphClass: 1
Flags: W
LayerCount: 2
Fore
SplineSet
571 205 m 1,0,-1
 612 83 l 1,1,2
 568 55 568 55 512.5 37 c 128,-1,3
 457 19 457 19 397 9.5 c 128,-1,4
 337 0 337 0 278 0 c 0,5,6
 184 0 184 0 100.5 22.5 c 128,-1,7
 17 45 17 45 -48 86 c 1,8,-1
 23 208 l 1,9,10
 84 172 84 172 151.5 154 c 128,-1,11
 219 136 219 136 303 136 c 0,12,13
 376 136 376 136 445 153.5 c 128,-1,14
 514 171 514 171 571 205 c 1,0,-1
484 712 m 1,15,-1
 357 80 l 1,16,-1
 195 80 l 1,17,-1
 321 712 l 1,18,-1
 484 712 l 1,15,-1
EndSplineSet
EndChar

StartChar: U.ss01
Encoding: 65683 -1 509
Width: 785
GlyphClass: 2
Flags: W
AnchorPoint: "Anchor-4" 718 700 basechar 0
AnchorPoint: "Anchor-3" 472 700 basechar 0
AnchorPoint: "Anchor-2" 649 0 basechar 0
AnchorPoint: "Anchor-0" 332 0 basechar 0
LayerCount: 2
Fore
SplineSet
300 -12 m 0,0,1
 216 -12 216 -12 158.5 26 c 128,-1,2
 101 64 101 64 78.5 135.5 c 128,-1,3
 56 207 56 207 76 308 c 2,4,-1
 155 700 l 1,5,-1
 317 700 l 1,6,-1
 238 304 l 2,7,8
 220 215 220 215 251 170.5 c 128,-1,9
 282 126 282 126 356 126 c 0,10,11
 425 126 425 126 476.5 167 c 128,-1,12
 528 208 528 208 546 301 c 2,13,-1
 626 700 l 1,14,-1
 789 700 l 1,15,-1
 649 0 l 1,16,-1
 491 0 l 1,17,-1
 525 168 l 1,18,-1
 542 119 l 1,19,20
 501 56 501 56 439 22 c 128,-1,21
 377 -12 377 -12 300 -12 c 0,0,1
EndSplineSet
EndChar

StartChar: uni0244.ss01
Encoding: 65685 -1 511
Width: 820
GlyphClass: 2
Flags: W
AnchorPoint: "Anchor-4" 736 700 basechar 0
AnchorPoint: "Anchor-3" 490 700 basechar 0
AnchorPoint: "Anchor-2" 667 0 basechar 0
AnchorPoint: "Anchor-0" 350 0 basechar 0
LayerCount: 2
Fore
SplineSet
318 -12 m 0,0,1
 234 -12 234 -12 176.5 26 c 128,-1,2
 119 64 119 64 96.5 135.5 c 128,-1,3
 74 207 74 207 94 308 c 2,4,-1
 173 700 l 1,5,-1
 335 700 l 1,6,-1
 256 304 l 2,7,8
 238 215 238 215 269 170.5 c 128,-1,9
 300 126 300 126 374 126 c 0,10,11
 443 126 443 126 494.5 167 c 128,-1,12
 546 208 546 208 565 301 c 2,13,-1
 644 700 l 1,14,-1
 807 700 l 1,15,-1
 667 0 l 1,16,-1
 510 0 l 1,17,-1
 543 168 l 1,18,-1
 560 119 l 1,19,20
 519 56 519 56 457 22 c 128,-1,21
 395 -12 395 -12 318 -12 c 0,0,1
4 303 m 1,22,-1
 25 412 l 1,23,-1
 838 412 l 1,24,-1
 818 303 l 1,25,-1
 4 303 l 1,22,-1
EndSplineSet
EndChar

StartChar: W.ss01
Encoding: 65715 -1 541
Width: 1191
GlyphClass: 2
Flags: W
AnchorPoint: "Anchor-3" 684 700 basechar 0
AnchorPoint: "Anchor-0" 544 0 basechar 0
LayerCount: 2
Fore
SplineSet
333 -12 m 0,0,1
 240 -12 240 -12 174.5 23.5 c 128,-1,2
 109 59 109 59 80.5 127 c 128,-1,3
 52 195 52 195 73 291 c 2,4,-1
 160 700 l 1,5,-1
 320 700 l 1,6,-1
 229 269 l 2,7,8
 214 194 214 194 246.5 160 c 128,-1,9
 279 126 279 126 345 126 c 0,10,11
 412 126 412 126 455.5 164.5 c 128,-1,12
 499 203 499 203 517 286 c 2,13,-1
 605 700 l 1,14,-1
 764 700 l 1,15,-1
 673 275 l 2,16,17
 658 200 658 200 687.5 163 c 128,-1,18
 717 126 717 126 784 126 c 0,19,20
 859 126 859 126 901 164 c 128,-1,21
 943 202 943 202 960 283 c 2,22,-1
 1048 700 l 1,23,-1
 1208 700 l 1,24,-1
 1121 286 l 2,25,26
 1088 130 1088 130 1002 59 c 128,-1,27
 916 -12 916 -12 761 -12 c 0,28,29
 679 -12 679 -12 621.5 18.5 c 128,-1,30
 564 49 564 49 538 107 c 1,31,-1
 595 107 l 1,32,33
 550 48 550 48 482 18 c 128,-1,34
 414 -12 414 -12 333 -12 c 0,0,1
EndSplineSet
EndChar

StartChar: uni2C72.ss01
Encoding: 65722 -1 548
Width: 1193
GlyphClass: 2
Flags: W
AnchorPoint: "Anchor-3" 685 700 basechar 0
AnchorPoint: "Anchor-0" 545 0 basechar 0
LayerCount: 2
Fore
SplineSet
333 -12 m 0,0,1
 262 -12 262 -12 207 9 c 128,-1,2
 152 30 152 30 116.5 69.5 c 128,-1,3
 81 109 81 109 69.5 164.5 c 128,-1,4
 58 220 58 220 73 291 c 2,5,-1
 160 700 l 1,6,-1
 320 700 l 1,7,-1
 229 269 l 2,8,9
 214 197 214 197 245 161.5 c 128,-1,10
 276 126 276 126 345 126 c 0,11,12
 415 126 415 126 457.5 166 c 128,-1,13
 500 206 500 206 517 286 c 2,14,-1
 605 700 l 1,15,-1
 764 700 l 1,16,-1
 673 275 l 2,17,18
 658 203 658 203 686.5 164.5 c 128,-1,19
 715 126 715 126 784 126 c 0,20,21
 860 126 860 126 901.5 164.5 c 128,-1,22
 943 203 943 203 960 283 c 2,23,-1
 1023 582 l 2,24,25
 1036 636 1036 636 1061.5 672.5 c 128,-1,26
 1087 709 1087 709 1121.5 729 c 128,-1,27
 1156 749 1156 749 1193.5 753.5 c 128,-1,28
 1231 758 1231 758 1268 748.5 c 128,-1,29
 1305 739 1305 739 1335 717 c 1,30,-1
 1272 603 l 1,31,32
 1253 615 1253 615 1233 613 c 128,-1,33
 1213 611 1213 611 1198.5 597.5 c 128,-1,34
 1184 584 1184 584 1178 560 c 2,35,-1
 1121 286 l 2,36,37
 1088 129 1088 129 1002 58.5 c 128,-1,38
 916 -12 916 -12 761 -12 c 0,39,40
 678 -12 678 -12 620.5 19 c 128,-1,41
 563 50 563 50 538 107 c 1,42,-1
 595 107 l 1,43,44
 552 50 552 50 484.5 19 c 128,-1,45
 417 -12 417 -12 333 -12 c 0,0,1
EndSplineSet
EndChar

StartChar: Y.ss01
Encoding: 65723 -1 549
Width: 768
GlyphClass: 2
Flags: W
AnchorPoint: "Anchor-3" 468 700 basechar 0
AnchorPoint: "Anchor-2" 378 -100 basechar 0
AnchorPoint: "Anchor-0" 629 0 basechar 0
LayerCount: 2
Fore
SplineSet
624 700 m 1,0,-1
 786 700 l 1,1,-1
 687 204 l 2,2,3
 655 45 655 45 560 -31.5 c 128,-1,4
 465 -108 465 -108 315 -108 c 0,5,6
 218 -108 218 -108 147 -82.5 c 128,-1,7
 76 -57 76 -57 27 -13 c 1,8,-1
 108 108 l 1,9,10
 197 29 197 29 322 29 c 0,11,12
 406 29 406 29 456.5 71.5 c 128,-1,13
 507 114 507 114 526 211 c 2,14,-1
 552 344 l 1,15,-1
 576 298 l 1,16,17
 534 235 534 235 472 201 c 128,-1,18
 410 167 410 167 334 167 c 0,19,20
 249 167 249 167 190.5 205 c 128,-1,21
 132 243 132 243 109.5 314.5 c 128,-1,22
 87 386 87 386 107 488 c 2,23,-1
 150 700 l 1,24,-1
 312 700 l 1,25,-1
 269 484 l 2,26,27
 251 394 251 394 283.5 349.5 c 128,-1,28
 316 305 316 305 390 305 c 0,29,30
 458 305 458 305 509.5 346 c 128,-1,31
 561 387 561 387 580 480 c 2,32,-1
 624 700 l 1,0,-1
EndSplineSet
EndChar

StartChar: uni01B3.ss01
Encoding: 65730 -1 556
Width: 825
GlyphClass: 2
Flags: W
AnchorPoint: "Anchor-3" 467 700 basechar 0
AnchorPoint: "Anchor-0" 609 0 basechar 0
LayerCount: 2
Fore
SplineSet
315 -108 m 0,0,1
 218 -108 218 -108 147 -82.5 c 128,-1,2
 76 -57 76 -57 27 -13 c 1,3,-1
 108 108 l 1,4,5
 197 29 197 29 322 29 c 0,6,7
 406 29 406 29 456.5 71.5 c 128,-1,8
 507 114 507 114 526 211 c 2,9,-1
 552 344 l 1,10,-1
 576 298 l 1,11,12
 534 235 534 235 472 201 c 128,-1,13
 410 167 410 167 334 167 c 0,14,15
 249 167 249 167 190.5 205 c 128,-1,16
 132 243 132 243 109.5 314.5 c 128,-1,17
 87 386 87 386 107 488 c 2,18,-1
 150 700 l 1,19,-1
 312 700 l 1,20,-1
 269 484 l 2,21,22
 251 394 251 394 283.5 349.5 c 128,-1,23
 316 305 316 305 390 305 c 0,24,25
 458 305 458 305 510 346 c 128,-1,26
 562 387 562 387 580 480 c 2,27,-1
 596 566 l 2,28,29
 608 627 608 627 641 669.5 c 128,-1,30
 674 712 674 712 720 733.5 c 128,-1,31
 766 755 766 755 816.5 751.5 c 128,-1,32
 867 748 867 748 913 715 c 1,33,-1
 853 603 l 1,34,35
 831 615 831 615 810.5 610.5 c 128,-1,36
 790 606 790 606 775 588.5 c 128,-1,37
 760 571 760 571 754 542 c 2,38,-1
 687 204 l 2,39,40
 655 45 655 45 560 -31.5 c 128,-1,41
 465 -108 465 -108 315 -108 c 0,0,1
EndSplineSet
EndChar

StartChar: uni024E.ss01
Encoding: 65733 -1 559
Width: 768
GlyphClass: 2
Flags: W
AnchorPoint: "Anchor-3" 468 700 basechar 0
AnchorPoint: "Anchor-0" 629 0 basechar 0
LayerCount: 2
Fore
SplineSet
624 700 m 1,0,-1
 786 700 l 1,1,-1
 687 204 l 2,2,3
 655 45 655 45 560 -31.5 c 128,-1,4
 465 -108 465 -108 315 -108 c 0,5,6
 218 -108 218 -108 147 -82.5 c 128,-1,7
 76 -57 76 -57 27 -13 c 1,8,-1
 108 108 l 1,9,10
 197 29 197 29 322 29 c 0,11,12
 406 29 406 29 456.5 71.5 c 128,-1,13
 507 114 507 114 526 211 c 2,14,-1
 552 344 l 1,15,-1
 576 298 l 1,16,17
 534 235 534 235 472 201 c 128,-1,18
 410 167 410 167 334 167 c 0,19,20
 249 167 249 167 190.5 205 c 128,-1,21
 132 243 132 243 109.5 314.5 c 128,-1,22
 87 386 87 386 107 488 c 2,23,-1
 150 700 l 1,24,-1
 312 700 l 1,25,-1
 269 484 l 2,26,27
 251 394 251 394 283.5 349.5 c 128,-1,28
 316 305 316 305 390 305 c 0,29,30
 458 305 458 305 509.5 346 c 128,-1,31
 561 387 561 387 580 480 c 2,32,-1
 624 700 l 1,0,-1
21 499 m 1,33,-1
 42 608 l 1,34,-1
 857 608 l 1,35,-1
 837 499 l 1,36,-1
 21 499 l 1,33,-1
EndSplineSet
EndChar

StartChar: Z.ss01
Encoding: 65735 -1 561
Width: 681
GlyphClass: 2
Flags: W
AnchorPoint: "Anchor-3" 435 700 basechar 0
AnchorPoint: "Anchor-0" 299 0 basechar 0
LayerCount: 2
Fore
SplineSet
-12 0 m 1,0,-1
 8 99 l 1,1,-1
 541 623 l 1,2,-1
 556 570 l 1,3,-1
 113 570 l 1,4,-1
 139 700 l 1,5,-1
 727 700 l 1,6,-1
 707 602 l 1,7,-1
 175 77 l 1,8,-1
 160 130 l 1,9,-1
 627 130 l 1,10,-1
 600 0 l 1,11,-1
 -12 0 l 1,0,-1
104 296 m 1,12,-1
 128 417 l 1,13,-1
 398 417 l 1,14,-1
 440 414 l 1,15,-1
 613 414 l 1,16,-1
 589 294 l 1,17,-1
 338 294 l 1,18,-1
 296 296 l 1,19,-1
 104 296 l 1,12,-1
EndSplineSet
EndChar

StartChar: uni01B2.loclTOD0.ss01
Encoding: 65746 -1 572
Width: 761
GlyphClass: 2
Flags: W
AnchorPoint: "Anchor-3" 459 700 basechar 0
AnchorPoint: "Anchor-0" 319 0 basechar 0
LayerCount: 2
Fore
SplineSet
399 0 m 1,0,-1
 279 78 l 1,1,-1
 695 741 l 2,2,3
 732 800 732 800 771 831 c 128,-1,4
 810 862 810 862 848 871 c 128,-1,5
 886 880 886 880 921 871 c 128,-1,6
 956 862 956 862 986 840 c 1,7,-1
 923 726 l 1,8,9
 898 741 898 741 874 731 c 128,-1,10
 850 721 850 721 825 683 c 2,11,-1
 399 0 l 1,0,-1
239 0 m 1,12,-1
 77 700 l 1,13,-1
 244 700 l 1,14,-1
 385 79 l 1,15,-1
 399 0 l 1,16,-1
 239 0 l 1,12,-1
EndSplineSet
EndChar

StartChar: T_h
Encoding: 65747 -1 573
Width: 1243
GlyphClass: 3
LigCaretCntFixed: 1
Flags: W
AnchorPoint: "Anchor-8" 397 700 baselig 0
AnchorPoint: "Anchor-6" 327 350 baselig 0
AnchorPoint: "Anchor-5" 257 0 baselig 0
AnchorPoint: "Anchor-8" 1018 700 baselig 1
AnchorPoint: "Anchor-5" 878 0 baselig 1
AnchorPoint: "Anchor-6" 948 350 baselig 1
LayerCount: 2
Fore
SplineSet
174 0 m 1,0,-1
 287 568 l 1,1,-1
 63 568 l 1,2,-1
 90 700 l 1,3,-1
 730 700 l 1,4,-1
 703 568 l 1,5,-1
 450 568 l 1,6,-1
 336 0 l 1,7,-1
 174 0 l 1,0,-1
992 546 m 0,8,9
 1061 546 1061 546 1109 517.5 c 128,-1,10
 1157 489 1157 489 1177 434 c 128,-1,11
 1197 379 1197 379 1180 298 c 2,12,-1
 1121 0 l 1,13,-1
 965 0 l 1,14,-1
 1022 288 l 2,15,16
 1034 347 1034 347 1012.5 379 c 128,-1,17
 991 411 991 411 934 411 c 0,18,19
 875 411 875 411 836 377 c 128,-1,20
 797 343 797 343 782 273 c 2,21,-1
 727 0 l 1,22,-1
 571 0 l 1,23,-1
 711 700 l 1,24,-1
 867 700 l 1,25,-1
 804 386 l 1,26,-1
 774 432 l 1,27,28
 812 491 812 491 869.5 518.5 c 128,-1,29
 927 546 927 546 992 546 c 0,8,9
EndSplineSet
Ligature2: "'dlig' Discretionary Ligatures lookup 51 subtable" T h
LCarets2: 1 584
EndChar

StartChar: Iacute_J.loclNLD.ss01
Encoding: 65748 -1 574
Width: 724
GlyphClass: 2
LigCaretCntFixed: 1
Flags: W
LayerCount: 2
Fore
SplineSet
274 -108 m 0,0,1
 186 -108 186 -108 118.5 -86.5 c 128,-1,2
 51 -65 51 -65 3 -29 c 1,3,-1
 82 93 l 1,4,5
 126 61 126 61 177 44.5 c 128,-1,6
 228 28 228 28 281 28 c 0,7,8
 361 28 361 28 407 70.5 c 128,-1,9
 453 113 453 113 472 211 c 2,10,-1
 570 700 l 1,11,-1
 732 700 l 1,12,-1
 633 204 l 2,13,14
 601 45 601 45 511.5 -31.5 c 128,-1,15
 422 -108 422 -108 274 -108 c 0,0,1
66 222 m 1,16,-1
 162 700 l 1,17,-1
 325 700 l 1,18,-1
 229 222 l 1,19,-1
 66 222 l 1,16,-1
180 757 m 1,20,-1
 343 901 l 1,21,-1
 499 901 l 1,22,-1
 289 757 l 1,23,-1
 180 757 l 1,20,-1
588 757 m 1,24,-1
 751 901 l 1,25,-1
 907 901 l 1,26,-1
 697 757 l 1,27,-1
 588 757 l 1,24,-1
EndSplineSet
LCarets2: 1 341
EndChar

StartChar: uni026A
Encoding: 618 618 575
Width: 388
GlyphClass: 2
Flags: W
AnchorPoint: "Anchor-3" 248 538 basechar 0
AnchorPoint: "Anchor-2" 218 0 basechar 0
AnchorPoint: "Anchor-0" 140 0 basechar 0
LayerCount: 2
Fore
SplineSet
56 420 m 1,0,-1
 80 538 l 1,1,-1
 416 538 l 1,2,-1
 392 420 l 1,3,-1
 56 420 l 1,0,-1
-28 0 m 1,4,-1
 -4 118 l 1,5,-1
 331 118 l 1,6,-1
 308 0 l 1,7,-1
 -28 0 l 1,4,-1
62 0 m 1,8,-1
 170 538 l 1,9,-1
 326 538 l 1,10,-1
 218 0 l 1,11,-1
 62 0 l 1,8,-1
EndSplineSet
Substitution2: "'smcp' Lowercase to Small Capitals lookup 49 subtable" uni026A.sc
Substitution2: "'aalt' Access All Alternates lookup 3 subtable" uni026A.sc
EndChar

StartChar: uni1D7B
Encoding: 7547 7547 576
Width: 421
GlyphClass: 2
Flags: W
AnchorPoint: "Anchor-3" 263 538 basechar 0
AnchorPoint: "Anchor-2" 233 0 basechar 0
AnchorPoint: "Anchor-0" 155 0 basechar 0
LayerCount: 2
Fore
SplineSet
71 420 m 1,0,-1
 95 538 l 1,1,-1
 430 538 l 1,2,-1
 407 420 l 1,3,-1
 71 420 l 1,0,-1
-13 0 m 1,4,-1
 11 118 l 1,5,-1
 346 118 l 1,6,-1
 323 0 l 1,7,-1
 -13 0 l 1,4,-1
77 0 m 1,8,-1
 184 538 l 1,9,-1
 341 538 l 1,10,-1
 233 0 l 1,11,-1
 77 0 l 1,8,-1
39 229 m 1,12,-1
 58 319 l 1,13,-1
 381 319 l 1,14,-1
 362 229 l 1,15,-1
 39 229 l 1,12,-1
EndSplineSet
Substitution2: "'smcp' Lowercase to Small Capitals lookup 49 subtable" uni1D7B.sc
Substitution2: "'aalt' Access All Alternates lookup 3 subtable" uni1D7B.sc
EndChar

StartChar: uni0274
Encoding: 628 628 577
Width: 671
GlyphClass: 2
Flags: W
AnchorPoint: "Anchor-3" 389 540 basechar 0
AnchorPoint: "Anchor-0" 282 0 basechar 0
LayerCount: 2
Fore
SplineSet
7 0 m 1,0,-1
 115 540 l 1,1,-1
 244 540 l 1,2,-1
 492 184 l 1,3,-1
 438 186 l 1,4,-1
 510 540 l 1,5,-1
 664 540 l 1,6,-1
 555 0 l 1,7,-1
 426 0 l 1,8,-1
 179 356 l 1,9,-1
 232 355 l 1,10,-1
 161 0 l 1,11,-1
 7 0 l 1,0,-1
EndSplineSet
Substitution2: "'smcp' Lowercase to Small Capitals lookup 49 subtable" uni0274.sc
Substitution2: "'aalt' Access All Alternates lookup 3 subtable" uni0274.sc
EndChar

StartChar: uni0280
Encoding: 640 640 578
Width: 615
GlyphClass: 2
Flags: W
AnchorPoint: "Anchor-3" 366 540 basechar 0
AnchorPoint: "Anchor-0" 259 0 basechar 0
LayerCount: 2
Fore
SplineSet
7 0 m 1,0,-1
 115 540 l 1,1,-1
 360 540 l 2,2,3
 472 540 472 540 534 494 c 128,-1,4
 596 448 596 448 596 363 c 0,5,6
 596 296 596 296 561 246.5 c 128,-1,7
 526 197 526 197 462.5 169.5 c 128,-1,8
 399 142 399 142 312 142 c 2,9,-1
 123 142 l 1,10,-1
 206 210 l 1,11,-1
 165 0 l 1,12,-1
 7 0 l 1,0,-1
375 0 m 1,13,-1
 253 197 l 1,14,-1
 416 197 l 1,15,-1
 539 0 l 1,16,-1
 375 0 l 1,13,-1
202 191 m 1,17,-1
 147 263 l 1,18,-1
 319 263 l 2,19,20
 375 263 375 263 406 285.5 c 128,-1,21
 437 308 437 308 437 348 c 0,22,23
 437 385 437 385 410.5 400.5 c 128,-1,24
 384 416 384 416 339 416 c 2,25,-1
 179 416 l 1,26,-1
 262 491 l 1,27,-1
 202 191 l 1,17,-1
EndSplineSet
Substitution2: "'smcp' Lowercase to Small Capitals lookup 49 subtable" uni0280.sc
Substitution2: "'aalt' Access All Alternates lookup 3 subtable" uni0280.sc
EndChar

StartChar: a
Encoding: 97 97 580
Width: 690
GlyphClass: 2
Flags: W
AnchorPoint: "Anchor-3" 403 538 basechar 0
AnchorPoint: "Anchor-2" 565 0 basechar 0
AnchorPoint: "Anchor-0" 283 0 basechar 0
LayerCount: 2
Fore
SplineSet
262 -8 m 0,0,1
 200 -8 200 -8 147 20.5 c 128,-1,2
 94 49 94 49 62 103 c 128,-1,3
 30 157 30 157 30 233 c 0,4,5
 30 301 30 301 52.5 358 c 128,-1,6
 75 415 75 415 116 457 c 128,-1,7
 157 499 157 499 211 522.5 c 128,-1,8
 265 546 265 546 327 546 c 0,9,10
 394 546 394 546 442 521 c 128,-1,11
 490 496 490 496 513.5 443.5 c 128,-1,12
 537 391 537 391 530 308 c 0,13,14
 525 213 525 213 491 141.5 c 128,-1,15
 457 70 457 70 399.5 31 c 128,-1,16
 342 -8 342 -8 262 -8 c 0,0,1
310 121 m 0,17,18
 356 121 356 121 391.5 143.5 c 128,-1,19
 427 166 427 166 447.5 205.5 c 128,-1,20
 468 245 468 245 468 298 c 0,21,22
 468 353 468 353 435.5 385 c 128,-1,23
 403 417 403 417 345 417 c 0,24,25
 300 417 300 417 264 394.5 c 128,-1,26
 228 372 228 372 207.5 332.5 c 128,-1,27
 187 293 187 293 187 240 c 0,28,29
 187 185 187 185 219.5 153 c 128,-1,30
 252 121 252 121 310 121 c 0,17,18
417 0 m 1,31,-1
 438 107 l 1,32,-1
 473 267 l 1,33,-1
 494 427 l 1,34,-1
 516 538 l 1,35,-1
 672 538 l 1,36,-1
 565 0 l 1,37,-1
 417 0 l 1,31,-1
EndSplineSet
Substitution2: "'ss01' Style Set 1 lookup 53 subtable" a.ss01
Substitution2: "'smcp' Lowercase to Small Capitals lookup 49 subtable" a.sc
Substitution2: "Single Substitution lookup 42 subtable" ordfeminine
AlternateSubs2: "'aalt' Access All Alternates lookup 4 subtable" ordfeminine a.sc a.ss01
EndChar

StartChar: uni2C65
Encoding: 11365 11365 611
Width: 690
GlyphClass: 2
Flags: W
AnchorPoint: "Anchor-3" 403 538 basechar 0
AnchorPoint: "Anchor-2" 565 0 basechar 0
AnchorPoint: "Anchor-0" 283 0 basechar 0
LayerCount: 2
Fore
SplineSet
262 -8 m 0,0,1
 200 -8 200 -8 147 20.5 c 128,-1,2
 94 49 94 49 62 103 c 128,-1,3
 30 157 30 157 30 233 c 0,4,5
 30 301 30 301 52.5 358 c 128,-1,6
 75 415 75 415 116 457 c 128,-1,7
 157 499 157 499 211 522.5 c 128,-1,8
 265 546 265 546 327 546 c 0,9,10
 394 546 394 546 442 521 c 128,-1,11
 490 496 490 496 513.5 443.5 c 128,-1,12
 537 391 537 391 530 308 c 0,13,14
 525 213 525 213 491 141.5 c 128,-1,15
 457 70 457 70 399.5 31 c 128,-1,16
 342 -8 342 -8 262 -8 c 0,0,1
310 121 m 0,17,18
 356 121 356 121 391.5 143.5 c 128,-1,19
 427 166 427 166 447.5 205.5 c 128,-1,20
 468 245 468 245 468 298 c 0,21,22
 468 353 468 353 435.5 385 c 128,-1,23
 403 417 403 417 345 417 c 0,24,25
 300 417 300 417 264 394.5 c 128,-1,26
 228 372 228 372 207.5 332.5 c 128,-1,27
 187 293 187 293 187 240 c 0,28,29
 187 185 187 185 219.5 153 c 128,-1,30
 252 121 252 121 310 121 c 0,17,18
417 0 m 1,31,-1
 438 107 l 1,32,-1
 473 267 l 1,33,-1
 494 427 l 1,34,-1
 516 538 l 1,35,-1
 672 538 l 1,36,-1
 565 0 l 1,37,-1
 417 0 l 1,31,-1
76 -76 m 1,38,-1
 499 615 l 1,39,-1
 577 615 l 1,40,-1
 153 -76 l 1,41,-1
 76 -76 l 1,38,-1
EndSplineSet
Substitution2: "'ss01' Style Set 1 lookup 53 subtable" uni2C65.ss01
Substitution2: "'smcp' Lowercase to Small Capitals lookup 49 subtable" uni2C65.sc
AlternateSubs2: "'aalt' Access All Alternates lookup 4 subtable" uni2C65.sc uni2C65.ss01
EndChar

StartChar: uni0250
Encoding: 592 592 613
Width: 617
GlyphClass: 2
Flags: W
AnchorPoint: "Anchor-3" 331 538 basechar 0
AnchorPoint: "Anchor-0" 223 0 basechar 0
LayerCount: 2
Fore
SplineSet
272 538 m 1,0,-1
 251 433 l 1,1,-1
 256 410 l 1,2,-1
 218 222 l 2,3,4
 208 171 208 171 234.5 143.5 c 128,-1,5
 261 116 261 116 321 116 c 0,6,7
 363 116 363 116 408 128.5 c 128,-1,8
 453 141 453 141 487 162 c 1,9,-1
 521 53 l 1,10,11
 473 23 473 23 417 7.5 c 128,-1,12
 361 -8 361 -8 295 -8 c 0,13,14
 161 -8 161 -8 101 53.5 c 128,-1,15
 41 115 41 115 64 231 c 2,16,-1
 126 538 l 1,17,-1
 272 538 l 1,0,-1
422 546 m 256,18,19
 486 546 486 546 530.5 522 c 128,-1,20
 575 498 575 498 595 456.5 c 128,-1,21
 615 415 615 415 605 361 c 0,22,23
 592 292 592 292 531.5 257 c 128,-1,24
 471 222 471 222 364 222 c 2,25,-1
 200 222 l 1,26,-1
 218 313 l 1,27,-1
 353 313 l 2,28,29
 398 313 398 313 423 328 c 128,-1,30
 448 343 448 343 452 373 c 0,31,32
 456 404 456 404 434.5 422.5 c 128,-1,33
 413 441 413 441 371 441 c 0,34,35
 332 441 332 441 300 422.5 c 128,-1,36
 268 404 268 404 248 368 c 1,37,-1
 238 440 l 1,38,39
 264 493 264 493 311 519.5 c 128,-1,40
 358 546 358 546 422 546 c 256,18,19
EndSplineSet
Substitution2: "'smcp' Lowercase to Small Capitals lookup 49 subtable" uni0250.sc
Substitution2: "'aalt' Access All Alternates lookup 3 subtable" uni0250.sc
EndChar

StartChar: ae
Encoding: 230 230 614
Width: 995
GlyphClass: 2
Flags: W
AnchorPoint: "Anchor-3" 520 537 basechar 0
AnchorPoint: "Anchor-2" 737 0 basechar 0
LayerCount: 2
Fore
SplineSet
229 -8 m 0,0,1
 162 -8 162 -8 114.5 12 c 128,-1,2
 67 32 67 32 41.5 66.5 c 128,-1,3
 16 101 16 101 16 146 c 0,4,5
 16 225 16 225 78.5 271 c 128,-1,6
 141 317 141 317 262 317 c 2,7,-1
 411 317 l 1,8,-1
 395 226 l 1,9,-1
 265 226 l 2,10,11
 218 226 218 226 193 208 c 128,-1,12
 168 190 168 190 168 157 c 0,13,14
 168 130 168 130 189 113.5 c 128,-1,15
 210 97 210 97 253 97 c 0,16,17
 284 97 284 97 309 108 c 128,-1,18
 334 119 334 119 351.5 142 c 128,-1,19
 369 165 369 165 376 201 c 2,20,-1
 399 314 l 2,21,22
 409 366 409 366 381 393.5 c 128,-1,23
 353 421 353 421 290 421 c 0,24,25
 248 421 248 421 206.5 409 c 128,-1,26
 165 397 165 397 134 378 c 1,27,-1
 93 489 l 1,28,29
 124 509 124 509 162 521 c 128,-1,30
 200 533 200 533 240.5 539.5 c 128,-1,31
 281 546 281 546 317 546 c 0,32,33
 412 546 412 546 466 514 c 128,-1,34
 520 482 520 482 536 420 c 1,35,-1
 469 423 l 1,36,37
 498 462 498 462 534 489.5 c 128,-1,38
 570 517 570 517 614 531.5 c 128,-1,39
 658 546 658 546 710 546 c 0,40,41
 789 546 789 546 847.5 516.5 c 128,-1,42
 906 487 906 487 938 434.5 c 128,-1,43
 970 382 970 382 970 309 c 0,44,45
 970 288 970 288 967.5 267 c 128,-1,46
 965 246 965 246 960 226 c 1,47,-1
 517 226 l 1,48,-1
 533 317 l 1,49,-1
 866 317 l 1,50,-1
 820 290 l 1,51,52
 828 335 828 335 814.5 365.5 c 128,-1,53
 801 396 801 396 772 412.5 c 128,-1,54
 743 429 743 429 702 429 c 0,55,56
 652 429 652 429 616 404.5 c 128,-1,57
 580 380 580 380 561.5 337 c 128,-1,58
 543 294 543 294 543 240 c 0,59,60
 543 175 543 175 578 146 c 128,-1,61
 613 117 613 117 683 117 c 0,62,63
 727 117 727 117 763.5 129.5 c 128,-1,64
 800 142 800 142 827 167 c 1,65,-1
 895 64 l 1,66,67
 847 27 847 27 788 9.5 c 128,-1,68
 729 -8 729 -8 667 -8 c 0,69,70
 610 -8 610 -8 557 10 c 128,-1,71
 504 28 504 28 466 66.5 c 128,-1,72
 428 105 428 105 411 166 c 1,73,-1
 492 165 l 1,74,75
 465 98 465 98 425.5 60.5 c 128,-1,76
 386 23 386 23 336.5 7.5 c 128,-1,77
 287 -8 287 -8 229 -8 c 0,0,1
EndSplineSet
Substitution2: "'ss01' Style Set 1 lookup 53 subtable" ae.ss01
Substitution2: "'smcp' Lowercase to Small Capitals lookup 49 subtable" ae.sc
AlternateSubs2: "'aalt' Access All Alternates lookup 4 subtable" ae.sc ae.ss01
EndChar

StartChar: b
Encoding: 98 98 617
Width: 690
GlyphClass: 2
Flags: W
AnchorPoint: "Anchor-3" 453 538 basechar 0
AnchorPoint: "Anchor-0" 325 0 basechar 0
LayerCount: 2
Fore
SplineSet
19 0 m 1,0,-1
 167 742 l 1,1,-1
 323 742 l 1,2,-1
 260 429 l 1,3,-1
 218 272 l 1,4,-1
 194 134 l 1,5,-1
 167 0 l 1,6,-1
 19 0 l 1,0,-1
363 -8 m 0,7,8
 301 -8 301 -8 254.5 14 c 128,-1,9
 208 36 208 36 182.5 81.5 c 128,-1,10
 157 127 157 127 157 196 c 0,11,12
 157 269 157 269 175 333 c 128,-1,13
 193 397 193 397 228 444.5 c 128,-1,14
 263 492 263 492 313.5 519 c 128,-1,15
 364 546 364 546 428 546 c 0,16,17
 491 546 491 546 544 517.5 c 128,-1,18
 597 489 597 489 629 435.5 c 128,-1,19
 661 382 661 382 661 305 c 0,20,21
 661 238 661 238 638 180.5 c 128,-1,22
 615 123 615 123 574.5 81 c 128,-1,23
 534 39 534 39 480 15.5 c 128,-1,24
 426 -8 426 -8 363 -8 c 0,7,8
345 121 m 0,25,26
 392 121 392 121 427 143.5 c 128,-1,27
 462 166 462 166 482.5 205.5 c 128,-1,28
 503 245 503 245 503 298 c 0,29,30
 503 353 503 353 471 385 c 128,-1,31
 439 417 439 417 380 417 c 0,32,33
 335 417 335 417 299 394.5 c 128,-1,34
 263 372 263 372 243 332.5 c 128,-1,35
 223 293 223 293 223 240 c 0,36,37
 223 185 223 185 255 153 c 128,-1,38
 287 121 287 121 345 121 c 0,25,26
EndSplineSet
Substitution2: "'smcp' Lowercase to Small Capitals lookup 49 subtable" b.sc
Substitution2: "'aalt' Access All Alternates lookup 3 subtable" b.sc
EndChar

StartChar: uniA7B5
Encoding: 42933 42933 620
Width: 698
GlyphClass: 1
Flags: W
LayerCount: 2
Fore
SplineSet
-20 -194 m 1,0,-1
 121 513 l 2,1,2
 143 625 143 625 220 688 c 128,-1,3
 297 751 297 751 411 751 c 0,4,5
 473 751 473 751 522 733 c 128,-1,6
 571 715 571 715 604.5 683.5 c 128,-1,7
 638 652 638 652 651.5 610.5 c 128,-1,8
 665 569 665 569 655 521 c 0,9,10
 644 469 644 469 608.5 428 c 128,-1,11
 573 387 573 387 524 364.5 c 128,-1,12
 475 342 475 342 420 345 c 1,13,-1
 448 404 l 1,14,15
 522 397 522 397 572 367 c 128,-1,16
 622 337 622 337 642.5 288.5 c 128,-1,17
 663 240 663 240 650 178 c 0,18,19
 632 91 632 91 561 41 c 128,-1,20
 490 -9 490 -9 383 -9 c 0,21,22
 309 -9 309 -9 242 15.5 c 128,-1,23
 175 40 175 40 135 81 c 1,24,-1
 202 193 l 1,25,26
 220 172 220 172 248 155 c 128,-1,27
 276 138 276 138 309.5 128.5 c 128,-1,28
 343 119 343 119 376 119 c 0,29,30
 424 119 424 119 455.5 140.5 c 128,-1,31
 487 162 487 162 494 201 c 0,32,33
 501 232 501 232 488 255.5 c 128,-1,34
 475 279 475 279 445.5 292 c 128,-1,35
 416 305 416 305 373 305 c 2,36,-1
 341 305 l 1,37,-1
 361 430 l 1,38,-1
 385 430 l 2,39,40
 416 430 416 430 441 442 c 128,-1,41
 466 454 466 454 482.5 475 c 128,-1,42
 499 496 499 496 504 523 c 0,43,44
 509 554 509 554 498.5 577 c 128,-1,45
 488 600 488 600 463 613 c 128,-1,46
 438 626 438 626 402 626 c 0,47,48
 352 626 352 626 320 598 c 128,-1,49
 288 570 288 570 277 517 c 2,50,-1
 136 -194 l 1,51,-1
 -20 -194 l 1,0,-1
EndSplineSet
Substitution2: "'smcp' Lowercase to Small Capitals lookup 49 subtable" uniA7B5.sc
Substitution2: "'aalt' Access All Alternates lookup 3 subtable" uniA7B5.sc
EndChar

StartChar: uni0253
Encoding: 595 595 621
Width: 692
GlyphClass: 1
Flags: W
LayerCount: 2
Fore
SplineSet
21 0 m 1,0,-1
 135 570 l 2,1,2
 148 633 148 633 181 673.5 c 128,-1,3
 214 714 214 714 262.5 733.5 c 128,-1,4
 311 753 311 753 369 753 c 0,5,6
 416 753 416 753 459 741 c 128,-1,7
 502 729 502 729 534 710 c 1,8,-1
 475 600 l 1,9,10
 452 615 452 615 427 622.5 c 128,-1,11
 402 630 402 630 376 630 c 0,12,13
 339 630 339 630 316.5 610 c 128,-1,14
 294 590 294 590 287 554 c 2,15,-1
 261 420 l 1,16,-1
 220 270 l 1,17,-1
 191 110 l 1,18,-1
 169 0 l 1,19,-1
 21 0 l 1,0,-1
366 -8 m 0,20,21
 267 -8 267 -8 214 44.5 c 128,-1,22
 161 97 161 97 161 196 c 0,23,24
 161 300 161 300 195 378 c 128,-1,25
 229 456 229 456 289.5 499.5 c 128,-1,26
 350 543 350 543 431 543 c 0,27,28
 499 543 499 543 551.5 512.5 c 128,-1,29
 604 482 604 482 633.5 428 c 128,-1,30
 663 374 663 374 663 304 c 0,31,32
 663 238 663 238 640.5 181 c 128,-1,33
 618 124 618 124 578 81.5 c 128,-1,34
 538 39 538 39 484 15.5 c 128,-1,35
 430 -8 430 -8 366 -8 c 0,20,21
349 120 m 0,36,37
 395 120 395 120 430 142.5 c 128,-1,38
 465 165 465 165 485.5 205 c 128,-1,39
 506 245 506 245 506 297 c 0,40,41
 506 353 506 353 473.5 384 c 128,-1,42
 441 415 441 415 383 415 c 0,43,44
 338 415 338 415 302.5 393 c 128,-1,45
 267 371 267 371 246.5 331 c 128,-1,46
 226 291 226 291 226 239 c 0,47,48
 226 183 226 183 258.5 151.5 c 128,-1,49
 291 120 291 120 349 120 c 0,36,37
EndSplineSet
Substitution2: "'smcp' Lowercase to Small Capitals lookup 49 subtable" uni0253.sc
Substitution2: "'aalt' Access All Alternates lookup 3 subtable" uni0253.sc
EndChar

StartChar: uni0298
Encoding: 664 664 622
Width: 844
GlyphClass: 2
Flags: W
AnchorPoint: "Anchor-4" 702 700 basechar 0
AnchorPoint: "Anchor-3" 443 397 basechar 0
AnchorPoint: "Anchor-2" 467 0 basechar 0
AnchorPoint: "Anchor-1" 438 350 basechar 0
AnchorPoint: "Anchor-0" 368 0 basechar 0
LayerCount: 2
Fore
SplineSet
392 -12 m 0,0,1
 286 -12 286 -12 209.5 26.5 c 128,-1,2
 133 65 133 65 92 133.5 c 128,-1,3
 51 202 51 202 51 292 c 256,4,5
 51 382 51 382 82 458.5 c 128,-1,6
 113 535 113 535 170.5 591.5 c 128,-1,7
 228 648 228 648 307.5 680 c 128,-1,8
 387 712 387 712 484 712 c 0,9,10
 590 712 590 712 666.5 673.5 c 128,-1,11
 743 635 743 635 784 566.5 c 128,-1,12
 825 498 825 498 825 408 c 256,13,14
 825 318 825 318 794 241.5 c 128,-1,15
 763 165 763 165 705.5 108.5 c 128,-1,16
 648 52 648 52 568.5 20 c 128,-1,17
 489 -12 489 -12 392 -12 c 0,0,1
406 126 m 0,18,19
 465 126 465 126 512.5 147.5 c 128,-1,20
 560 169 560 169 593 207 c 128,-1,21
 626 245 626 245 643.5 294.5 c 128,-1,22
 661 344 661 344 661 399 c 0,23,24
 661 451 661 451 639 490.5 c 128,-1,25
 617 530 617 530 574.5 552 c 128,-1,26
 532 574 532 574 470 574 c 0,27,28
 411 574 411 574 364 552.5 c 128,-1,29
 317 531 317 531 283.5 493 c 128,-1,30
 250 455 250 455 232.5 405.5 c 128,-1,31
 215 356 215 356 215 301 c 0,32,33
 215 249 215 249 237.5 209.5 c 128,-1,34
 260 170 260 170 302.5 148 c 128,-1,35
 345 126 345 126 406 126 c 0,18,19
428 265 m 0,36,37
 393 265 393 265 371.5 285.5 c 128,-1,38
 350 306 350 306 350 339 c 0,39,40
 350 381 350 381 376.5 407 c 128,-1,41
 403 433 403 433 440 433 c 0,42,43
 475 433 475 433 496.5 412 c 128,-1,44
 518 391 518 391 518 358 c 0,45,46
 518 317 518 317 492 291 c 128,-1,47
 466 265 466 265 428 265 c 0,36,37
EndSplineSet
Substitution2: "'smcp' Lowercase to Small Capitals lookup 49 subtable" uni0298.sc
Substitution2: "'aalt' Access All Alternates lookup 3 subtable" uni0298.sc
EndChar

StartChar: uni0180
Encoding: 384 384 624
Width: 700
GlyphClass: 2
Flags: W
AnchorPoint: "Anchor-3" 452 538 basechar 0
AnchorPoint: "Anchor-1" 355 269 basechar 0
AnchorPoint: "Anchor-0" 301 0 basechar 0
LayerCount: 2
Fore
SplineSet
28 0 m 1,0,-1
 176 742 l 1,1,-1
 332 742 l 1,2,-1
 269 429 l 1,3,-1
 228 272 l 1,4,-1
 203 134 l 1,5,-1
 177 0 l 1,6,-1
 28 0 l 1,0,-1
372 -8 m 0,7,8
 311 -8 311 -8 264 14 c 128,-1,9
 217 36 217 36 192 81.5 c 128,-1,10
 167 127 167 127 167 196 c 0,11,12
 167 269 167 269 184.5 333 c 128,-1,13
 202 397 202 397 237 444.5 c 128,-1,14
 272 492 272 492 322.5 519 c 128,-1,15
 373 546 373 546 438 546 c 0,16,17
 501 546 501 546 553.5 517.5 c 128,-1,18
 606 489 606 489 638 435.5 c 128,-1,19
 670 382 670 382 670 305 c 0,20,21
 670 238 670 238 647.5 180.5 c 128,-1,22
 625 123 625 123 584 81 c 128,-1,23
 543 39 543 39 489 15.5 c 128,-1,24
 435 -8 435 -8 372 -8 c 0,7,8
355 121 m 0,25,26
 401 121 401 121 436.5 143.5 c 128,-1,27
 472 166 472 166 492 205.5 c 128,-1,28
 512 245 512 245 512 298 c 0,29,30
 512 353 512 353 480 385 c 128,-1,31
 448 417 448 417 390 417 c 0,32,33
 344 417 344 417 308.5 394.5 c 128,-1,34
 273 372 273 372 252.5 332.5 c 128,-1,35
 232 293 232 293 232 240 c 0,36,37
 232 185 232 185 264 153 c 128,-1,38
 296 121 296 121 355 121 c 0,25,26
63 594 m 1,39,-1
 81 684 l 1,40,-1
 487 684 l 1,41,-1
 470 594 l 1,42,-1
 63 594 l 1,39,-1
EndSplineSet
Substitution2: "'smcp' Lowercase to Small Capitals lookup 49 subtable" uni0180.sc
Substitution2: "'aalt' Access All Alternates lookup 3 subtable" uni0180.sc
EndChar

StartChar: uni0183
Encoding: 387 387 625
Width: 695
GlyphClass: 1
Flags: W
LayerCount: 2
Fore
SplineSet
20 0 m 1,0,-1
 168 742 l 1,1,-1
 322 742 l 1,2,-1
 258 422 l 1,3,-1
 217 266 l 1,4,-1
 193 131 l 1,5,-1
 167 0 l 1,6,-1
 20 0 l 1,0,-1
364 -8 m 0,7,8
 301 -8 301 -8 254 13.5 c 128,-1,9
 207 35 207 35 181.5 80 c 128,-1,10
 156 125 156 125 156 195 c 0,11,12
 156 267 156 267 173.5 329 c 128,-1,13
 191 391 191 391 225.5 437.5 c 128,-1,14
 260 484 260 484 310.5 510 c 128,-1,15
 361 536 361 536 427 536 c 0,16,17
 490 536 490 536 543.5 508 c 128,-1,18
 597 480 597 480 629 427 c 128,-1,19
 661 374 661 374 661 298 c 0,20,21
 661 232 661 232 638.5 176 c 128,-1,22
 616 120 616 120 575 79 c 128,-1,23
 534 38 534 38 480 15 c 128,-1,24
 426 -8 426 -8 364 -8 c 0,7,8
347 119 m 0,25,26
 393 119 393 119 428.5 141 c 128,-1,27
 464 163 464 163 484.5 201.5 c 128,-1,28
 505 240 505 240 505 290 c 0,29,30
 505 327 505 327 490.5 353.5 c 128,-1,31
 476 380 476 380 448 394.5 c 128,-1,32
 420 409 420 409 380 409 c 0,33,34
 334 409 334 409 298 387 c 128,-1,35
 262 365 262 365 241.5 326.5 c 128,-1,36
 221 288 221 288 221 237 c 0,37,38
 221 200 221 200 236 173.5 c 128,-1,39
 251 147 251 147 279 133 c 128,-1,40
 307 119 307 119 347 119 c 0,25,26
226 632 m 1,41,-1
 168 742 l 1,42,-1
 635 742 l 1,43,-1
 613 632 l 1,44,-1
 226 632 l 1,41,-1
EndSplineSet
Substitution2: "'smcp' Lowercase to Small Capitals lookup 49 subtable" uni0183.sc
Substitution2: "'aalt' Access All Alternates lookup 3 subtable" uni0183.sc
EndChar

StartChar: c
Encoding: 99 99 626
Width: 593
GlyphClass: 2
Flags: W
AnchorPoint: "Anchor-3" 365 538 basechar 0
AnchorPoint: "Anchor-0" 282 0 basechar 0
LayerCount: 2
Fore
SplineSet
303 -8 m 256,0,1
 220 -8 220 -8 158.5 22 c 128,-1,2
 97 52 97 52 63 106 c 128,-1,3
 29 160 29 160 29 233 c 0,4,5
 29 323 29 323 71 393.5 c 128,-1,6
 113 464 113 464 187 505 c 128,-1,7
 261 546 261 546 357 546 c 0,8,9
 443 546 443 546 506 510.5 c 128,-1,10
 569 475 569 475 599 410 c 1,11,-1
 467 344 l 1,12,13
 450 382 450 382 419.5 399.5 c 128,-1,14
 389 417 389 417 347 417 c 0,15,16
 301 417 301 417 265 394.5 c 128,-1,17
 229 372 229 372 208 332.5 c 128,-1,18
 187 293 187 293 187 241 c 0,19,20
 187 186 187 186 219.5 153.5 c 128,-1,21
 252 121 252 121 312 121 c 0,22,23
 353 121 353 121 387 138.5 c 128,-1,24
 421 156 421 156 444 193 c 1,25,-1
 559 121 l 1,26,27
 521 60 521 60 453.5 26 c 128,-1,28
 386 -8 386 -8 303 -8 c 256,0,1
EndSplineSet
Substitution2: "'smcp' Lowercase to Small Capitals lookup 49 subtable" c.sc
Substitution2: "'aalt' Access All Alternates lookup 3 subtable" c.sc
EndChar

StartChar: uniA793
Encoding: 42899 42899 628
Width: 648
GlyphClass: 2
Flags: W
AnchorPoint: "Anchor-3" 420 538 basechar 0
AnchorPoint: "Anchor-0" 337 0 basechar 0
LayerCount: 2
Fore
SplineSet
357 -8 m 0,0,1
 275 -8 275 -8 213 22 c 128,-1,2
 151 52 151 52 117.5 106 c 128,-1,3
 84 160 84 160 84 233 c 0,4,5
 84 323 84 323 126 393.5 c 128,-1,6
 168 464 168 464 242 505 c 128,-1,7
 316 546 316 546 412 546 c 0,8,9
 498 546 498 546 560.5 510.5 c 128,-1,10
 623 475 623 475 654 410 c 1,11,-1
 521 344 l 1,12,13
 504 382 504 382 473.5 399.5 c 128,-1,14
 443 417 443 417 402 417 c 0,15,16
 356 417 356 417 319.5 394.5 c 128,-1,17
 283 372 283 372 262.5 332.5 c 128,-1,18
 242 293 242 293 242 241 c 0,19,20
 242 186 242 186 274 153.5 c 128,-1,21
 306 121 306 121 367 121 c 0,22,23
 407 121 407 121 441 138.5 c 128,-1,24
 475 156 475 156 499 193 c 1,25,-1
 614 121 l 1,26,27
 575 60 575 60 507.5 26 c 128,-1,28
 440 -8 440 -8 357 -8 c 0,0,1
-4 229 m 1,29,-1
 15 319 l 1,30,-1
 385 319 l 1,31,-1
 367 229 l 1,32,-1
 -4 229 l 1,29,-1
EndSplineSet
Substitution2: "'smcp' Lowercase to Small Capitals lookup 49 subtable" uniA793.sc
Substitution2: "'aalt' Access All Alternates lookup 3 subtable" uniA793.sc
EndChar

StartChar: uniAB53
Encoding: 43859 43859 634
Width: 599
GlyphClass: 1
Flags: W
LayerCount: 2
Fore
SplineSet
601 -134 m 1,0,1
 568 -173 568 -173 525 -190.5 c 128,-1,2
 482 -208 482 -208 439.5 -204.5 c 128,-1,3
 397 -201 397 -201 364.5 -177.5 c 128,-1,4
 332 -154 332 -154 320 -109 c 2,5,-1
 264 89 l 1,6,-1
 231 155 l 1,7,-1
 153 385 l 2,8,9
 146 406 146 406 133 414 c 128,-1,10
 120 422 120 422 102.5 417 c 128,-1,11
 85 412 85 412 65 392 c 1,12,-1
 4 477 l 1,13,14
 37 516 37 516 79 533 c 128,-1,15
 121 550 121 550 162 547 c 128,-1,16
 203 544 203 544 234.5 520 c 128,-1,17
 266 496 266 496 279 452 c 2,18,-1
 333 275 l 1,19,-1
 363 211 l 1,20,-1
 447 -42 l 2,21,22
 454 -63 454 -63 468.5 -71 c 128,-1,23
 483 -79 483 -79 502 -73.5 c 128,-1,24
 521 -68 521 -68 541 -49 c 1,25,-1
 601 -134 l 1,0,1
-68 -194 m 1,26,-1
 258 237 l 1,27,-1
 277 231 l 1,28,-1
 490 538 l 1,29,-1
 660 538 l 1,30,-1
 346 136 l 1,31,-1
 328 137 l 1,32,-1
 102 -194 l 1,33,-1
 -68 -194 l 1,26,-1
EndSplineSet
Substitution2: "'smcp' Lowercase to Small Capitals lookup 49 subtable" uniAB53.sc
Substitution2: "'aalt' Access All Alternates lookup 3 subtable" uniAB53.sc
EndChar

StartChar: uni0188
Encoding: 392 392 635
Width: 612
GlyphClass: 2
Flags: W
AnchorPoint: "Anchor-3" 365 538 basechar 0
AnchorPoint: "Anchor-0" 252 0 basechar 0
LayerCount: 2
Fore
SplineSet
303 -8 m 256,0,1
 220 -8 220 -8 158.5 22 c 128,-1,2
 97 52 97 52 63 106 c 128,-1,3
 29 160 29 160 29 233 c 0,4,5
 29 323 29 323 71 393.5 c 128,-1,6
 113 464 113 464 187 505 c 128,-1,7
 261 546 261 546 357 546 c 0,8,9
 443 546 443 546 506 510.5 c 128,-1,10
 569 475 569 475 599 410 c 1,11,-1
 467 344 l 1,12,13
 450 382 450 382 419.5 399.5 c 128,-1,14
 389 417 389 417 347 417 c 0,15,16
 301 417 301 417 265 394.5 c 128,-1,17
 229 372 229 372 208 332.5 c 128,-1,18
 187 293 187 293 187 241 c 0,19,20
 187 186 187 186 219.5 153.5 c 128,-1,21
 252 121 252 121 312 121 c 0,22,23
 353 121 353 121 387 138.5 c 128,-1,24
 421 156 421 156 444 193 c 1,25,-1
 559 121 l 1,26,27
 521 60 521 60 453.5 26 c 128,-1,28
 386 -8 386 -8 303 -8 c 256,0,1
465 410 m 1,29,-1
 501 589 l 2,30,31
 510 638 510 638 536.5 673.5 c 128,-1,32
 563 709 563 709 600.5 729 c 128,-1,33
 638 749 638 749 683.5 752.5 c 128,-1,34
 729 756 729 756 776 739 c 1,35,-1
 737 627 l 1,36,37
 711 635 711 635 689 629 c 128,-1,38
 667 623 667 623 651.5 605 c 128,-1,39
 636 587 636 587 630 557 c 2,40,-1
 599 410 l 1,41,-1
 465 410 l 1,29,-1
EndSplineSet
Substitution2: "'smcp' Lowercase to Small Capitals lookup 49 subtable" uni0188.sc
Substitution2: "'aalt' Access All Alternates lookup 3 subtable" uni0188.sc
EndChar

StartChar: uni023C
Encoding: 572 572 637
Width: 591
GlyphClass: 2
Flags: W
AnchorPoint: "Anchor-3" 365 538 basechar 0
AnchorPoint: "Anchor-0" 282 0 basechar 0
LayerCount: 2
Fore
SplineSet
303 -8 m 256,0,1
 220 -8 220 -8 158.5 22 c 128,-1,2
 97 52 97 52 63 106 c 128,-1,3
 29 160 29 160 29 233 c 0,4,5
 29 323 29 323 71 393.5 c 128,-1,6
 113 464 113 464 187 505 c 128,-1,7
 261 546 261 546 357 546 c 0,8,9
 443 546 443 546 506 510.5 c 128,-1,10
 569 475 569 475 599 410 c 1,11,-1
 467 344 l 1,12,13
 450 382 450 382 419.5 399.5 c 128,-1,14
 389 417 389 417 347 417 c 0,15,16
 301 417 301 417 265 394.5 c 128,-1,17
 229 372 229 372 208 332.5 c 128,-1,18
 187 293 187 293 187 241 c 0,19,20
 187 186 187 186 219.5 153.5 c 128,-1,21
 252 121 252 121 312 121 c 0,22,23
 353 121 353 121 387 138.5 c 128,-1,24
 421 156 421 156 444 193 c 1,25,-1
 559 121 l 1,26,27
 521 60 521 60 453.5 26 c 128,-1,28
 386 -8 386 -8 303 -8 c 256,0,1
76 -76 m 1,29,-1
 499 615 l 1,30,-1
 577 615 l 1,31,-1
 153 -76 l 1,32,-1
 76 -76 l 1,29,-1
EndSplineSet
Substitution2: "'smcp' Lowercase to Small Capitals lookup 49 subtable" uni023C.sc
Substitution2: "'aalt' Access All Alternates lookup 3 subtable" uni023C.sc
EndChar

StartChar: d
Encoding: 100 100 638
Width: 692
GlyphClass: 2
Flags: W
AnchorPoint: "Anchor-4" 796 742 basechar 0
AnchorPoint: "Anchor-3" 345 538 basechar 0
AnchorPoint: "Anchor-1" 560 637 basechar 0
AnchorPoint: "Anchor-0" 308 0 basechar 0
LayerCount: 2
Fore
SplineSet
264 -8 m 0,0,1
 202 -8 202 -8 149 20.5 c 128,-1,2
 96 49 96 49 64 103 c 128,-1,3
 32 157 32 157 32 233 c 0,4,5
 32 301 32 301 54.5 358 c 128,-1,6
 77 415 77 415 118 457 c 128,-1,7
 159 499 159 499 213 522.5 c 128,-1,8
 267 546 267 546 329 546 c 0,9,10
 392 546 392 546 438 524 c 128,-1,11
 484 502 484 502 509.5 456.5 c 128,-1,12
 535 411 535 411 535 342 c 0,13,14
 535 268 535 268 517.5 204.5 c 128,-1,15
 500 141 500 141 465 93.5 c 128,-1,16
 430 46 430 46 379.5 19 c 128,-1,17
 329 -8 329 -8 264 -8 c 0,0,1
312 121 m 0,18,19
 358 121 358 121 393.5 143.5 c 128,-1,20
 429 166 429 166 449.5 205.5 c 128,-1,21
 470 245 470 245 470 298 c 0,22,23
 470 353 470 353 437.5 385 c 128,-1,24
 405 417 405 417 347 417 c 0,25,26
 302 417 302 417 266 394.5 c 128,-1,27
 230 372 230 372 209.5 332.5 c 128,-1,28
 189 293 189 293 189 240 c 0,29,30
 189 185 189 185 221.5 153 c 128,-1,31
 254 121 254 121 312 121 c 0,18,19
418 0 m 1,32,-1
 440 107 l 1,33,-1
 474 267 l 1,34,-1
 495 427 l 1,35,-1
 558 742 l 1,36,-1
 714 742 l 1,37,-1
 566 0 l 1,38,-1
 418 0 l 1,32,-1
EndSplineSet
Substitution2: "'ss01' Style Set 1 lookup 53 subtable" d.ss01
Substitution2: "'smcp' Lowercase to Small Capitals lookup 49 subtable" d.sc
AlternateSubs2: "'aalt' Access All Alternates lookup 4 subtable" d.sc d.ss01
EndChar

StartChar: uni0257
Encoding: 599 599 645
Width: 675
GlyphClass: 2
Flags: W
AnchorPoint: "Anchor-4" 794 742 basechar 0
AnchorPoint: "Anchor-1" 558 637 basechar 0
AnchorPoint: "Anchor-0" 307 0 basechar 0
LayerCount: 2
Fore
SplineSet
262 -8 m 0,0,1
 200 -8 200 -8 147 20.5 c 128,-1,2
 94 49 94 49 62 103 c 128,-1,3
 30 157 30 157 30 233 c 0,4,5
 30 301 30 301 52.5 358 c 128,-1,6
 75 415 75 415 116 457 c 128,-1,7
 157 499 157 499 211 522.5 c 128,-1,8
 265 546 265 546 327 546 c 0,9,10
 390 546 390 546 436 524 c 128,-1,11
 482 502 482 502 507.5 456.5 c 128,-1,12
 533 411 533 411 533 342 c 0,13,14
 533 268 533 268 515.5 204.5 c 128,-1,15
 498 141 498 141 463 93.5 c 128,-1,16
 428 46 428 46 377.5 19 c 128,-1,17
 327 -8 327 -8 262 -8 c 0,0,1
310 121 m 0,18,19
 356 121 356 121 391.5 143.5 c 128,-1,20
 427 166 427 166 447.5 205.5 c 128,-1,21
 468 245 468 245 468 298 c 0,22,23
 468 353 468 353 435.5 385 c 128,-1,24
 403 417 403 417 345 417 c 0,25,26
 300 417 300 417 264 394.5 c 128,-1,27
 228 372 228 372 207.5 332.5 c 128,-1,28
 187 293 187 293 187 240 c 0,29,30
 187 185 187 185 219.5 153 c 128,-1,31
 252 121 252 121 310 121 c 0,18,19
415 0 m 1,32,-1
 437 110 l 1,33,-1
 472 270 l 1,34,-1
 494 429 l 1,35,-1
 525 587 l 2,36,37
 535 637 535 637 565.5 673 c 128,-1,38
 596 709 596 709 638.5 729.5 c 128,-1,39
 681 750 681 750 730.5 752.5 c 128,-1,40
 780 755 780 755 827 738 c 1,41,-1
 788 625 l 1,42,43
 759 634 759 634 736 628 c 128,-1,44
 713 622 713 622 697 603 c 128,-1,45
 681 584 681 584 675 552 c 2,46,-1
 564 0 l 1,47,-1
 415 0 l 1,32,-1
EndSplineSet
Substitution2: "'ss01' Style Set 1 lookup 53 subtable" uni0257.ss01
Substitution2: "'smcp' Lowercase to Small Capitals lookup 49 subtable" uni0257.sc
AlternateSubs2: "'aalt' Access All Alternates lookup 4 subtable" uni0257.sc uni0257.ss01
EndChar

StartChar: uni1D91
Encoding: 7569 7569 646
Width: 691
GlyphClass: 2
Flags: W
AnchorPoint: "Anchor-4" 794 742 basechar 0
AnchorPoint: "Anchor-1" 558 637 basechar 0
AnchorPoint: "Anchor-0" 307 0 basechar 0
LayerCount: 2
Fore
SplineSet
658 -187 m 1,0,1
 603 -204 603 -204 552.5 -201.5 c 128,-1,2
 502 -199 502 -199 465 -177.5 c 128,-1,3
 428 -156 428 -156 411 -114.5 c 128,-1,4
 394 -73 394 -73 406 -12 c 2,5,-1
 429 109 l 1,6,-1
 471 268 l 1,7,-1
 494 429 l 1,8,-1
 525 587 l 2,9,10
 535 637 535 637 565.5 673 c 128,-1,11
 596 709 596 709 638.5 729.5 c 128,-1,12
 681 750 681 750 730.5 752.5 c 128,-1,13
 780 755 780 755 827 738 c 1,14,-1
 788 625 l 1,15,16
 759 634 759 634 735.5 628 c 128,-1,17
 712 622 712 622 696.5 603 c 128,-1,18
 681 584 681 584 675 552 c 2,19,-1
 562 -12 l 2,20,21
 553 -53 553 -53 580 -69.5 c 128,-1,22
 607 -86 607 -86 652 -71 c 1,23,-1
 658 -187 l 1,0,1
262 -8 m 0,24,25
 200 -8 200 -8 147 20.5 c 128,-1,26
 94 49 94 49 62 103 c 128,-1,27
 30 157 30 157 30 233 c 0,28,29
 30 301 30 301 52.5 358 c 128,-1,30
 75 415 75 415 116 457 c 128,-1,31
 157 499 157 499 211 522.5 c 128,-1,32
 265 546 265 546 327 546 c 0,33,34
 390 546 390 546 436 524 c 128,-1,35
 482 502 482 502 507.5 456.5 c 128,-1,36
 533 411 533 411 533 342 c 0,37,38
 533 268 533 268 515.5 204.5 c 128,-1,39
 498 141 498 141 463 93.5 c 128,-1,40
 428 46 428 46 377.5 19 c 128,-1,41
 327 -8 327 -8 262 -8 c 0,24,25
310 121 m 0,42,43
 356 121 356 121 391.5 143.5 c 128,-1,44
 427 166 427 166 447.5 205.5 c 128,-1,45
 468 245 468 245 468 298 c 0,46,47
 468 353 468 353 435.5 385 c 128,-1,48
 403 417 403 417 345 417 c 0,49,50
 300 417 300 417 264 394.5 c 128,-1,51
 228 372 228 372 207.5 332.5 c 128,-1,52
 187 293 187 293 187 240 c 0,53,54
 187 185 187 185 219.5 153 c 128,-1,55
 252 121 252 121 310 121 c 0,42,43
EndSplineSet
Substitution2: "'smcp' Lowercase to Small Capitals lookup 49 subtable" uni1D91.sc
Substitution2: "'aalt' Access All Alternates lookup 3 subtable" uni1D91.sc
EndChar

StartChar: uni0256
Encoding: 598 598 648
Width: 691
GlyphClass: 2
Flags: W
AnchorPoint: "Anchor-3" 407 538 basechar 0
AnchorPoint: "Anchor-0" 300 0 basechar 0
LayerCount: 2
Fore
SplineSet
262 -8 m 0,0,1
 200 -8 200 -8 147 20.5 c 128,-1,2
 94 49 94 49 62 103 c 128,-1,3
 30 157 30 157 30 233 c 0,4,5
 30 301 30 301 52.5 358 c 128,-1,6
 75 415 75 415 116 457 c 128,-1,7
 157 499 157 499 211 522.5 c 128,-1,8
 265 546 265 546 327 546 c 0,9,10
 394 546 394 546 442 521 c 128,-1,11
 490 496 490 496 513.5 443.5 c 128,-1,12
 537 391 537 391 530 308 c 0,13,14
 525 213 525 213 491 141.5 c 128,-1,15
 457 70 457 70 399.5 31 c 128,-1,16
 342 -8 342 -8 262 -8 c 0,0,1
310 121 m 0,17,18
 356 121 356 121 391.5 143.5 c 128,-1,19
 427 166 427 166 447.5 205.5 c 128,-1,20
 468 245 468 245 468 298 c 0,21,22
 468 353 468 353 435.5 385 c 128,-1,23
 403 417 403 417 345 417 c 0,24,25
 300 417 300 417 264 394.5 c 128,-1,26
 228 372 228 372 207.5 332.5 c 128,-1,27
 187 293 187 293 187 240 c 0,28,29
 187 185 187 185 219.5 153 c 128,-1,30
 252 121 252 121 310 121 c 0,17,18
658 -187 m 1,31,32
 603 -204 603 -204 553 -201.5 c 128,-1,33
 503 -199 503 -199 465.5 -177.5 c 128,-1,34
 428 -156 428 -156 411.5 -114.5 c 128,-1,35
 395 -73 395 -73 406 -12 c 2,36,-1
 430 109 l 1,37,-1
 472 268 l 1,38,-1
 501 428 l 1,39,-1
 564 742 l 1,40,-1
 713 742 l 1,41,-1
 562 -12 l 2,42,43
 553 -53 553 -53 580 -69.5 c 128,-1,44
 607 -86 607 -86 652 -71 c 1,45,-1
 658 -187 l 1,31,32
EndSplineSet
Substitution2: "'smcp' Lowercase to Small Capitals lookup 49 subtable" uni0256.sc
Substitution2: "'aalt' Access All Alternates lookup 3 subtable" uni0256.sc
EndChar

StartChar: uni018C
Encoding: 396 396 649
Width: 694
GlyphClass: 2
Flags: W
AnchorPoint: "Anchor-4" 796 742 basechar 0
AnchorPoint: "Anchor-3" 400 538 basechar 0
AnchorPoint: "Anchor-0" 308 0 basechar 0
LayerCount: 2
Fore
SplineSet
225 632 m 1,0,-1
 247 742 l 1,1,-1
 714 742 l 1,2,-1
 586 632 l 1,3,-1
 225 632 l 1,0,-1
263 -8 m 0,4,5
 201 -8 201 -8 147.5 20 c 128,-1,6
 94 48 94 48 61.5 101 c 128,-1,7
 29 154 29 154 29 230 c 0,8,9
 29 296 29 296 51.5 351.5 c 128,-1,10
 74 407 74 407 115 448 c 128,-1,11
 156 489 156 489 210 511.5 c 128,-1,12
 264 534 264 534 326 534 c 0,13,14
 390 534 390 534 436.5 513 c 128,-1,15
 483 492 483 492 509 447 c 128,-1,16
 535 402 535 402 535 332 c 0,17,18
 535 261 535 261 517 199 c 128,-1,19
 499 137 499 137 464 90.5 c 128,-1,20
 429 44 429 44 378.5 18 c 128,-1,21
 328 -8 328 -8 263 -8 c 0,4,5
311 120 m 0,22,23
 357 120 357 120 393 141.5 c 128,-1,24
 429 163 429 163 449 201 c 128,-1,25
 469 239 469 239 469 289 c 0,26,27
 469 344 469 344 436 375.5 c 128,-1,28
 403 407 403 407 344 407 c 0,29,30
 298 407 298 407 262 385.5 c 128,-1,31
 226 364 226 364 205.5 326 c 128,-1,32
 185 288 185 288 185 238 c 0,33,34
 185 183 185 183 218.5 151.5 c 128,-1,35
 252 120 252 120 311 120 c 0,22,23
419 0 m 1,36,-1
 440 104 l 1,37,-1
 474 261 l 1,38,-1
 494 419 l 1,39,-1
 559 742 l 1,40,-1
 714 742 l 1,41,-1
 566 0 l 1,42,-1
 419 0 l 1,36,-1
EndSplineSet
Substitution2: "'ss01' Style Set 1 lookup 53 subtable" uni018C.ss01
Substitution2: "'smcp' Lowercase to Small Capitals lookup 49 subtable" uni018C.sc
AlternateSubs2: "'aalt' Access All Alternates lookup 4 subtable" uni018C.sc uni018C.ss01
EndChar

StartChar: eth
Encoding: 240 240 652
Width: 603
GlyphClass: 1
Flags: W
LayerCount: 2
Fore
SplineSet
265 -6 m 0,0,1
 152 -6 152 -6 85 51 c 128,-1,2
 18 108 18 108 18 204 c 0,3,4
 18 275 18 275 48.5 329.5 c 128,-1,5
 79 384 79 384 134 415 c 128,-1,6
 189 446 189 446 261 446 c 0,7,8
 316 446 316 446 363 426.5 c 128,-1,9
 410 407 410 407 432 375 c 1,10,11
 422 434 422 434 385.5 491.5 c 128,-1,12
 349 549 349 549 292.5 600.5 c 128,-1,13
 236 652 236 652 165 689 c 1,14,-1
 276 750 l 1,15,16
 370 705 370 705 437.5 638 c 128,-1,17
 505 571 505 571 542 489 c 128,-1,18
 579 407 579 407 579 318 c 0,19,20
 579 222 579 222 540 149 c 128,-1,21
 501 76 501 76 430 35 c 128,-1,22
 359 -6 359 -6 265 -6 c 0,0,1
274 114 m 0,23,24
 313 114 313 114 342.5 130 c 128,-1,25
 372 146 372 146 388.5 174 c 128,-1,26
 405 202 405 202 405 238 c 0,27,28
 405 283 405 283 376.5 309 c 128,-1,29
 348 335 348 335 298 335 c 0,30,31
 260 335 260 335 230.5 319 c 128,-1,32
 201 303 201 303 184.5 275 c 128,-1,33
 168 247 168 247 168 210 c 0,34,35
 168 166 168 166 196.5 140 c 128,-1,36
 225 114 225 114 274 114 c 0,23,24
152 483 m 1,37,-1
 126 546 l 1,38,-1
 565 730 l 1,39,-1
 592 667 l 1,40,-1
 152 483 l 1,37,-1
EndSplineSet
Substitution2: "'smcp' Lowercase to Small Capitals lookup 49 subtable" eth.sc
Substitution2: "'aalt' Access All Alternates lookup 3 subtable" eth.sc
EndChar

StartChar: e
Encoding: 101 101 653
Width: 628
GlyphClass: 2
Flags: WO
AnchorPoint: "Anchor-3" 367 537 basechar 0
AnchorPoint: "Anchor-2" 473 0 basechar 0
AnchorPoint: "Anchor-0" 293 0 basechar 0
LayerCount: 2
Fore
SplineSet
305 -8 m 0,0,1
 221 -8 221 -8 159.5 22 c 128,-1,2
 98 52 98 52 64 106 c 128,-1,3
 30 160 30 160 30 233 c 0,4,5
 30 323 30 323 70.5 393.5 c 128,-1,6
 111 464 111 464 182.5 505 c 128,-1,7
 254 546 254 546 347 546 c 0,8,9
 422 546 422 546 483 516.5 c 0,10,11
 530.800421274 493.711427067 530.800421274 493.711427067 560 454 c 0,12,13
 608 386 608 386 603 268 c 1,14,-1
 62 160 l 1,15,-1
 56 252 l 1,16,-1
 518 347 l 1,17,-1
 457 290 l 1,18,19
 465 335 465 335 452 365.5 c 128,-1,20
 439 396 439 396 410 412.5 c 128,-1,21
 381 429 381 429 340 429 c 0,22,23
 289 429 289 429 253.5 404.5 c 128,-1,24
 218 380 218 380 200 337 c 128,-1,25
 182 294 182 294 182 240 c 0,26,27
 182 178 182 178 216.5 147.5 c 128,-1,28
 251 117 251 117 321 117 c 0,29,30
 362 117 362 117 400 130 c 128,-1,31
 438 143 438 143 465 167 c 1,32,-1
 530 64 l 1,33,34
 483 27 483 27 424.5 9.5 c 128,-1,35
 366 -8 366 -8 305 -8 c 0,0,1
EndSplineSet
Substitution2: "'ss01' Style Set 1 lookup 53 subtable" e.ss01
Substitution2: "'smcp' Lowercase to Small Capitals lookup 49 subtable" e.sc
AlternateSubs2: "'aalt' Access All Alternates lookup 4 subtable" e.sc e.ss01
EndChar

StartChar: eogonek
Encoding: 281 281 676
Width: 628
GlyphClass: 2
Flags: W
AnchorPoint: "Anchor-3" 368 537 basechar 0
LayerCount: 2
Fore
SplineSet
360 -232 m 0,0,1
 306 -232 306 -232 272 -206 c 128,-1,2
 238 -180 238 -180 238 -133 c 0,3,4
 238 -102 238 -102 253 -73.5 c 128,-1,5
 268 -45 268 -45 294.5 -21 c 128,-1,6
 321 3 321 3 357 20 c 1,7,-1
 379 1 l 1,8,9
 357 -4 357 -4 339 -6 c 128,-1,10
 321 -8 321 -8 305 -8 c 0,11,12
 222 -8 222 -8 160 22 c 128,-1,13
 98 52 98 52 64 106 c 128,-1,14
 30 160 30 160 30 233 c 0,15,16
 30 323 30 323 70.5 393.5 c 128,-1,17
 111 464 111 464 182.5 505 c 128,-1,18
 254 546 254 546 347 546 c 0,19,20
 426 546 426 546 483 516.5 c 128,-1,21
 540 487 540 487 571.5 434.5 c 128,-1,22
 603 382 603 382 603 309 c 0,23,24
 603 288 603 288 600.5 267 c 128,-1,25
 598 246 598 246 594 227 c 1,26,-1
 150 227 l 1,27,-1
 166 318 l 1,28,-1
 521 318 l 1,29,-1
 457 290 l 1,30,31
 465 335 465 335 452 365.5 c 128,-1,32
 439 396 439 396 410 412.5 c 128,-1,33
 381 429 381 429 340 429 c 0,34,35
 289 429 289 429 253.5 404.5 c 128,-1,36
 218 380 218 380 200 337 c 128,-1,37
 182 294 182 294 182 240 c 0,38,39
 182 178 182 178 216.5 147.5 c 128,-1,40
 251 117 251 117 322 117 c 0,41,42
 363 117 363 117 400.5 129.5 c 128,-1,43
 438 142 438 142 465 167 c 1,44,-1
 530 64 l 1,45,46
 518 54 518 54 503.5 45.5 c 128,-1,47
 489 37 489 37 478 30 c 0,48,49
 408 -7 408 -7 373 -41.5 c 128,-1,50
 338 -76 338 -76 338 -110 c 0,51,52
 338 -130 338 -130 351 -141.5 c 128,-1,53
 364 -153 364 -153 386 -153 c 0,54,55
 402 -153 402 -153 418.5 -148.5 c 128,-1,56
 435 -144 435 -144 447 -138 c 1,57,-1
 458 -209 l 1,58,59
 439 -219 439 -219 414.5 -225.5 c 128,-1,60
 390 -232 390 -232 360 -232 c 0,0,1
EndSplineSet
Substitution2: "'ss01' Style Set 1 lookup 53 subtable" eogonek.ss01
Substitution2: "'smcp' Lowercase to Small Capitals lookup 49 subtable" eogonek.sc
Substitution2: "'locl' Localized Forms in Latin lookup 18 subtable" eogonek.loclNAV
AlternateSubs2: "'aalt' Access All Alternates lookup 4 subtable" eogonek.loclNAV eogonek.sc eogonek.ss01
EndChar

StartChar: uni025B
Encoding: 603 603 677
Width: 572
GlyphClass: 2
Flags: W
AnchorPoint: "Anchor-3" 364 538 basechar 0
AnchorPoint: "Anchor-2" 336 0 basechar 0
AnchorPoint: "Anchor-0" 257 0 basechar 0
LayerCount: 2
Fore
SplineSet
256 -9 m 0,0,1
 191 -9 191 -9 135.5 7 c 128,-1,2
 80 23 80 23 46 57 c 128,-1,3
 12 91 12 91 12 145 c 0,4,5
 12 194 12 194 41.5 228.5 c 128,-1,6
 71 263 71 263 121 281 c 128,-1,7
 171 299 171 299 233 299 c 1,8,-1
 231 265 l 1,9,10
 161 265 161 265 119 297 c 128,-1,11
 77 329 77 329 77 387 c 0,12,13
 77 429 77 429 99 459.5 c 128,-1,14
 121 490 121 490 159.5 509.5 c 128,-1,15
 198 529 198 529 246 538 c 128,-1,16
 294 547 294 547 346 547 c 0,17,18
 409 547 409 547 468.5 534.5 c 128,-1,19
 528 522 528 522 570 499 c 1,20,-1
 511 391 l 1,21,22
 492 401 492 401 463.5 410 c 128,-1,23
 435 419 435 419 402.5 424 c 128,-1,24
 370 429 370 429 339 429 c 0,25,26
 310 429 310 429 285 423.5 c 128,-1,27
 260 418 260 418 245 404.5 c 128,-1,28
 230 391 230 391 230 370 c 0,29,30
 230 354 230 354 238.5 344 c 128,-1,31
 247 334 247 334 263.5 328.5 c 128,-1,32
 280 323 280 323 305 323 c 2,33,-1
 416 323 l 1,34,-1
 397 226 l 1,35,-1
 267 226 l 2,36,37
 244 226 244 226 223.5 220.5 c 128,-1,38
 203 215 203 215 189.5 202.5 c 128,-1,39
 176 190 176 190 176 169 c 0,40,41
 176 147 176 147 190.5 134.5 c 128,-1,42
 205 122 205 122 229 116 c 128,-1,43
 253 110 253 110 283 110 c 0,44,45
 316 110 316 110 352.5 116 c 128,-1,46
 389 122 389 122 422 131.5 c 128,-1,47
 455 141 455 141 477 151 c 1,48,-1
 501 41 l 1,49,50
 446 17 446 17 382 4 c 128,-1,51
 318 -9 318 -9 256 -9 c 0,0,1
EndSplineSet
Substitution2: "'smcp' Lowercase to Small Capitals lookup 49 subtable" uni025B.sc
Substitution2: "'aalt' Access All Alternates lookup 3 subtable" uni025B.sc
EndChar

StartChar: uni0258
Encoding: 600 600 679
Width: 628
GlyphClass: 2
Flags: W
AnchorPoint: "Anchor-3" 360 537 basechar 0
AnchorPoint: "Anchor-0" 250 0 basechar 0
LayerCount: 2
Fore
SplineSet
323 546 m 0,0,1
 407 546 407 546 469 516 c 128,-1,2
 531 486 531 486 564.5 432 c 128,-1,3
 598 378 598 378 598 305 c 0,4,5
 598 215 598 215 557.5 144.5 c 128,-1,6
 517 74 517 74 446 33 c 128,-1,7
 375 -8 375 -8 281 -8 c 0,8,9
 203 -8 203 -8 145.5 21.5 c 128,-1,10
 88 51 88 51 56.5 104 c 128,-1,11
 25 157 25 157 25 229 c 0,12,13
 25 251 25 251 27.5 271.5 c 128,-1,14
 30 292 30 292 34 311 c 1,15,-1
 479 311 l 1,16,-1
 463 220 l 1,17,-1
 107 220 l 1,18,-1
 172 248 l 1,19,20
 164 204 164 204 177 173 c 128,-1,21
 190 142 190 142 219 125.5 c 128,-1,22
 248 109 248 109 288 109 c 0,23,24
 339 109 339 109 374.5 133.5 c 128,-1,25
 410 158 410 158 428 201.5 c 128,-1,26
 446 245 446 245 446 298 c 0,27,28
 446 360 446 360 412 390.5 c 128,-1,29
 378 421 378 421 307 421 c 0,30,31
 266 421 266 421 228.5 408.5 c 128,-1,32
 191 396 191 396 163 371 c 1,33,-1
 98 474 l 1,34,35
 145 511 145 511 203.5 528.5 c 128,-1,36
 262 546 262 546 323 546 c 0,0,1
EndSplineSet
Substitution2: "'ss01' Style Set 1 lookup 53 subtable" uni0258.ss01
Substitution2: "'smcp' Lowercase to Small Capitals lookup 49 subtable" uni0258.sc
AlternateSubs2: "'aalt' Access All Alternates lookup 4 subtable" uni0258.sc uni0258.ss01
EndChar

